{"glyphs":{"0":{"ha":724,"x_min":32,"x_max":724,"o":"m 724 820 l 724 815 q 723 790 724 807 q 719 756 722 773 q 715 736 717 739 q 712 728 713 734 q 709 715 710 722 q 705 695 708 708 q 698 669 701 682 q 690 643 694 656 q 684 621 686 629 q 676 600 681 610 q 661 568 672 589 q 657 557 659 563 q 656 549 656 552 q 654 541 656 545 q 649 532 652 536 q 645 522 647 529 q 643 509 643 515 q 641 496 643 499 q 635 492 640 492 l 633 492 q 630 492 630 492 q 634 488 630 490 q 637 485 637 486 q 636 484 637 484 q 631 480 634 484 q 627 469 629 475 q 622 459 624 463 q 617 454 619 454 q 616 453 616 454 l 616 448 q 616 446 616 448 q 613 435 616 444 q 603 416 610 427 q 592 397 597 406 q 588 389 588 389 q 584 377 588 385 q 576 363 581 370 q 569 357 571 357 q 566 352 566 357 l 566 347 q 563 336 566 342 q 555 323 560 330 q 547 312 551 316 q 542 309 544 309 l 540 309 q 539 307 539 309 q 538 300 538 305 q 535 288 538 296 q 526 272 531 279 q 516 257 521 264 q 511 246 512 250 q 506 240 509 243 q 500 236 503 237 q 492 224 492 234 q 489 214 492 220 q 484 204 487 208 q 455 162 473 193 q 425 118 439 136 q 406 98 412 100 q 401 94 404 96 q 399 90 399 92 q 395 79 399 85 q 386 67 391 72 q 377 62 381 62 q 368 56 374 61 q 355 44 361 52 q 307 -6 330 14 q 274 -28 283 -26 q 269 -28 269 -28 q 270 -30 269 -29 q 273 -34 273 -31 q 272 -37 273 -35 q 267 -41 271 -39 q 257 -44 262 -44 q 244 -49 254 -44 q 226 -61 235 -54 q 208 -73 216 -68 q 196 -78 199 -78 q 185 -79 193 -78 q 169 -83 177 -81 q 152 -87 161 -85 l 136 -87 q 124 -85 130 -87 q 117 -82 119 -83 q 112 -79 115 -80 q 105 -78 109 -78 q 100 -77 102 -78 q 98 -73 98 -75 q 92 -63 98 -71 q 76 -46 85 -56 q 58 -27 67 -36 q 47 -1 51 -19 q 44 20 44 10 q 45 31 44 25 l 46 35 q 45 41 46 37 q 43 47 45 44 q 39 60 41 50 q 36 83 37 71 q 34 107 35 96 q 32 119 33 117 l 32 122 q 32 125 32 123 q 34 127 33 126 q 37 134 35 128 q 41 148 39 140 q 43 162 41 156 q 46 168 45 168 q 48 175 47 168 q 49 195 49 183 q 51 216 49 207 q 54 227 52 224 q 58 234 56 229 q 60 243 60 239 q 63 255 60 248 q 71 270 66 263 q 77 281 75 276 q 80 289 80 287 l 80 292 q 81 297 80 294 q 83 306 81 300 q 86 315 84 311 q 88 319 87 319 q 91 323 90 319 q 92 332 92 327 q 95 343 92 338 q 101 353 97 349 q 109 367 104 357 q 117 391 113 378 q 124 415 120 404 q 132 429 129 426 q 139 437 136 433 q 142 445 142 441 q 146 459 142 450 q 153 476 149 468 q 160 485 157 484 q 164 493 161 486 q 171 509 168 500 q 179 529 174 519 q 187 545 184 539 q 196 559 191 550 q 206 576 201 568 q 217 594 210 584 q 230 612 224 605 q 241 628 236 620 q 249 642 247 637 q 257 657 251 647 q 271 676 264 667 q 283 694 278 686 q 288 703 288 702 q 293 713 288 705 q 307 731 299 721 q 320 749 315 741 q 326 758 326 757 q 337 778 326 763 q 365 810 349 793 q 395 839 381 827 q 414 852 410 852 q 421 855 419 852 q 424 865 423 858 q 427 877 425 874 q 433 879 429 879 q 437 878 434 879 q 448 881 446 878 q 449 882 449 882 q 444 886 449 884 q 443 888 443 887 q 444 891 443 889 q 449 898 445 894 q 458 905 454 903 q 465 906 461 906 q 470 905 467 906 q 477 904 475 904 q 480 905 479 904 q 481 907 481 905 q 480 913 481 909 q 479 916 479 915 q 481 922 479 919 q 494 930 484 924 q 528 947 505 936 q 565 965 549 957 q 587 975 582 973 q 594 977 590 977 l 597 977 q 601 977 599 977 q 610 974 603 975 q 625 972 616 972 q 648 967 636 971 q 668 959 659 964 q 677 951 676 955 q 681 943 677 949 q 691 930 685 937 q 723 854 722 897 q 723 833 723 843 q 724 820 724 824 m 646 844 q 651 859 650 850 l 651 861 q 648 871 651 868 q 645 875 646 871 q 644 884 644 879 q 639 900 644 895 q 631 904 635 904 q 627 903 629 904 q 618 901 624 901 q 606 903 612 901 q 597 905 602 905 q 588 903 593 905 q 566 894 582 902 q 544 882 554 888 q 529 869 534 875 q 521 861 525 865 q 515 858 517 858 q 511 855 514 858 q 505 848 508 852 q 475 827 491 827 l 475 827 q 468 825 471 827 q 465 822 465 824 q 467 820 465 820 l 469 820 q 473 822 473 822 q 474 821 474 822 q 470 812 474 820 q 448 785 465 805 q 425 760 436 772 q 409 741 414 747 q 399 730 404 734 q 395 727 396 727 l 394 727 l 392 728 q 389 727 391 728 q 385 723 387 726 q 382 718 382 720 l 382 718 q 383 717 382 717 q 384 716 384 717 q 384 714 384 715 q 381 710 383 713 q 378 706 378 707 l 378 705 q 378 704 378 704 q 379 703 379 704 q 379 701 379 702 q 376 695 378 699 q 372 690 374 692 q 370 689 370 689 l 368 689 q 367 690 368 690 q 362 686 366 690 q 357 677 359 683 q 353 666 354 671 q 349 660 352 663 q 343 654 347 656 q 337 647 339 651 q 334 639 334 642 q 323 624 334 630 q 316 617 319 621 q 313 611 313 614 q 308 588 313 600 q 296 577 302 577 q 290 572 290 577 q 291 569 290 571 q 292 565 292 566 q 288 560 292 560 q 278 550 284 559 q 268 531 273 541 q 262 515 262 520 q 259 509 262 513 q 252 501 256 505 q 244 491 248 497 q 239 479 241 485 q 237 467 239 474 q 235 454 235 460 q 232 446 233 449 q 228 442 230 442 q 216 422 227 442 q 194 378 205 403 q 176 335 183 353 q 172 319 173 327 q 171 311 171 315 l 171 309 q 172 305 172 307 q 171 304 172 304 q 170 304 170 304 q 162 290 168 304 q 149 255 156 275 q 137 215 142 234 q 132 191 132 197 q 130 183 132 187 q 127 176 129 179 q 123 173 125 175 q 121 166 122 171 q 120 150 121 161 q 117 121 119 140 q 114 97 116 109 q 109 79 111 85 q 105 66 105 73 q 106 60 105 63 q 109 49 108 56 q 110 35 110 42 q 112 18 111 28 q 117 -1 114 7 q 124 -18 121 -14 q 130 -20 126 -20 l 132 -20 q 136 -20 134 -20 q 138 -20 136 -20 q 142 -22 140 -21 q 151 -27 144 -26 l 155 -27 q 164 -25 159 -27 q 172 -19 170 -24 q 175 -13 173 -15 q 180 -10 178 -10 q 199 -3 186 -10 q 237 24 212 5 q 287 72 287 61 q 286 74 287 73 q 286 76 286 75 q 287 79 286 77 q 292 83 288 81 q 298 89 296 86 q 300 94 300 92 q 304 98 300 95 q 313 105 308 102 q 322 112 319 109 q 326 117 326 115 q 328 122 326 118 q 334 130 331 125 q 360 163 349 146 q 374 188 372 180 q 378 194 376 192 q 381 197 380 197 q 385 199 383 197 q 388 204 387 201 q 397 219 390 208 q 414 243 405 231 q 431 266 423 256 q 440 277 438 275 q 443 278 442 277 q 444 281 444 280 q 452 298 444 283 q 472 332 460 312 q 498 378 484 352 q 522 424 513 404 q 540 457 532 443 q 550 473 548 471 q 553 478 551 475 q 554 485 554 482 q 557 496 554 488 q 565 514 560 505 q 572 531 569 523 q 575 541 575 538 q 577 547 575 544 q 581 550 579 549 q 586 555 584 551 q 588 563 588 559 q 592 589 588 571 q 603 626 597 608 q 614 653 609 644 q 621 669 618 660 q 624 685 623 677 q 626 703 625 692 q 630 721 628 713 q 633 741 631 729 q 637 761 635 752 q 640 777 638 770 q 644 787 642 785 q 646 791 646 789 l 646 792 q 645 793 646 793 q 644 793 644 793 l 644 794 q 646 798 644 795 q 648 805 648 800 q 645 821 648 810 q 642 836 642 831 q 646 844 642 840 z "},"1":{"ha":430,"x_min":-203,"x_max":562,"o":"m -174 -60 q -176 -54 -174 -56 q -182 -52 -178 -52 q -184 -51 -184 -52 q -176 -46 -184 -50 l -163 -40 l -178 -41 l -182 -41 q -190 -39 -186 -41 q -197 -30 -194 -37 q -202 -20 -200 -24 q -203 -13 -203 -15 q -196 -2 -203 -9 q -179 10 -189 5 q -161 18 -170 16 q -145 20 -155 18 q -125 24 -135 22 q -101 28 -116 26 q -71 32 -85 31 q -7 40 -29 37 q 23 45 15 43 q 31 52 31 48 q 36 64 32 59 q 43 70 40 70 q 47 74 45 70 q 49 86 48 79 q 51 101 49 93 q 56 115 53 109 q 61 125 59 120 q 62 132 62 130 q 64 136 62 134 q 68 138 66 138 q 77 146 72 138 q 85 164 82 155 q 88 181 88 174 l 88 185 q 91 191 88 191 q 94 190 92 191 q 95 189 94 189 q 102 205 100 189 q 106 217 104 212 q 109 222 108 222 q 112 226 111 222 q 113 235 113 230 q 120 250 113 246 q 124 253 123 252 q 125 256 125 255 l 125 259 q 126 264 125 261 q 132 272 128 268 q 141 283 137 277 q 145 292 144 289 q 145 296 145 294 q 143 298 145 298 q 141 301 141 298 q 142 305 141 303 q 150 329 144 312 q 153 334 151 332 q 158 336 155 336 q 162 340 162 336 q 161 343 162 341 q 161 346 161 345 q 162 351 161 348 q 168 361 164 357 q 174 372 172 367 q 176 378 176 376 q 178 384 176 380 q 180 390 179 387 q 185 399 182 393 q 189 412 187 406 q 200 424 195 424 l 201 424 q 208 433 208 424 q 211 441 209 437 q 216 447 213 445 q 221 456 221 450 q 220 460 221 458 q 220 465 220 463 q 224 474 220 471 q 228 478 227 476 q 230 483 230 481 q 231 495 231 491 q 233 500 232 498 q 237 501 235 501 q 244 506 240 501 q 252 517 248 511 q 257 527 256 523 q 259 532 259 530 q 258 534 259 534 q 256 540 256 536 q 256 545 256 542 q 263 558 258 551 q 273 564 269 564 q 282 573 282 564 q 285 582 282 576 q 291 591 288 587 q 299 604 297 595 q 303 629 302 612 q 305 631 303 630 q 309 632 307 632 q 314 634 312 632 q 317 640 317 636 q 325 655 320 647 q 334 667 330 663 q 336 672 336 668 q 336 681 336 675 q 335 687 335 684 q 336 692 335 690 q 343 702 337 696 q 351 712 348 707 q 354 723 354 718 q 355 730 354 727 q 358 734 357 734 q 361 735 360 734 q 363 739 363 737 q 365 744 363 742 q 370 748 366 747 q 374 755 374 750 q 374 759 374 757 l 374 765 q 375 767 374 767 q 379 771 378 767 q 381 781 381 775 q 379 789 381 785 q 375 791 378 791 l 373 791 q 360 784 369 789 q 347 777 353 779 q 340 774 342 774 l 340 774 q 337 774 338 774 q 334 770 336 772 q 332 766 334 767 q 330 765 331 765 q 328 766 330 765 l 327 766 l 326 766 q 325 764 325 765 q 323 760 325 762 q 318 759 321 759 q 314 757 314 759 q 315 754 314 755 q 315 752 315 753 q 315 751 315 751 l 313 751 q 311 752 313 752 q 304 750 309 752 q 288 744 298 748 q 283 741 286 743 q 272 736 275 737 q 267 734 269 734 l 267 734 q 268 739 267 736 q 269 741 268 739 q 269 744 269 743 q 269 745 269 745 q 262 743 267 745 q 252 740 258 741 q 240 739 245 739 q 226 746 228 740 q 224 754 224 751 q 229 767 224 760 q 234 773 234 772 l 234 774 l 233 774 q 228 773 232 774 q 221 772 223 772 q 219 772 219 772 q 239 787 219 775 q 256 798 248 791 q 270 808 265 804 q 281 815 278 815 q 284 814 283 815 q 288 811 286 811 q 291 812 290 811 q 295 822 295 815 q 298 829 295 825 q 305 836 300 833 q 316 845 309 839 q 329 856 323 850 q 344 867 338 865 q 355 870 350 870 q 359 869 357 870 q 362 871 361 869 q 363 874 363 872 q 373 889 363 879 q 396 910 382 899 q 419 928 409 922 q 433 935 429 935 l 435 935 q 436 934 435 934 q 437 935 437 934 q 439 938 439 935 q 447 951 439 941 q 465 970 456 961 q 478 979 475 979 q 484 982 479 979 q 494 989 489 985 q 516 998 505 998 q 547 980 532 998 q 557 967 553 973 q 562 957 562 960 q 553 932 562 950 q 534 901 544 915 q 526 889 530 895 q 522 878 523 882 q 518 871 520 874 q 515 869 516 869 q 512 866 513 869 q 511 861 511 864 q 508 852 511 857 q 503 844 506 848 q 495 833 500 841 q 488 818 491 826 q 479 798 485 810 q 466 776 473 786 q 455 758 460 766 q 451 748 451 750 q 443 728 451 745 q 422 686 435 710 q 401 642 410 661 q 391 618 392 623 q 387 609 389 614 q 382 602 385 604 q 376 593 380 599 q 369 581 372 587 q 363 570 366 574 q 359 567 360 567 l 357 567 q 355 565 356 567 q 354 557 354 562 q 351 544 354 552 q 345 530 349 536 q 331 506 340 524 q 312 469 321 489 q 294 435 302 450 q 283 417 286 420 q 280 412 281 415 q 278 406 278 408 q 276 400 278 404 q 270 395 273 397 q 263 388 266 392 q 261 379 261 383 q 253 356 261 374 q 234 313 245 337 q 212 267 222 290 q 195 233 201 244 q 164 168 170 176 q 158 153 163 164 q 146 129 153 142 q 135 102 141 115 q 125 81 129 88 q 125 78 125 79 q 117 60 118 64 q 116 54 116 56 q 118 50 116 51 q 132 49 122 49 l 134 49 q 149 50 142 49 q 159 54 157 52 q 164 56 161 56 q 169 54 166 56 q 194 50 172 52 q 244 47 215 48 q 403 27 387 41 q 404 25 404 26 l 404 24 q 401 24 403 24 q 397 21 399 24 q 396 16 396 19 q 394 8 396 12 q 387 4 391 5 q 379 1 382 3 q 374 -3 376 -1 q 371 -5 373 -5 q 367 -2 369 -5 q 363 1 365 1 q 363 -1 363 1 l 363 -1 q 310 -13 363 -11 q 236 -16 264 -14 q 192 -18 208 -17 q 170 -20 176 -19 q 162 -23 163 -22 q 155 -25 159 -25 q 145 -23 151 -25 q 137 -21 140 -21 q 133 -21 134 -21 q 129 -22 130 -21 q 112 -28 121 -27 q 99 -29 103 -29 q 87 -27 92 -29 q 81 -25 84 -25 q 78 -25 79 -25 q 74 -26 76 -25 q 65 -28 72 -27 q 52 -30 59 -30 q 12 -33 23 -32 q -1 -37 0 -35 q -12 -40 -3 -39 q -34 -41 -21 -41 q -70 -47 -62 -42 q -84 -52 -75 -52 q -92 -51 -88 -52 q -99 -50 -96 -50 q -105 -51 -102 -50 q -113 -53 -111 -52 q -120 -57 -116 -55 q -132 -60 -123 -58 q -155 -63 -140 -61 q -168 -64 -163 -64 l -170 -64 q -174 -60 -174 -64 z "},"2":{"ha":718,"x_min":-203,"x_max":718,"o":"m -157 -96 q -162 -92 -157 -94 q -174 -86 -167 -89 q -189 -78 -184 -83 q -197 -66 -194 -74 l -203 -51 l -181 -31 q -161 -13 -172 -22 q -145 2 -151 -3 q -134 11 -140 7 q -126 15 -129 15 q -119 18 -123 15 q -110 26 -114 21 q -101 33 -106 30 q -94 36 -97 36 q -90 38 -92 36 q -86 43 -87 40 q -82 47 -85 45 q -75 51 -79 50 q -59 61 -71 53 q -33 82 -47 70 q -6 104 -18 94 q 14 122 1 111 q 39 142 26 132 q 61 160 52 153 q 71 168 70 167 q 79 173 73 168 q 95 186 86 178 q 111 200 104 195 q 119 205 118 205 q 127 211 121 205 q 141 224 134 216 q 161 242 149 232 q 182 259 172 252 q 206 278 192 267 q 233 300 220 290 q 266 321 258 321 l 267 321 q 269 321 268 321 q 276 331 275 321 q 303 359 278 342 q 327 378 314 366 q 351 402 340 391 q 368 421 360 414 q 378 429 376 429 q 383 433 380 429 q 390 441 387 436 q 403 458 393 447 q 425 481 413 469 q 444 502 436 492 q 452 513 452 511 q 458 521 452 515 q 473 535 465 528 q 492 558 492 551 l 492 559 q 492 562 492 561 q 494 568 492 565 q 501 577 496 573 q 509 581 505 581 q 524 594 515 581 q 540 623 532 607 q 549 650 547 639 q 551 652 549 651 q 556 653 553 653 q 560 654 559 653 q 561 657 561 656 l 561 660 q 564 669 561 663 q 573 683 567 675 q 584 694 578 690 q 589 701 587 697 q 591 706 591 704 q 593 711 591 709 q 597 715 595 714 q 603 723 600 717 q 610 736 607 728 q 617 749 614 743 q 624 760 621 756 q 629 767 627 762 q 631 777 631 772 q 634 787 632 781 q 638 799 635 793 q 642 811 640 804 q 644 823 644 819 q 646 833 645 828 q 650 840 648 838 q 651 847 651 842 q 651 856 652 852 q 650 863 650 859 l 650 867 q 652 878 650 873 q 654 890 653 883 q 654 903 654 897 q 651 915 654 911 q 644 919 649 918 l 641 919 q 633 912 633 919 q 633 907 633 907 q 629 911 632 907 q 614 918 626 918 l 600 918 q 591 920 594 918 q 575 922 585 922 q 520 913 555 922 q 420 876 467 899 q 398 865 408 869 q 387 861 389 861 q 377 856 386 861 q 359 845 369 852 q 327 832 336 832 l 325 832 q 321 833 323 833 q 319 831 319 833 q 319 830 319 831 l 319 829 q 313 819 319 825 q 296 804 306 811 q 280 797 286 798 q 273 793 273 797 l 273 791 q 266 779 273 788 q 248 758 258 769 q 227 738 237 747 q 214 729 217 729 q 209 730 211 729 q 207 734 207 732 q 205 736 207 736 q 199 734 203 736 q 193 732 196 732 q 189 732 191 732 q 176 744 184 734 q 164 758 166 753 q 163 766 163 762 q 163 773 163 770 q 179 800 168 800 l 182 800 q 188 803 184 800 q 196 812 193 806 q 213 825 204 825 l 216 825 q 221 829 221 825 l 220 832 l 220 833 q 222 840 220 836 q 229 847 224 844 q 265 872 252 864 q 283 883 277 881 q 292 885 289 885 q 296 884 294 885 l 304 884 q 307 886 307 884 l 306 887 q 314 897 306 891 q 340 911 323 904 q 361 920 349 915 q 382 930 373 926 q 513 980 418 947 q 552 990 536 987 q 592 993 568 993 q 609 994 602 994 q 621 993 616 994 q 635 990 630 992 q 645 982 640 987 q 684 943 672 956 q 699 920 695 930 q 706 906 702 913 q 712 892 709 898 q 718 874 718 880 q 713 869 718 869 q 711 867 711 869 q 714 863 711 866 q 717 845 717 857 q 716 829 717 838 q 705 774 713 803 q 688 729 697 745 q 679 714 683 723 q 672 700 675 706 q 665 685 669 693 q 656 671 661 677 q 649 661 652 666 q 646 655 646 656 q 638 641 646 654 q 618 610 630 628 q 595 576 606 592 q 582 554 585 560 q 573 541 578 549 q 563 528 568 534 q 541 500 549 513 q 532 482 532 488 q 530 477 532 479 q 526 473 528 474 q 510 462 519 470 q 494 445 501 454 q 486 431 486 436 q 480 424 484 428 q 472 417 477 420 q 461 409 467 415 q 450 396 454 403 q 426 367 444 386 q 389 328 409 348 q 353 296 368 309 q 335 280 345 289 q 318 266 325 272 q 306 256 311 260 q 299 252 300 252 q 273 231 295 252 q 251 212 269 227 q 211 178 233 197 q 174 148 189 160 q 155 133 167 142 q 131 113 142 123 q 109 95 119 103 q 95 84 99 87 q 82 73 91 81 q 62 56 73 65 q 42 41 52 47 q 28 35 33 35 q 22 33 24 35 q 19 28 19 31 q 15 21 19 26 q 5 11 11 16 l -9 -2 l 24 -2 q 50 -1 39 -2 q 62 3 60 1 q 71 5 64 5 q 79 5 75 5 q 119 3 92 3 q 151 3 134 3 q 279 9 205 4 q 320 11 298 10 q 359 14 343 12 q 479 20 442 17 q 493 21 487 21 q 498 20 498 20 q 513 16 498 18 q 548 11 527 14 q 586 6 569 9 q 608 3 603 4 q 619 -4 618 -1 q 621 -7 621 -7 q 614 -10 621 -10 q 609 -12 609 -10 q 612 -16 609 -14 q 617 -26 617 -21 l 617 -28 q 608 -36 615 -35 l 605 -36 q 601 -37 601 -36 q 604 -40 601 -38 q 607 -43 607 -41 q 598 -45 607 -44 q 570 -48 576 -46 q 553 -50 569 -49 q 515 -50 538 -50 q 462 -52 492 -51 q 408 -55 431 -54 q 347 -58 370 -57 q 296 -60 323 -60 q 224 -62 269 -61 q 80 -67 131 -65 q -2 -72 30 -69 q -72 -81 -35 -75 q -87 -82 -79 -81 q -102 -84 -95 -83 q -116 -87 -108 -85 q -129 -92 -123 -90 q -144 -98 -140 -98 q -150 -99 -149 -99 q -157 -96 -157 -99 z "},"3":{"ha":777,"x_min":-203,"x_max":743,"o":"m 115 -73 q 29 -68 56 -71 q -7 -58 2 -64 q -20 -53 -11 -56 q -41 -47 -30 -50 q -61 -40 -51 -44 q -77 -34 -72 -37 q -89 -29 -83 -31 q -99 -27 -95 -27 q -108 -24 -102 -27 q -118 -17 -113 -21 q -126 -9 -122 -12 q -134 -6 -131 -6 q -138 -4 -136 -6 q -142 0 -140 -3 q -144 3 -142 2 q -148 4 -146 4 q -151 3 -149 4 l -153 3 q -165 9 -159 3 q -173 23 -173 16 q -177 33 -173 28 q -184 40 -180 38 q -189 43 -187 43 q -191 42 -190 43 q -192 41 -191 41 q -193 42 -193 41 q -194 46 -194 43 q -194 53 -194 50 q -196 61 -195 56 q -201 77 -197 66 q -203 90 -203 85 q -187 104 -203 104 q -176 113 -178 104 q -171 119 -174 119 q -167 117 -169 119 q -158 98 -161 113 q -151 83 -157 90 q -126 66 -144 77 q -90 51 -100 51 q -87 52 -88 51 q -81 52 -83 52 q -78 52 -79 52 q -74 44 -75 50 q -71 37 -73 38 q -65 37 -68 37 q -55 38 -62 37 q -43 39 -47 39 q -37 37 -37 39 q -34 33 -37 35 q -26 28 -31 30 q -16 21 -21 25 q -8 14 -11 18 q 3 7 -4 9 q 18 6 10 6 q 30 7 23 6 q 43 5 33 7 q 66 2 54 4 q 128 -4 106 -4 q 157 -5 150 -5 q 192 -1 180 -5 q 207 1 201 1 q 216 -1 212 1 q 220 -3 218 -3 q 227 2 224 -3 q 259 9 229 9 q 289 14 284 9 q 295 18 291 16 q 303 19 299 19 q 316 21 307 19 q 332 27 324 24 q 349 34 339 31 q 366 38 359 37 q 393 46 378 41 q 420 58 408 51 q 427 60 423 59 q 433 62 431 62 q 446 66 435 62 q 469 77 457 71 q 490 89 481 83 q 499 96 499 94 q 502 99 499 98 q 508 100 504 100 q 514 101 511 100 q 516 105 516 103 q 519 109 516 107 q 525 111 522 111 q 545 119 535 113 q 557 134 555 126 q 559 138 558 137 q 562 140 561 140 l 564 140 q 567 140 565 140 q 572 146 570 142 q 577 152 574 150 q 582 155 581 155 q 587 158 585 155 q 591 165 590 161 q 593 171 593 168 l 593 173 q 594 175 593 174 q 596 175 595 175 q 601 174 598 175 l 603 174 q 611 178 607 174 q 625 197 616 182 q 637 213 632 207 q 644 219 642 219 l 645 219 q 651 225 647 219 q 659 239 654 231 q 668 255 663 249 q 677 263 673 262 q 683 266 680 264 q 687 273 685 267 q 691 290 688 278 q 698 323 694 302 q 703 350 701 341 q 704 363 704 359 l 704 368 q 701 379 703 374 q 689 393 695 393 q 680 386 684 393 q 677 380 677 380 q 675 380 676 380 q 672 384 674 380 q 670 391 670 388 q 672 399 670 395 q 675 407 674 403 q 677 414 677 411 q 673 420 677 418 q 666 424 669 423 q 661 421 662 424 q 658 418 660 418 l 656 419 q 650 424 653 420 q 647 432 647 428 q 643 439 647 436 q 636 443 639 442 q 633 444 634 444 q 629 441 631 444 q 628 440 629 440 q 626 441 627 440 q 621 450 623 444 q 606 463 616 463 q 598 466 602 463 q 592 471 594 468 q 586 478 590 475 q 578 480 582 480 q 568 482 573 480 q 561 486 564 484 q 555 491 558 489 q 549 492 551 492 q 543 494 546 492 q 537 498 540 496 q 528 504 535 501 q 513 507 521 507 q 494 511 504 509 q 478 515 485 513 q 444 519 466 517 q 400 520 421 521 q 370 518 378 520 q 356 514 364 516 q 340 511 347 513 q 292 502 319 509 q 252 490 264 495 q 241 486 246 486 q 235 486 236 486 q 226 488 229 486 q 222 491 222 488 q 222 493 222 492 q 223 494 223 494 q 222 496 223 495 q 218 497 221 497 q 209 501 215 497 q 198 509 203 505 q 193 517 193 514 q 191 522 192 519 q 189 528 190 524 q 186 538 186 533 q 213 566 186 554 q 233 577 222 570 q 250 591 243 585 q 275 607 265 607 q 284 609 279 607 q 292 614 289 611 q 302 622 295 617 q 318 631 310 627 q 333 641 327 636 q 340 648 339 645 q 343 651 341 650 q 347 653 345 653 q 367 663 351 653 q 397 684 382 673 q 415 700 412 695 q 420 706 417 703 q 425 708 423 708 q 434 712 428 708 q 446 722 439 715 q 458 732 451 727 q 472 741 466 738 q 485 749 477 743 q 497 759 492 754 q 509 770 503 764 q 519 780 515 776 q 533 790 524 784 q 552 803 542 797 q 573 820 565 812 q 587 844 581 829 q 605 877 599 867 q 615 890 611 888 q 618 895 618 892 l 617 897 q 612 904 616 901 q 603 907 608 907 q 595 908 598 907 q 592 911 592 909 q 572 919 592 917 q 535 920 551 920 q 509 920 522 920 q 455 911 477 918 q 404 904 427 904 l 395 904 q 374 899 375 904 q 372 897 373 897 q 366 901 370 897 q 363 908 363 905 q 366 912 363 911 l 366 913 q 364 914 366 913 q 355 915 361 915 q 338 920 338 916 q 342 925 338 922 q 344 930 343 926 q 345 939 345 935 q 348 949 345 946 q 360 956 351 953 q 374 960 367 957 q 387 967 381 964 q 402 974 391 970 q 426 979 414 977 q 452 983 439 981 q 474 987 465 985 q 494 989 484 989 q 515 987 504 989 q 533 984 524 985 q 547 983 543 983 l 551 983 q 566 983 556 983 q 597 979 580 981 q 631 973 621 976 q 644 965 642 970 q 647 961 645 962 q 650 960 649 960 l 652 960 q 653 960 652 960 q 654 960 654 960 q 656 955 656 958 q 658 947 656 951 q 664 939 661 943 q 673 909 672 930 q 672 875 673 887 q 670 858 672 863 q 664 848 668 852 q 658 842 661 846 q 656 835 656 838 q 650 824 656 832 q 637 807 645 816 q 620 786 629 798 q 606 765 611 774 q 466 645 576 721 q 451 634 459 640 q 435 623 442 627 q 423 614 429 618 q 415 611 417 611 q 413 608 413 611 q 413 602 413 604 q 414 595 413 599 q 417 586 415 589 q 430 584 418 585 q 458 581 441 583 q 576 554 547 573 q 585 549 581 551 q 590 547 589 547 l 593 547 q 597 547 594 547 q 605 545 600 546 q 615 541 610 544 q 623 534 620 538 q 634 519 631 524 q 640 515 638 515 q 646 518 642 515 q 649 521 648 521 q 651 516 651 521 q 655 509 651 513 q 666 500 660 504 q 676 492 672 496 q 681 487 681 488 q 685 479 681 485 q 695 466 689 473 q 710 442 701 458 q 726 410 718 427 q 737 381 734 392 q 742 356 741 370 q 743 314 743 342 q 742 272 743 289 q 739 254 741 255 q 738 251 738 252 q 738 249 738 250 l 738 247 q 737 245 738 246 q 732 245 736 245 l 731 245 q 723 231 725 245 q 657 127 716 188 q 593 68 621 89 q 516 20 566 47 q 502 11 508 16 q 494 5 496 7 q 491 1 493 3 q 485 0 489 0 q 475 -1 481 -1 q 466 -4 471 -1 q 457 -10 461 -7 q 449 -16 453 -14 q 442 -19 444 -19 q 435 -21 440 -19 q 424 -26 429 -22 q 413 -30 418 -28 q 406 -31 409 -31 q 401 -30 404 -31 q 399 -29 400 -29 q 396 -30 397 -29 q 393 -31 393 -30 q 376 -40 393 -35 q 337 -52 359 -46 q 299 -61 315 -58 q 276 -64 283 -64 q 272 -63 273 -64 q 262 -61 267 -61 l 259 -61 q 250 -65 252 -62 q 243 -70 248 -68 q 233 -72 238 -72 q 229 -69 229 -72 q 224 -66 229 -66 q 215 -68 220 -66 q 203 -70 209 -69 q 195 -71 198 -71 q 190 -72 192 -71 q 186 -74 187 -73 q 165 -75 185 -75 q 115 -73 144 -75 z "},"4":{"ha":825,"x_min":0,"x_max":907,"o":"m 468 -87 q 463 -81 466 -86 q 456 -68 459 -75 q 451 -59 452 -62 q 450 -54 450 -56 q 450 -51 450 -52 q 454 -43 451 -47 q 460 -32 458 -38 q 462 -21 462 -26 q 464 -5 462 -11 q 469 1 467 1 q 471 0 470 1 l 471 0 q 473 1 473 0 q 474 8 474 3 q 476 17 474 12 q 481 24 478 21 q 486 34 486 28 q 485 39 486 37 l 485 46 q 487 51 486 50 q 490 54 489 52 l 490 55 q 489 58 490 56 l 489 61 q 492 64 490 63 q 505 83 498 68 q 515 112 512 97 q 520 136 517 130 q 526 142 522 142 q 533 150 528 142 q 542 170 538 158 q 550 191 547 182 q 553 201 553 200 q 549 202 553 202 q 538 203 545 203 q 525 203 531 203 q 516 205 518 204 q 513 206 515 206 l 510 206 q 501 204 505 206 q 490 202 496 202 q 473 204 483 202 q 458 207 464 207 q 450 204 453 207 q 443 201 447 202 q 435 201 438 201 l 423 201 q 411 197 411 201 q 403 193 411 193 q 392 194 398 193 q 380 195 385 195 q 373 192 373 195 q 368 190 373 191 q 355 189 363 189 q 347 189 351 189 q 338 189 342 189 q 321 186 328 188 q 308 185 314 185 q 294 188 300 185 q 284 191 288 191 q 278 186 281 191 q 269 182 276 184 q 254 178 262 180 q 236 176 246 177 q 220 173 227 174 q 210 172 214 172 q 197 176 202 172 q 191 178 194 178 q 184 174 189 178 q 170 168 178 168 q 157 172 165 168 q 152 174 154 174 q 147 170 149 174 q 141 164 144 164 q 136 163 137 163 q 125 168 130 163 q 121 169 123 169 q 109 165 116 169 q 96 161 101 161 q 92 163 94 161 q 82 166 90 165 q 66 168 75 168 q 49 170 57 168 q 37 174 41 172 q 30 177 33 177 q 22 174 26 177 q 15 172 18 172 q 2 196 5 172 l 0 214 l 59 272 q 104 318 84 296 q 131 347 125 339 q 145 362 137 355 q 159 372 153 369 q 170 379 165 376 q 174 385 174 383 q 177 391 174 387 q 185 397 180 394 q 192 404 189 400 q 195 410 195 408 q 197 415 195 412 q 201 418 199 417 q 206 422 204 419 q 208 427 208 425 q 210 432 208 430 q 212 433 211 433 q 220 437 214 433 q 233 445 227 440 q 250 466 250 455 q 260 480 250 476 q 270 486 265 481 q 278 494 275 490 q 285 502 281 498 q 293 507 289 505 q 301 517 301 510 q 303 524 301 522 q 307 526 304 526 q 322 537 311 526 q 342 559 333 547 q 352 576 352 571 q 375 599 352 585 q 391 610 385 605 q 398 617 398 616 q 401 624 398 619 q 409 632 404 628 q 416 641 413 636 q 419 648 419 646 q 425 658 419 651 q 438 672 430 665 q 452 686 446 680 q 458 695 457 692 q 461 702 459 699 q 467 707 464 705 q 472 714 470 710 q 474 721 474 718 q 477 727 474 724 q 483 731 479 730 q 489 735 486 732 q 491 742 491 739 q 493 748 491 745 q 498 750 495 750 q 505 755 501 750 q 511 767 509 761 q 513 777 513 772 l 513 779 q 514 783 513 781 q 519 784 516 784 q 523 785 522 784 q 524 788 524 787 q 524 789 524 789 l 524 792 q 524 798 524 795 q 529 806 526 802 q 535 810 532 810 q 554 825 541 810 q 577 861 566 840 q 589 882 582 871 q 604 901 597 893 q 614 913 610 907 q 618 920 618 919 q 622 927 618 922 q 630 937 625 932 q 640 945 635 942 q 646 948 644 948 l 647 948 q 652 951 648 948 q 663 961 657 955 q 676 973 674 972 q 678 974 677 974 q 682 966 682 974 q 684 959 682 963 q 688 953 686 956 q 693 942 692 949 q 693 935 693 936 q 690 914 693 925 q 682 894 688 902 q 676 884 679 890 q 671 873 673 878 q 664 859 669 869 q 650 838 658 849 q 635 816 642 827 q 626 800 629 806 q 617 786 623 795 q 603 767 610 777 q 586 745 595 757 q 571 723 577 732 q 558 705 565 714 q 547 691 551 696 q 520 657 534 675 q 499 629 506 640 q 492 619 496 623 q 487 615 488 615 q 479 609 485 615 q 467 593 473 602 q 450 572 459 583 q 433 553 441 561 q 403 522 426 546 q 352 467 380 497 q 301 415 324 438 q 271 385 279 391 q 257 372 265 379 q 244 358 250 364 q 209 321 222 334 q 182 296 195 307 q 167 282 174 290 q 158 268 160 274 q 154 260 156 262 q 150 258 152 258 l 149 258 l 148 258 l 146 258 q 143 254 144 256 q 142 251 142 252 q 151 248 142 248 q 161 241 161 248 l 161 240 q 163 235 161 235 q 168 241 164 235 q 192 250 172 246 q 260 258 213 254 q 279 260 271 259 q 289 262 287 262 q 301 266 292 264 q 319 267 311 267 q 332 267 327 267 q 340 267 336 267 q 350 264 349 266 q 353 262 351 262 q 356 264 355 262 q 362 268 357 267 q 381 271 368 270 q 419 274 394 273 q 484 278 444 276 l 578 283 l 584 297 q 589 308 586 303 q 595 313 592 313 q 598 317 597 315 q 599 320 599 319 l 598 323 l 598 326 q 600 332 598 328 q 606 341 602 336 q 627 383 627 361 q 635 401 627 394 q 641 407 640 404 q 642 412 642 410 l 642 421 q 646 431 644 427 q 650 441 648 436 q 652 448 652 446 q 654 455 652 450 q 660 464 656 459 q 667 476 663 468 q 673 492 671 484 q 677 504 675 499 q 681 509 680 509 q 684 513 682 509 q 688 524 686 517 q 699 541 690 538 q 705 545 703 541 q 707 557 707 549 q 713 573 707 573 q 721 579 718 573 q 724 593 724 585 q 726 601 724 597 q 732 609 728 606 q 738 617 736 612 q 741 625 741 621 q 742 630 741 627 q 745 632 743 632 q 748 634 747 632 q 749 638 749 636 q 751 645 749 641 q 758 652 754 649 q 766 673 766 661 q 777 694 766 688 q 784 701 781 696 q 787 709 787 705 q 788 714 787 712 q 791 717 789 717 q 795 722 792 717 q 802 734 798 727 q 808 747 805 741 q 810 757 810 753 q 817 770 811 762 q 831 786 823 779 q 846 793 840 793 q 854 797 852 794 q 856 805 856 799 l 856 809 q 855 817 855 814 q 856 820 855 819 q 858 821 857 821 q 862 820 860 821 q 870 818 865 819 q 878 816 874 817 q 888 809 884 814 q 892 798 892 804 q 897 793 893 793 q 904 798 899 793 q 905 798 905 798 q 907 795 907 798 q 905 783 907 791 q 900 767 903 775 q 893 753 897 758 q 881 730 888 745 q 865 700 873 715 q 852 671 857 684 q 846 657 846 659 q 843 649 846 655 q 836 637 840 644 q 828 625 831 631 q 825 618 825 620 q 819 603 825 617 q 802 570 812 589 q 782 528 793 550 q 763 490 770 505 q 731 425 746 456 q 711 378 717 394 q 706 367 709 372 q 702 359 703 361 q 696 348 701 357 q 688 326 692 338 q 680 304 684 313 q 673 292 675 294 q 670 287 672 290 q 667 280 669 283 q 667 276 667 278 q 668 273 667 274 l 671 273 q 682 274 675 273 l 688 274 q 718 269 703 274 q 732 263 724 266 q 743 258 739 260 q 748 255 749 256 q 741 250 748 254 q 734 245 734 246 l 734 245 q 739 241 734 243 q 743 238 743 240 l 743 237 q 731 232 741 236 q 720 226 724 229 q 715 222 715 223 q 664 212 715 216 q 638 208 645 211 q 631 199 631 205 q 628 190 631 196 q 623 176 626 183 q 611 153 616 165 q 601 131 605 140 q 597 119 597 121 q 560 38 597 113 q 550 14 554 25 q 545 0 545 3 q 535 -23 542 -12 q 523 -37 528 -35 q 518 -42 520 -39 q 517 -50 517 -45 q 514 -60 517 -53 q 508 -73 512 -66 q 501 -82 503 -81 q 496 -83 498 -83 q 490 -83 494 -83 q 484 -81 486 -81 q 477 -85 479 -81 q 473 -87 475 -87 q 471 -88 471 -88 q 468 -87 469 -88 z "},"5":{"ha":658,"x_min":-230,"x_max":795,"o":"m -38 -86 q -47 -83 -41 -85 q -57 -81 -52 -81 q -105 -67 -98 -75 q -110 -64 -107 -65 q -115 -64 -113 -64 l -117 -64 q -120 -64 -119 -64 q -170 -33 -134 -64 q -183 -23 -176 -27 q -192 -19 -189 -19 q -207 -13 -196 -19 q -227 1 -217 -7 q -230 8 -230 3 q -230 15 -230 12 q -229 23 -230 19 q -225 31 -228 29 q -222 33 -222 32 q -221 35 -221 35 q -222 37 -221 36 l -222 37 q -215 40 -222 40 q -193 38 -206 40 q -167 31 -180 35 q -149 22 -155 27 q -143 21 -146 21 q -138 21 -140 21 l -135 21 q -130 22 -132 22 q -123 18 -125 22 q -120 13 -123 15 q -115 11 -117 11 q -109 10 -113 11 q -102 7 -105 9 q -92 2 -98 5 q -79 -3 -86 -1 q -66 -8 -73 -5 q -54 -14 -58 -12 q -29 -17 -45 -17 q 1 -15 -14 -17 q 20 -9 16 -12 q 34 -4 22 -6 q 60 0 45 -1 q 84 3 74 1 q 96 7 94 5 q 101 10 97 9 q 109 11 104 11 q 125 15 115 11 q 144 24 136 19 q 153 32 153 29 q 155 35 153 34 q 161 36 157 36 q 170 39 164 36 q 179 45 175 41 q 189 51 184 48 q 197 53 194 53 q 202 55 199 53 q 206 59 205 56 q 216 67 208 62 q 237 79 224 73 q 258 91 249 85 q 271 100 268 97 q 283 113 273 104 q 309 133 294 123 q 337 157 322 144 q 360 180 351 170 q 379 201 368 189 q 399 222 390 213 q 412 238 408 231 q 416 248 416 245 l 416 251 q 417 255 416 253 q 420 261 418 258 q 426 268 423 264 q 429 276 428 272 q 434 283 431 280 q 439 288 437 286 q 447 292 444 288 q 454 303 450 295 q 465 328 458 312 q 473 345 469 337 q 482 357 478 353 q 492 382 492 367 q 498 397 493 397 q 509 437 507 397 q 510 449 509 444 q 513 454 511 454 q 516 459 515 454 q 516 467 516 465 q 515 481 516 473 q 509 505 513 493 q 497 528 504 522 q 478 536 491 534 q 468 538 473 536 q 458 543 463 541 q 449 545 454 545 q 439 546 443 546 l 434 546 q 427 545 430 545 l 423 545 q 419 548 419 546 q 416 550 419 550 q 411 550 413 550 q 404 549 408 550 q 394 546 398 548 l 388 546 q 377 549 383 547 q 365 551 370 551 q 356 549 360 551 q 345 546 351 546 q 335 547 340 546 q 327 549 330 549 q 322 550 323 550 q 321 549 321 550 q 314 547 319 548 q 300 545 308 546 q 263 537 284 543 q 232 526 242 532 q 224 523 229 524 q 216 522 220 522 q 201 518 212 522 q 176 507 189 513 q 142 494 151 494 q 133 494 134 494 q 97 504 118 494 q 85 510 88 508 q 83 515 83 513 q 83 518 83 517 l 84 522 l 83 524 q 81 528 83 527 q 78 533 79 530 q 77 540 77 536 q 81 558 77 547 q 92 579 86 570 q 101 589 98 589 q 105 599 105 590 l 105 608 q 106 614 105 612 q 109 616 106 616 q 112 616 111 616 l 113 616 q 117 618 116 616 q 119 628 119 621 q 127 644 119 642 q 134 649 130 644 q 140 659 138 653 q 151 684 146 677 q 159 691 155 691 q 172 706 163 691 q 199 758 181 721 q 210 778 204 768 q 220 792 216 788 q 227 801 223 795 q 233 810 231 806 q 237 815 235 813 q 239 817 239 817 l 240 817 q 243 815 241 815 q 246 817 245 815 q 252 824 250 819 q 254 836 254 829 q 264 852 254 849 q 272 857 269 854 q 275 860 275 859 q 280 877 277 870 q 293 890 284 883 q 304 899 299 895 q 310 903 309 902 q 311 906 311 903 q 311 915 311 909 l 311 919 q 317 932 311 928 q 321 936 321 935 q 315 939 321 937 q 306 943 306 941 q 307 945 306 944 q 335 951 311 947 q 410 962 360 956 q 557 972 494 971 q 640 974 621 974 q 747 968 712 974 q 770 962 763 964 q 779 958 778 960 q 781 954 781 956 q 779 949 781 952 l 779 947 q 786 939 779 941 l 795 936 l 785 926 q 726 907 766 907 q 713 908 720 907 q 699 909 705 909 l 692 909 q 683 907 684 908 q 681 905 682 905 q 678 905 680 905 l 677 905 q 663 907 673 906 q 638 909 652 909 q 615 909 625 909 q 604 907 605 909 q 597 905 602 906 q 584 905 591 905 q 577 905 581 905 q 571 905 574 905 q 565 902 566 904 q 562 901 564 901 l 561 901 q 555 903 558 901 q 545 906 550 906 q 528 903 538 906 q 501 898 519 900 q 460 896 482 897 q 424 895 439 896 q 408 892 409 894 q 401 890 406 891 q 390 890 396 890 q 376 886 382 890 q 363 872 370 883 q 345 840 356 861 q 338 830 342 836 q 330 819 334 824 q 325 810 327 814 q 322 804 322 806 q 316 795 322 803 q 302 777 311 787 q 287 755 294 766 q 275 738 279 745 q 267 724 271 732 q 259 712 262 717 q 242 688 255 707 q 214 645 229 669 q 186 604 198 621 q 173 586 175 587 q 171 584 172 586 q 170 578 170 581 q 170 575 170 576 q 174 574 171 574 q 183 576 176 574 q 201 582 189 578 q 231 592 212 586 q 263 602 248 598 q 281 607 277 606 q 293 609 286 607 q 309 614 301 611 q 329 619 317 616 q 351 621 341 621 q 370 623 361 622 q 382 625 378 624 q 387 626 384 626 l 390 626 q 399 622 395 625 q 408 617 406 617 q 411 617 410 617 q 418 620 414 617 q 426 623 423 623 l 427 623 q 435 616 430 622 q 447 607 438 612 q 465 598 456 602 q 500 581 486 591 q 518 564 515 572 q 524 555 519 561 q 535 542 529 549 q 546 530 542 536 q 550 524 550 525 q 554 513 550 522 q 563 492 557 505 q 573 470 571 476 q 574 459 574 463 q 573 452 574 455 q 571 440 572 446 q 571 431 571 435 l 571 420 q 556 352 571 393 q 514 262 541 307 q 505 247 510 255 q 498 235 500 239 q 476 198 488 216 q 458 177 464 181 q 451 169 454 174 q 446 159 448 164 q 428 138 444 146 q 416 133 421 134 q 410 132 412 132 l 408 132 q 406 128 408 132 q 402 117 404 124 q 398 105 400 110 q 394 100 395 100 q 387 95 393 100 q 374 83 381 90 q 338 54 358 69 q 301 26 317 38 q 280 15 284 15 q 277 14 278 15 q 275 12 275 13 q 272 7 275 10 q 264 2 269 5 q 253 -4 258 -1 q 244 -12 248 -8 q 235 -17 240 -14 q 226 -19 230 -19 q 211 -22 219 -19 q 198 -29 203 -25 q 193 -35 193 -33 l 193 -36 l 194 -37 l 193 -39 q 190 -41 193 -40 q 161 -46 176 -42 q 138 -54 146 -50 q 91 -73 123 -63 q 39 -85 59 -83 q 16 -86 29 -85 q -8 -89 2 -87 l -26 -89 q -38 -86 -35 -88 m 540 485 q 538 486 539 486 q 538 480 538 486 q 539 474 538 474 l 540 475 q 541 480 541 477 q 540 485 541 483 m 451 535 q 450 537 450 536 l 450 538 q 452 539 451 539 q 456 538 454 539 q 457 535 457 536 q 456 532 457 533 q 455 530 456 530 q 453 532 454 530 q 451 535 452 533 z "},"6":{"ha":772,"x_min":0,"x_max":739,"o":"m 735 509 q 739 488 739 500 q 737 471 739 480 q 730 440 736 459 q 719 402 725 421 q 708 375 713 384 q 703 363 707 372 q 695 345 699 355 q 687 326 691 335 q 680 314 682 317 q 676 308 677 311 q 675 305 675 307 q 676 302 675 304 q 677 300 677 302 q 675 295 677 298 q 671 288 674 292 q 664 279 667 284 q 659 270 661 274 q 656 263 659 266 q 650 260 653 260 q 647 258 648 260 l 647 253 q 632 222 647 246 q 594 168 616 197 q 553 118 572 138 q 543 106 547 112 q 539 100 539 101 q 535 95 539 98 q 524 86 530 91 q 512 77 518 82 q 505 67 507 71 q 499 60 503 63 q 494 58 496 58 q 484 52 492 58 q 464 37 475 45 q 406 -7 434 12 q 375 -27 378 -27 q 369 -30 373 -27 q 361 -38 365 -33 q 350 -47 356 -43 q 338 -55 344 -52 q 322 -63 332 -58 q 302 -76 312 -69 q 275 -91 292 -82 q 244 -108 259 -100 q 212 -122 222 -119 q 198 -124 205 -124 q 191 -123 194 -124 q 182 -123 186 -123 q 165 -127 171 -123 q 154 -132 158 -132 q 143 -127 151 -132 q 135 -123 139 -124 q 130 -122 132 -122 l 127 -122 q 117 -118 124 -122 q 100 -107 109 -114 q 83 -94 90 -100 q 77 -87 77 -89 l 77 -86 q 76 -82 77 -84 q 71 -79 74 -80 q 62 -74 68 -78 q 51 -64 56 -70 q 39 -56 46 -60 q 26 -50 32 -52 q 16 -45 18 -49 q 16 -40 16 -43 q 16 -31 16 -37 q 17 -22 17 -26 q 15 -7 17 -15 q 5 7 12 1 q 1 15 2 9 q 0 22 0 18 q 0 28 0 24 q 3 35 0 32 q 5 41 5 37 l 6 45 l 5 48 l 5 52 q 6 58 5 54 q 9 66 6 62 q 12 76 12 73 q 8 83 12 79 q 4 93 4 87 l 4 95 q 7 109 4 100 q 11 125 9 117 q 12 138 12 133 l 12 140 q 16 158 12 145 q 29 187 21 170 q 43 215 37 203 q 49 229 49 227 q 51 233 49 230 q 55 239 52 236 q 64 252 58 242 q 77 275 70 262 q 89 298 83 288 q 97 311 95 308 q 102 320 99 314 q 109 332 106 326 q 117 346 112 339 q 127 355 122 352 q 135 363 134 359 q 136 369 136 366 q 136 374 136 372 q 135 379 135 376 q 142 404 135 389 q 163 434 149 418 q 173 448 169 440 q 177 463 176 455 q 181 476 178 469 q 188 488 184 484 q 198 503 191 493 q 210 522 204 512 q 221 538 216 532 q 231 547 227 545 q 237 551 234 547 q 240 559 239 555 q 247 573 241 564 q 260 590 252 582 q 295 630 283 616 q 318 657 307 644 q 334 675 325 665 q 349 692 342 686 q 361 706 356 699 q 368 717 366 713 q 373 724 369 720 q 381 732 376 728 q 404 752 388 736 q 456 807 420 768 q 525 879 490 844 q 574 927 559 913 q 594 942 587 939 q 603 944 598 944 q 609 943 606 944 q 615 943 612 943 q 628 947 624 943 q 639 953 633 953 q 644 952 640 953 q 651 943 648 951 q 654 935 652 938 q 658 932 656 932 q 660 927 659 932 q 661 916 661 922 q 659 900 661 905 q 650 891 657 895 q 636 880 646 888 q 618 863 627 872 q 602 850 609 855 q 594 846 595 846 l 593 846 q 592 846 593 846 q 591 845 591 846 q 593 841 591 844 q 593 837 593 838 q 592 835 593 835 q 589 836 591 835 q 585 836 587 836 q 575 832 581 836 q 567 820 570 829 q 562 812 566 816 q 553 806 558 808 q 544 798 549 804 q 536 786 539 792 q 529 774 534 779 q 522 768 525 770 q 517 766 518 768 q 515 764 515 765 l 515 763 q 516 760 516 762 q 514 755 516 759 q 508 749 512 752 q 498 745 503 745 q 493 742 495 744 q 490 736 490 739 q 484 726 490 733 q 471 710 479 718 q 456 695 463 701 q 448 690 450 690 l 447 690 q 437 684 444 690 q 423 668 429 677 q 416 656 416 660 q 412 648 416 654 q 401 637 408 643 q 392 626 395 631 q 389 620 389 622 l 389 618 q 389 617 389 617 q 386 618 388 617 l 385 618 q 380 616 382 618 q 375 610 377 614 q 365 595 373 606 q 347 573 357 585 q 329 550 337 561 q 317 534 320 540 q 315 527 315 530 q 315 526 315 526 q 324 524 317 524 l 330 524 q 357 532 345 525 q 370 545 370 538 q 371 550 370 549 q 376 552 372 552 q 389 553 380 553 q 408 560 395 554 q 436 574 421 566 q 466 588 451 582 q 488 596 480 595 q 500 600 495 597 q 505 603 505 602 q 508 605 505 604 l 510 605 q 515 604 513 605 q 521 604 519 604 q 524 604 522 604 q 526 606 526 604 q 532 612 526 610 q 542 613 536 613 q 548 613 543 613 q 558 609 553 612 q 567 605 563 606 q 570 604 569 604 q 573 605 572 604 q 576 605 574 606 q 577 604 577 605 q 582 599 577 602 q 594 595 587 597 q 607 591 601 593 l 610 591 q 615 592 614 591 q 618 593 616 593 q 662 581 627 593 q 687 563 671 577 q 716 534 703 549 q 735 509 730 518 m 660 517 q 666 515 663 515 q 668 515 667 515 q 669 519 669 517 q 669 524 669 522 q 659 530 665 530 q 654 530 659 530 q 647 520 650 529 q 644 512 646 513 l 643 512 q 636 515 641 512 q 630 520 633 517 q 627 526 627 523 q 622 533 627 530 q 610 538 616 537 l 608 538 q 604 536 604 538 q 600 532 602 532 q 594 534 597 532 q 583 537 588 537 q 567 528 574 537 q 560 523 564 524 l 559 523 q 551 525 555 523 q 529 533 538 532 l 526 533 q 510 530 519 533 q 495 526 503 528 q 479 522 486 523 q 466 515 473 519 q 452 507 458 511 q 441 500 446 503 q 436 497 437 497 q 427 492 435 497 q 409 481 419 488 q 390 469 398 475 q 378 461 381 463 q 351 443 361 450 q 333 426 342 435 q 323 416 328 420 q 317 412 319 412 q 313 412 315 412 q 307 407 307 412 q 302 399 307 405 q 292 387 298 393 q 281 377 286 381 q 275 373 276 373 q 271 374 273 374 q 266 372 269 374 q 258 359 263 370 q 248 347 253 349 q 241 344 245 344 q 238 345 240 344 q 236 342 237 345 q 235 337 235 340 q 229 327 235 334 q 216 311 224 319 q 198 294 207 304 q 185 276 190 283 q 172 256 178 264 q 159 239 167 249 q 152 230 156 237 q 144 216 148 223 q 133 193 138 203 q 117 164 127 183 q 111 149 113 156 q 108 138 108 141 q 105 125 108 134 q 98 107 102 117 q 91 86 94 98 q 87 68 87 75 q 85 56 87 61 q 82 49 84 50 q 81 45 81 48 q 81 39 81 43 q 83 26 81 35 q 85 9 85 16 q 86 -2 86 1 q 85 -9 85 -5 q 89 -23 85 -17 q 103 -37 92 -30 q 117 -44 111 -42 q 125 -46 122 -46 l 127 -46 q 133 -47 130 -46 q 140 -53 136 -49 q 150 -60 144 -58 l 153 -60 q 167 -57 157 -60 q 197 -47 177 -55 q 220 -38 208 -43 q 239 -31 232 -33 q 253 -24 245 -28 q 267 -16 261 -20 q 277 -9 273 -12 q 283 -6 282 -6 q 290 -3 284 -6 q 304 6 296 1 q 323 19 311 11 q 347 35 336 27 q 382 59 363 45 q 416 85 402 73 q 433 100 431 97 q 436 103 433 102 q 441 104 438 104 q 452 115 449 104 q 464 134 453 121 q 488 163 474 147 q 512 189 503 178 q 522 202 522 201 q 524 204 522 203 q 528 205 526 205 q 533 208 531 205 q 534 214 534 210 q 537 222 534 217 q 543 230 540 227 q 552 241 546 233 q 565 260 558 250 q 576 278 572 270 q 581 288 581 286 q 585 295 581 289 q 595 310 589 301 q 618 348 609 330 q 627 373 627 366 q 630 381 627 376 q 636 388 633 385 q 642 396 640 391 q 644 406 644 401 q 646 414 644 410 q 649 419 647 418 q 652 424 651 420 l 652 427 q 651 432 652 429 l 651 436 q 651 440 651 438 q 652 442 651 442 q 658 448 654 442 q 664 463 661 454 q 668 479 667 472 l 668 482 q 666 493 668 486 q 661 506 665 499 q 656 518 656 516 q 657 519 656 519 q 660 517 658 519 z "},"7":{"ha":621,"x_min":0,"x_max":741,"o":"m 14 -64 q 12 -56 12 -60 q 11 -50 11 -52 l 11 -48 q 10 -45 11 -46 q 7 -44 9 -44 q 5 -41 5 -44 q 9 -28 5 -37 q 14 -15 12 -22 q 16 -2 16 -7 q 18 8 16 3 q 24 17 20 14 q 31 26 27 20 q 37 37 35 32 q 41 50 39 43 q 45 60 44 56 q 49 69 47 63 q 51 79 50 75 q 55 91 52 85 q 61 101 58 97 q 68 110 65 105 q 71 119 71 115 q 73 130 71 123 q 79 144 75 137 q 87 162 83 151 q 94 182 92 173 q 101 199 97 191 q 109 211 105 208 q 115 219 113 214 q 117 227 117 223 q 120 235 117 229 q 130 247 124 241 q 145 277 142 259 q 159 307 148 295 q 167 317 165 313 q 170 323 170 321 l 170 326 q 172 332 170 328 q 182 344 176 338 q 197 362 197 357 q 195 365 197 364 q 172 368 191 368 q 148 367 161 368 q 112 366 127 366 q 94 366 96 366 q 88 366 92 366 q 80 368 84 367 q 75 369 77 369 q 71 366 71 369 q 66 362 71 363 q 59 362 62 362 q 48 363 54 362 q 31 368 39 365 q 20 374 25 372 q 12 378 14 377 q 7 384 9 380 q 5 392 5 387 q 4 400 5 396 q 3 406 3 404 q 0 414 0 410 q 26 427 0 423 q 45 431 37 429 q 57 435 54 433 q 67 437 60 437 q 83 438 75 438 q 109 437 98 437 l 117 437 q 146 439 129 437 q 173 441 163 441 q 190 442 183 442 l 193 442 q 209 444 198 442 q 241 447 224 445 q 248 450 245 448 q 252 456 251 453 q 255 466 252 460 q 261 475 258 471 q 267 485 264 479 q 269 493 269 490 q 273 499 269 496 q 281 505 276 503 q 291 511 288 507 q 296 524 294 515 q 301 540 297 531 q 310 555 305 549 q 318 568 315 562 q 321 576 321 574 l 321 577 q 323 581 321 579 q 330 587 326 584 q 338 592 335 589 q 341 599 341 595 q 343 605 341 602 q 349 608 345 608 q 364 626 353 610 q 387 659 376 641 q 403 685 399 676 q 407 693 404 689 q 414 702 410 698 q 420 711 417 705 q 424 722 423 717 q 428 732 425 727 q 433 739 431 736 q 440 746 437 741 q 446 756 444 751 q 452 765 448 761 q 458 770 455 769 q 465 774 462 771 q 470 780 468 777 q 490 814 483 804 q 503 829 496 825 q 509 834 507 831 q 512 840 512 838 q 513 842 512 841 q 514 842 513 842 l 516 842 q 521 844 518 842 q 528 852 525 848 q 531 861 531 857 q 536 871 531 865 q 547 884 541 878 q 556 890 553 890 q 560 893 557 890 q 564 902 562 897 q 567 911 567 908 q 566 913 567 913 q 555 918 564 916 q 532 920 549 919 q 497 921 516 921 q 464 923 478 922 q 448 925 450 924 q 442 926 445 926 q 437 924 439 926 q 416 919 432 921 q 387 918 399 918 q 369 918 374 918 q 343 919 355 918 q 323 921 331 921 q 313 919 316 921 q 300 916 310 917 q 279 915 291 915 l 270 915 q 180 909 229 915 q 152 907 170 908 q 117 905 134 905 q 88 902 100 903 q 74 900 76 901 l 73 900 q 67 901 71 900 q 56 905 62 903 q 45 911 50 908 q 41 916 41 914 q 39 919 41 918 q 35 920 37 920 q 30 921 33 920 q 24 926 26 923 q 22 930 22 928 q 22 932 22 932 q 31 943 24 937 q 38 952 38 949 q 35 954 38 954 q 31 955 33 954 q 28 957 28 956 q 42 962 28 959 q 76 967 56 964 q 119 972 97 970 q 149 975 130 973 q 184 979 168 977 q 289 986 241 984 q 422 988 337 988 q 557 986 506 988 q 650 981 608 985 q 701 976 682 978 q 729 972 720 974 q 739 967 737 970 q 741 961 741 964 q 740 957 741 959 q 739 949 739 953 q 739 944 739 945 q 735 942 739 943 q 727 941 732 941 q 718 937 718 941 l 718 935 q 719 934 719 935 q 693 924 719 928 q 671 918 678 921 q 661 909 664 914 q 657 902 659 905 q 654 899 655 899 q 649 892 652 897 q 642 881 646 888 q 633 867 638 875 q 623 855 627 860 q 614 844 619 850 q 605 833 609 838 q 596 821 602 827 q 586 808 591 814 q 575 795 581 803 q 564 783 569 788 q 554 769 559 777 q 546 755 549 762 q 539 745 543 749 q 533 739 536 741 q 529 735 530 738 q 527 731 527 733 q 523 722 527 728 q 513 709 519 716 q 499 692 507 703 q 485 672 491 682 q 472 654 479 663 q 463 641 466 645 q 453 626 459 636 q 439 607 446 616 q 427 589 433 597 q 419 579 422 581 q 411 568 417 577 q 396 545 404 558 q 380 522 388 533 q 367 508 372 511 q 358 497 363 505 q 349 482 353 490 q 341 467 346 475 q 333 455 337 460 q 327 443 327 447 q 334 439 327 439 q 340 439 336 439 q 347 440 343 440 q 363 433 355 440 l 375 425 l 379 435 q 390 446 382 446 q 402 440 395 446 q 412 435 407 437 q 421 434 418 434 l 425 434 q 430 437 430 434 q 435 440 430 439 q 446 441 439 441 q 458 439 453 441 q 465 435 464 438 q 489 429 467 429 q 508 425 508 429 q 507 422 507 424 l 507 422 q 510 420 508 420 q 515 418 515 420 q 513 414 515 416 q 500 399 511 407 q 456 384 486 388 q 401 379 426 379 q 375 380 388 379 l 372 380 q 355 374 359 380 q 349 370 351 370 q 347 373 347 370 q 344 377 346 376 q 340 378 342 378 q 338 377 338 378 l 338 376 q 339 374 338 375 q 340 371 340 372 q 337 372 339 371 q 328 375 334 374 q 313 377 321 376 q 305 378 309 378 q 296 376 299 378 q 282 368 290 374 q 273 357 277 362 q 269 350 269 352 q 264 338 269 347 q 251 319 259 330 q 197 229 215 272 q 189 212 193 219 q 184 205 186 205 q 182 202 183 205 q 179 194 180 199 q 175 182 178 189 q 168 172 172 176 q 162 165 164 168 q 161 160 161 162 l 161 159 q 161 157 161 159 q 161 154 161 156 q 156 146 159 150 q 148 132 153 141 q 138 115 142 123 q 126 89 134 105 q 111 55 119 72 q 97 27 103 39 q 90 11 91 14 q 86 4 89 8 q 82 -4 84 0 q 74 -18 79 -8 q 62 -39 68 -28 q 51 -58 55 -54 q 45 -62 47 -62 q 43 -62 44 -62 q 40 -60 41 -60 q 33 -65 37 -60 q 23 -73 28 -73 l 22 -73 q 14 -64 16 -73 m 58 -40 q 56 -38 58 -38 q 54 -38 55 -38 q 52 -39 54 -38 q 47 -41 49 -39 q 45 -43 45 -42 q 47 -44 45 -43 q 52 -44 49 -44 q 56 -43 54 -44 q 58 -40 58 -41 z "},"8":{"ha":739,"x_min":0,"x_max":841,"o":"m 833 978 q 841 956 840 962 l 841 954 q 838 941 841 947 q 831 928 836 935 q 823 917 827 922 q 754 822 804 898 q 732 790 741 804 q 721 774 723 776 q 708 756 718 770 q 689 727 699 743 q 673 702 679 711 q 660 681 668 694 q 643 655 651 668 q 628 631 635 643 q 618 615 621 620 q 614 607 616 610 q 610 602 612 604 q 603 593 608 601 q 591 575 597 585 q 581 557 585 566 q 576 548 576 549 q 574 544 576 547 q 568 537 571 541 q 562 530 564 534 q 559 524 559 526 q 555 514 559 522 q 543 498 550 507 q 530 479 536 489 q 522 462 524 469 q 517 451 519 455 q 513 446 514 446 q 509 442 511 446 q 504 433 507 438 q 498 422 502 427 q 493 415 495 417 q 489 411 490 414 q 488 406 488 408 q 483 396 488 404 q 473 381 479 389 q 461 362 467 372 q 454 344 456 352 q 450 331 452 336 q 445 323 447 325 q 441 317 441 321 q 444 309 441 314 q 460 297 447 303 q 475 288 467 294 q 487 275 483 281 q 499 262 492 269 q 513 250 507 255 q 538 216 529 237 q 544 199 543 206 q 545 183 545 192 q 543 161 545 175 q 538 136 541 146 q 534 122 536 125 q 530 116 532 120 q 528 106 528 111 q 520 91 527 102 q 504 65 513 79 q 486 42 494 52 q 475 32 477 32 q 466 25 474 32 q 449 9 458 19 q 430 -8 439 0 q 418 -19 421 -16 q 380 -42 388 -42 q 377 -41 378 -42 q 374 -41 375 -41 q 375 -43 374 -41 l 375 -45 q 371 -52 375 -47 q 360 -61 367 -56 q 349 -65 353 -65 q 339 -68 346 -65 q 326 -77 333 -72 q 291 -89 309 -87 q 276 -91 283 -90 q 267 -93 269 -92 q 255 -95 264 -94 q 233 -97 245 -96 q 211 -99 221 -98 q 197 -101 201 -100 l 195 -101 q 177 -93 188 -101 q 161 -83 170 -85 q 134 -80 153 -81 q 120 -75 127 -79 q 109 -64 113 -70 q 104 -55 104 -58 l 104 -54 q 105 -52 105 -52 q 98 -48 105 -48 q 86 -42 94 -48 q 72 -30 78 -37 q 65 -18 65 -22 q 61 -14 65 -16 q 50 -8 56 -11 q 28 18 28 2 q 29 24 28 20 q 30 28 30 26 q 25 35 30 33 q 20 38 22 36 q 18 43 18 40 q 16 49 18 45 q 10 58 14 54 q 1 85 3 69 q 0 95 0 91 q 3 111 0 105 q 7 124 7 116 q 5 138 7 130 q 4 151 4 145 q 7 170 4 161 q 13 181 10 175 q 16 193 15 188 q 21 204 17 197 q 29 216 24 210 q 37 227 33 221 q 42 238 41 233 q 46 246 43 242 q 53 252 50 250 q 60 262 60 256 q 59 264 60 263 l 59 267 q 65 282 59 272 q 92 314 72 292 q 109 327 101 324 q 112 328 111 328 q 115 323 115 328 q 117 321 115 321 l 117 321 q 119 321 119 321 q 122 325 121 323 q 121 330 122 327 l 121 330 q 127 340 121 333 q 143 356 132 347 q 161 374 156 367 q 165 382 165 379 l 165 385 q 164 390 164 387 q 168 399 164 395 q 179 404 172 404 q 185 406 182 404 q 191 410 189 408 q 193 413 193 411 q 189 422 193 416 q 168 445 184 428 q 149 467 157 457 q 141 478 141 476 q 138 484 141 480 q 130 490 135 487 q 120 510 120 496 q 117 523 120 515 q 111 534 115 530 q 106 544 108 540 q 105 547 105 547 q 106 549 105 549 q 107 557 106 550 q 108 573 108 564 l 108 584 q 109 590 108 587 q 114 600 109 593 q 130 618 119 606 q 160 651 140 630 q 177 669 168 659 q 200 691 189 682 q 214 700 210 700 q 220 703 217 700 q 225 710 224 705 q 231 718 227 714 q 239 723 235 722 q 251 730 243 725 q 267 741 259 734 q 282 751 275 747 q 291 755 289 755 q 296 758 293 755 q 302 764 300 760 q 312 773 306 769 q 323 780 317 778 q 336 787 330 783 q 346 795 342 791 q 354 803 350 800 q 361 806 359 806 q 368 808 365 806 q 373 814 372 810 q 390 822 378 822 q 403 826 396 822 q 415 833 410 829 q 418 839 418 837 q 417 841 418 840 q 416 842 416 841 l 418 842 q 423 844 419 844 q 430 844 427 844 q 433 846 433 845 q 440 853 435 849 q 453 862 446 858 q 467 869 460 867 q 473 871 471 871 l 474 871 q 479 870 477 870 q 483 870 481 870 q 488 873 486 871 q 490 876 490 875 q 489 878 490 878 q 488 880 488 879 q 491 881 488 881 q 496 880 492 881 q 500 880 498 880 q 515 888 507 880 q 524 895 519 892 q 530 898 528 898 l 533 898 q 537 898 534 898 q 546 901 539 899 q 565 909 552 903 q 600 924 578 914 q 753 984 667 953 q 774 991 764 987 q 792 998 785 996 q 810 1003 803 1003 q 820 1000 814 1003 q 833 978 825 998 m 443 254 q 425 262 431 262 q 416 252 418 262 q 397 235 414 235 l 395 235 q 386 229 386 234 q 383 219 386 226 q 376 206 380 213 q 368 194 371 199 q 365 186 365 188 q 363 182 365 184 q 359 178 361 180 q 354 174 357 178 q 350 164 351 170 q 338 144 345 144 q 332 146 335 144 q 327 149 330 149 q 321 146 324 149 q 316 144 319 144 q 312 145 315 144 q 300 155 309 146 l 287 168 l 296 174 q 302 182 301 178 q 303 189 303 185 q 302 197 303 192 l 302 200 q 307 227 302 211 q 319 248 312 242 q 322 255 321 249 q 324 269 323 261 q 327 286 325 277 q 332 298 330 294 q 336 307 335 303 q 337 311 337 309 q 336 313 337 313 q 324 321 334 315 q 299 334 313 327 q 276 346 284 342 q 263 349 268 349 q 254 347 258 349 q 242 340 250 345 q 225 332 233 336 q 207 322 216 329 q 190 309 197 315 q 177 298 183 302 q 168 294 170 294 q 164 292 165 294 q 162 288 162 290 q 156 274 162 282 q 144 261 151 267 q 134 255 138 255 q 132 256 132 256 q 129 252 129 256 q 130 248 129 251 q 131 243 131 245 q 129 237 131 241 q 120 227 127 234 q 111 216 114 222 q 107 206 107 210 q 105 196 107 202 q 101 184 104 190 q 87 152 91 166 q 83 115 83 137 l 83 99 q 84 77 83 91 q 87 52 85 64 q 91 30 89 38 q 98 16 93 22 q 114 0 104 10 q 135 -17 127 -13 q 146 -20 140 -20 l 149 -20 q 154 -19 151 -19 q 173 -26 163 -19 q 201 -35 182 -33 q 220 -36 210 -36 q 246 -35 231 -36 q 274 -27 261 -33 q 287 -21 281 -24 q 294 -19 292 -19 q 299 -16 296 -19 q 307 -10 302 -14 q 317 -3 311 -7 q 330 2 323 1 q 399 55 352 7 q 441 102 441 97 q 444 110 441 104 q 452 122 448 115 q 461 135 457 130 q 467 142 466 140 q 470 149 469 143 q 473 161 472 154 q 477 174 475 168 q 482 183 479 180 q 486 189 486 185 q 482 199 486 193 q 476 211 479 205 q 471 222 473 218 q 460 240 466 233 q 443 254 454 247 m 675 869 q 680 874 678 871 q 682 880 682 878 q 677 886 682 885 l 675 886 q 667 882 671 886 q 652 874 665 880 q 623 860 640 868 q 560 831 591 846 q 508 806 529 817 q 485 792 487 795 q 481 790 484 791 q 475 789 478 789 q 465 785 471 789 q 453 777 459 782 q 437 765 447 772 q 417 753 427 758 q 368 722 388 736 q 344 700 348 707 q 338 694 342 696 q 332 691 335 691 q 325 689 329 691 q 317 683 320 686 q 310 677 314 680 q 304 674 307 674 q 299 673 301 674 q 297 671 297 672 q 293 666 297 669 q 282 659 289 663 q 272 653 276 656 q 268 648 268 650 q 266 646 268 647 q 262 645 264 645 q 257 643 259 645 q 253 637 254 640 q 245 625 252 633 q 229 606 238 616 q 212 587 220 597 q 201 571 204 576 q 195 558 199 566 q 186 544 191 550 q 181 532 182 536 q 180 530 180 531 q 182 526 180 527 q 186 519 184 523 q 187 512 187 515 q 200 493 187 507 q 228 467 213 479 q 247 454 242 454 q 255 452 250 454 q 263 446 260 450 q 273 439 268 439 l 275 439 q 290 441 280 439 q 304 443 298 443 q 318 431 318 443 q 320 427 318 429 q 326 423 323 425 q 336 417 330 422 q 348 406 342 412 l 362 391 l 351 387 q 340 378 340 382 q 351 369 340 376 q 365 363 361 363 q 368 363 366 363 q 376 375 370 363 q 398 400 387 397 q 403 405 401 401 q 406 412 405 408 q 410 423 406 416 q 420 436 414 430 q 429 448 425 442 q 433 457 433 454 q 434 461 433 459 q 436 463 435 463 q 440 467 438 463 q 443 477 441 471 q 454 494 446 492 q 462 507 462 496 q 464 515 462 511 q 469 522 466 520 q 473 527 471 524 q 475 532 475 530 q 478 539 475 533 q 487 551 482 545 q 499 570 492 558 q 509 592 505 581 q 520 615 513 603 q 532 636 526 628 q 545 657 537 645 q 561 682 553 670 q 574 701 568 693 q 583 708 580 708 q 586 711 584 708 q 587 718 587 713 q 596 739 588 724 q 615 769 605 753 q 634 791 626 784 q 641 799 638 795 q 644 806 644 803 q 647 813 644 808 q 654 824 650 819 q 662 837 658 829 q 667 850 665 845 q 671 862 668 857 q 675 869 673 867 z "},"9":{"ha":768,"x_min":0,"x_max":857,"o":"m 846 874 q 857 850 857 863 q 853 835 857 843 q 842 810 846 819 q 836 797 838 801 q 828 782 834 794 q 814 755 822 770 q 793 716 806 739 q 768 673 780 693 q 721 595 734 617 q 711 574 711 577 l 711 574 l 711 573 q 711 571 711 572 q 708 567 710 569 q 693 547 701 559 q 680 524 686 534 q 675 511 675 514 q 673 503 675 507 q 669 494 671 498 q 662 482 667 491 q 654 462 658 473 q 646 445 650 452 q 641 437 642 437 q 636 431 640 437 q 629 417 633 425 q 623 401 625 409 q 620 390 620 393 q 616 378 620 384 q 601 361 612 372 q 596 355 597 358 q 595 352 595 353 q 595 351 595 351 q 596 348 596 350 q 594 341 596 346 q 588 330 592 336 q 581 323 584 323 q 578 322 580 323 q 577 317 577 320 q 568 293 577 313 q 543 246 558 273 q 513 199 532 227 q 477 148 494 171 q 459 125 461 125 q 456 122 458 125 q 454 117 454 120 q 450 111 452 113 q 447 109 449 109 l 446 109 q 441 107 444 109 q 436 100 438 104 q 432 94 434 96 q 428 91 429 91 q 420 85 425 91 q 411 73 415 80 q 408 65 408 68 l 408 64 q 407 62 408 62 q 405 63 406 62 l 404 63 q 391 55 402 63 q 366 33 380 47 q 301 -18 309 -18 q 300 -18 300 -18 q 296 -16 298 -16 q 292 -18 295 -16 q 286 -22 289 -19 q 283 -26 283 -24 l 283 -27 q 284 -29 284 -28 q 281 -34 284 -31 q 265 -42 278 -37 q 227 -59 252 -48 q 183 -75 198 -71 q 159 -78 170 -78 l 155 -78 q 138 -79 146 -78 q 127 -81 130 -80 q 123 -83 126 -83 q 108 -77 117 -83 q 97 -70 102 -73 q 92 -64 93 -66 q 87 -60 90 -60 q 81 -63 84 -60 q 79 -72 79 -66 q 77 -79 79 -76 q 74 -82 76 -82 q 60 -77 69 -82 q 45 -66 52 -72 q 39 -58 39 -61 l 39 -56 q 37 -51 39 -54 q 31 -44 35 -47 q 22 -36 27 -41 q 13 -28 16 -32 q 1 -9 3 -20 q 0 -4 0 -7 q 5 9 0 3 q 20 14 12 14 q 32 13 24 14 q 52 1 41 11 q 64 -9 59 -8 l 67 -9 q 79 -6 72 -9 q 85 -5 82 -5 q 89 -5 86 -5 q 96 -10 91 -5 q 105 -15 101 -14 q 112 -16 108 -16 q 119 -15 114 -16 q 137 -13 123 -15 q 160 -7 151 -10 q 172 -2 170 -4 q 176 1 173 1 l 179 2 l 182 1 q 187 1 184 1 q 197 2 191 1 q 210 8 203 4 q 222 18 218 13 q 225 22 225 20 q 224 25 225 24 l 223 26 q 225 27 223 26 q 230 28 227 28 q 237 29 234 28 q 239 32 239 30 q 246 38 239 34 q 260 45 252 42 q 273 49 269 49 q 280 52 276 49 q 288 60 284 55 q 294 67 290 64 q 299 70 297 70 q 328 92 305 70 q 372 139 350 113 q 404 181 395 165 q 412 193 407 186 q 422 203 417 199 q 430 213 427 208 q 433 222 433 218 q 437 232 433 225 q 448 246 441 239 q 461 264 454 254 q 473 285 468 275 q 485 307 478 294 q 498 327 492 319 q 510 347 505 336 q 518 368 515 359 q 524 385 520 377 q 531 395 528 393 q 541 412 540 404 q 542 416 542 414 q 537 424 542 421 q 534 425 535 425 q 525 420 528 425 q 514 410 521 414 q 501 403 507 406 q 495 401 498 401 q 492 402 494 401 q 490 404 490 404 l 490 403 q 490 401 490 402 l 490 399 q 489 395 490 397 q 484 389 488 392 q 436 363 446 363 l 435 363 q 429 362 431 363 q 427 359 427 361 q 424 351 427 354 q 413 348 421 349 q 406 346 409 347 q 401 342 402 344 q 391 336 398 339 q 378 331 385 332 q 376 329 378 331 q 372 325 374 327 q 365 320 370 322 q 355 318 360 318 q 344 316 349 317 q 336 313 338 315 q 298 300 326 305 q 262 297 279 297 q 249 298 256 297 q 228 299 237 299 q 214 298 218 299 q 212 297 214 297 q 199 302 208 297 q 168 325 190 308 q 116 381 130 354 q 99 461 102 408 l 99 465 q 100 477 99 470 q 104 491 102 484 q 109 497 106 497 q 111 501 110 497 q 113 510 113 505 q 122 540 113 521 q 143 569 132 559 q 148 576 146 572 q 151 583 151 580 q 154 591 151 585 q 163 602 158 597 q 172 613 169 608 q 176 620 176 618 q 191 646 176 624 q 227 692 207 667 q 262 734 247 717 q 330 801 298 771 q 378 839 363 830 q 387 844 383 841 q 393 850 391 848 q 397 853 394 852 l 400 854 l 404 853 l 406 853 q 420 862 413 853 q 428 870 424 867 q 435 873 432 873 q 441 874 437 873 q 448 879 445 876 q 464 888 452 882 q 488 901 475 894 q 509 913 500 907 q 515 920 515 918 l 515 921 q 517 922 515 922 l 519 922 l 520 922 q 534 925 524 922 q 559 937 545 929 q 682 981 637 977 q 698 982 692 982 q 703 981 703 981 q 703 979 703 980 q 705 976 703 978 q 711 972 707 974 q 720 968 715 970 q 724 968 722 968 q 726 968 725 968 l 728 968 q 738 966 730 968 q 758 958 746 963 q 784 941 772 951 q 811 914 796 930 q 832 890 822 901 q 846 874 842 879 m 769 861 q 775 873 773 867 q 777 880 777 877 l 777 881 q 772 889 776 884 q 765 897 769 893 q 758 901 761 900 q 755 902 756 902 q 755 901 755 902 q 749 893 755 894 l 746 893 q 736 898 741 893 q 731 905 733 901 q 730 910 730 908 q 727 915 730 913 l 726 915 q 722 914 724 915 q 719 910 720 913 q 703 906 718 906 l 694 906 q 676 907 685 907 q 664 907 667 907 q 623 892 654 906 q 553 860 591 879 q 488 825 515 841 q 475 817 485 823 q 453 804 465 811 q 433 790 441 797 q 423 780 425 783 q 420 774 422 777 q 418 773 419 773 l 416 773 q 412 770 415 773 q 405 763 409 768 q 397 755 400 758 q 392 753 393 753 l 391 753 q 386 750 389 753 q 380 743 383 748 q 373 733 377 738 q 366 728 369 729 q 358 720 363 726 q 345 707 352 714 q 329 689 338 699 q 312 671 319 680 q 296 655 304 664 q 283 640 288 646 q 275 631 279 634 q 271 628 272 628 l 269 628 l 268 626 q 266 620 267 624 q 261 609 265 616 q 252 597 257 602 q 243 587 247 591 q 239 581 239 582 q 237 578 239 579 q 233 577 235 577 q 228 574 230 577 q 227 568 227 572 q 224 560 227 564 q 219 552 222 555 q 212 543 216 549 q 205 530 208 536 q 201 518 203 523 q 197 514 199 514 q 194 510 195 514 q 191 500 192 506 q 187 486 189 494 q 182 473 184 479 q 178 456 180 468 q 174 433 176 445 q 174 418 174 425 q 180 388 174 400 q 210 370 186 376 q 232 364 220 366 q 253 362 244 362 l 258 362 q 270 363 266 362 q 275 370 274 365 q 279 376 277 375 q 281 376 279 376 q 286 374 283 376 q 294 373 289 373 q 302 374 296 373 q 315 378 307 374 q 325 385 322 381 q 331 390 327 388 q 340 391 335 391 q 387 409 353 391 q 458 450 421 426 q 519 496 494 474 q 529 503 524 500 q 538 507 534 507 q 545 516 545 509 l 545 518 q 558 534 545 526 q 569 544 564 538 q 574 553 574 549 q 580 561 576 557 q 590 568 585 566 q 598 573 595 570 q 601 576 601 575 l 601 577 q 604 585 601 578 q 614 598 608 591 q 675 685 656 651 q 687 705 681 696 q 696 719 692 715 q 703 729 699 722 q 710 742 707 736 q 721 764 713 749 q 738 795 729 779 q 752 824 747 811 q 759 840 758 836 q 762 849 759 843 q 769 861 765 854 z "}," ":{"ha":339,"x_min":0,"x_max":0,"o":""},"!":{"ha":534,"x_min":0,"x_max":534,"o":"m 74 60 q 81 64 75 64 q 97 62 88 64 q 113 54 106 59 q 122 45 121 50 q 123 41 123 43 q 119 17 123 33 q 107 -21 115 1 q 100 -39 104 -28 q 94 -59 96 -50 q 86 -79 90 -68 q 78 -98 81 -90 q 70 -112 73 -109 q 66 -113 68 -113 q 62 -111 64 -113 q 56 -110 58 -110 q 54 -111 54 -109 q 44 -119 54 -117 q 34 -120 39 -120 q 23 -119 29 -120 q 3 -104 7 -115 q 0 -92 0 -98 q 2 -81 0 -87 q 12 -74 4 -74 q 17 -72 17 -74 q 12 -61 17 -70 q 7 -49 7 -54 l 7 -47 q 10 -40 7 -44 q 14 -31 12 -37 q 16 -22 15 -26 q 21 7 16 -6 q 34 24 26 20 q 42 29 39 25 q 47 37 45 33 q 52 47 49 41 q 59 59 55 54 q 66 68 64 67 l 67 68 q 71 63 68 68 q 73 58 73 58 q 74 60 74 58 m 533 964 q 534 961 534 963 q 526 939 534 955 q 495 880 519 922 q 473 840 485 861 q 454 806 462 819 q 442 781 448 792 q 434 767 436 770 q 429 758 432 764 q 422 744 425 751 q 408 715 418 736 q 384 669 397 694 q 362 626 371 644 q 353 604 353 607 q 352 600 353 602 q 349 598 351 598 q 346 597 347 598 q 345 594 345 596 q 342 586 345 593 q 333 570 338 578 q 311 526 326 557 q 279 461 296 496 q 251 400 263 427 q 239 371 239 374 q 236 364 239 369 q 229 353 233 359 q 221 338 225 346 q 216 326 218 331 q 213 315 215 320 q 208 307 210 309 q 202 296 205 304 q 197 279 199 288 q 192 262 195 270 q 186 252 189 254 q 175 230 181 245 q 165 200 169 214 q 162 192 164 195 q 158 189 160 189 q 156 191 157 189 l 156 197 q 157 202 157 200 q 155 205 157 205 l 153 204 q 144 193 150 203 q 131 182 138 182 q 119 189 125 182 q 115 196 115 193 q 116 199 115 198 q 117 202 117 200 q 114 214 117 206 q 110 227 110 221 q 114 241 110 231 q 118 252 117 248 q 119 255 119 254 q 118 256 119 256 q 117 256 117 256 q 118 259 117 257 q 122 263 119 260 q 127 272 125 267 q 132 281 130 277 q 137 297 133 286 q 145 319 140 307 q 152 340 149 330 q 153 352 153 348 l 153 357 q 161 372 153 364 q 169 380 165 376 q 172 387 172 385 q 176 400 172 389 q 186 425 180 411 q 201 454 196 444 q 208 471 205 465 q 212 483 210 477 q 215 490 213 487 q 218 492 216 492 q 221 497 220 492 q 222 508 222 502 q 235 542 222 524 q 244 556 240 550 q 248 565 248 563 q 249 568 248 566 q 251 569 250 569 q 257 574 254 569 q 262 586 260 579 q 264 597 264 592 q 268 606 264 600 q 277 618 271 612 q 292 646 286 632 q 296 659 296 654 q 295 663 296 662 l 295 664 q 296 666 295 665 q 300 669 297 667 q 307 686 307 671 q 315 705 307 700 q 321 711 319 707 q 323 717 323 714 q 326 724 323 720 q 332 732 329 728 q 338 742 336 736 q 340 753 340 748 q 347 770 340 762 q 363 781 353 778 q 369 787 368 783 q 370 790 370 788 q 368 799 370 793 q 368 806 368 803 q 368 812 368 809 q 374 819 369 816 q 381 828 377 821 q 387 843 385 835 q 393 856 390 850 q 399 863 396 862 q 402 866 401 864 q 404 871 404 869 q 407 878 404 873 q 413 886 409 882 q 418 894 416 890 q 420 899 420 897 l 420 901 q 419 903 419 902 q 421 910 419 906 q 428 919 423 915 q 436 924 432 924 q 442 935 441 924 q 445 946 442 942 q 455 952 448 949 q 464 958 460 954 q 467 964 467 961 q 471 972 467 966 q 479 982 474 977 q 487 989 486 989 q 488 988 488 989 q 487 986 488 987 q 486 983 486 984 q 491 979 486 979 q 495 980 493 979 q 497 983 497 981 q 501 987 497 987 q 510 984 505 987 q 517 977 515 981 q 522 969 519 972 q 526 968 524 968 l 527 968 q 528 968 528 968 q 531 968 530 968 q 533 964 532 967 z "},"\"":{"ha":333,"x_min":0,"x_max":333,"o":"m 303 962 q 322 952 313 962 q 332 932 330 943 q 333 928 333 930 q 327 916 333 920 q 320 908 325 915 q 309 891 315 901 q 298 875 302 882 q 292 868 293 869 q 284 857 290 867 q 271 833 278 846 q 258 808 264 820 q 253 795 253 797 q 251 789 253 793 q 246 784 249 786 q 240 777 243 781 q 235 767 237 772 q 220 739 229 755 q 203 711 211 723 q 191 696 195 699 q 187 693 189 696 q 186 689 186 691 q 182 685 186 685 q 179 686 181 685 q 174 686 177 686 q 168 684 170 686 q 156 680 161 680 q 139 694 146 680 q 133 705 134 701 q 132 709 132 707 q 132 714 132 711 q 136 724 133 717 q 142 741 140 731 q 146 759 145 751 q 151 772 149 767 q 155 777 153 777 l 155 777 q 158 780 157 777 q 159 787 159 783 q 161 797 159 792 q 166 804 163 801 q 171 808 169 806 q 173 811 173 810 q 176 816 173 812 q 183 825 179 820 q 191 837 188 830 q 194 848 194 843 q 197 867 194 857 q 204 883 200 876 q 213 890 209 890 q 217 891 216 890 q 218 892 218 892 l 218 894 q 216 899 216 896 q 221 911 216 903 q 237 924 227 918 q 248 931 243 927 q 255 939 253 935 q 266 952 259 945 q 280 964 273 960 q 287 966 284 966 q 289 966 288 966 q 295 963 291 964 q 303 962 299 962 m 165 920 q 168 915 168 920 q 123 822 168 899 q 114 806 121 817 q 100 782 107 794 q 51 712 60 712 q 48 713 49 712 q 47 715 47 714 q 48 717 47 716 q 49 718 49 718 q 47 719 49 719 q 39 717 45 719 q 30 713 33 714 l 27 713 q 21 714 24 713 q 11 720 18 715 q 0 733 0 725 q 8 748 0 739 q 14 757 12 752 q 18 766 17 762 q 23 781 19 772 q 31 798 26 790 q 37 807 35 805 q 41 812 39 808 q 42 821 42 817 q 48 849 43 837 q 60 861 54 861 q 68 868 63 861 q 76 884 73 875 q 80 900 80 893 q 87 905 80 905 l 92 905 q 101 909 101 905 q 112 923 101 913 q 138 939 123 932 l 141 941 q 149 944 146 944 l 151 943 q 155 935 152 943 q 156 932 155 934 q 161 923 158 927 q 165 920 163 920 z "},"#":{"ha":635,"x_min":0,"x_max":635,"o":"m 621 499 q 635 492 633 494 l 635 492 q 628 488 635 490 q 616 481 618 484 l 616 480 q 619 474 616 477 q 623 467 623 470 q 615 461 623 464 q 576 459 608 459 q 530 454 532 459 q 527 450 528 450 q 526 454 526 450 q 525 457 526 456 q 522 459 524 459 q 519 458 520 459 l 519 457 q 520 454 519 456 l 521 453 q 520 451 521 452 q 518 450 520 450 q 515 451 516 450 q 513 454 513 452 q 509 457 513 456 q 496 460 504 459 q 488 462 492 462 q 474 458 481 462 q 457 438 468 455 q 427 385 446 421 q 411 356 418 369 q 401 340 404 343 q 395 332 395 334 q 400 329 395 329 q 410 330 404 329 q 421 331 416 331 q 429 330 427 331 q 448 328 431 329 q 488 326 465 326 q 574 315 574 323 l 574 315 q 571 312 574 313 l 565 312 q 561 311 562 312 q 559 309 559 310 q 552 301 559 305 q 536 293 545 296 q 524 290 528 290 l 522 290 q 517 293 519 291 q 513 296 514 294 q 505 297 511 297 q 490 294 499 296 q 471 290 480 291 q 446 287 461 288 q 405 286 431 286 q 377 284 385 286 q 370 279 370 283 q 368 274 370 277 q 363 269 366 271 q 355 257 360 266 q 346 239 351 249 q 333 211 338 220 q 326 196 329 202 q 317 182 322 191 q 309 168 313 175 q 304 159 305 161 q 294 136 301 151 q 280 110 287 121 q 272 96 273 98 q 270 94 271 96 q 269 90 269 92 q 267 86 269 89 q 262 80 265 83 q 258 77 260 77 l 257 77 q 256 78 256 77 q 252 81 256 81 q 245 79 250 81 q 237 73 241 77 q 232 67 234 67 q 223 73 229 67 q 212 100 212 82 l 212 102 q 220 136 212 119 q 226 152 224 145 q 227 158 227 156 q 227 160 227 159 q 226 162 226 161 q 229 174 226 165 q 238 192 232 182 q 249 206 243 202 q 257 219 251 208 q 269 244 262 230 q 280 270 275 258 q 286 284 286 281 q 279 285 286 285 q 265 285 275 285 q 234 284 254 285 q 198 282 214 283 q 180 279 182 281 q 177 275 178 278 q 176 269 176 273 q 173 261 175 267 q 167 252 171 256 q 161 243 163 248 q 159 237 159 239 q 157 232 159 235 q 152 226 155 229 q 143 213 149 223 q 131 191 137 203 q 114 157 120 169 q 98 132 108 146 q 93 123 96 127 q 91 117 91 119 q 87 107 91 115 q 76 90 83 99 q 66 73 70 81 q 62 62 62 65 q 58 58 62 60 q 49 54 54 56 q 39 52 43 54 q 34 48 35 50 q 27 45 31 45 q 23 49 23 45 q 21 52 23 51 q 17 53 20 53 q 13 54 14 53 q 12 56 12 55 l 12 57 q 13 59 13 58 q 12 61 13 60 q 9 65 12 63 q 5 75 5 68 l 5 77 q 7 86 5 82 q 14 91 9 91 q 18 96 18 91 q 17 104 18 100 q 16 110 16 107 q 17 116 16 113 q 23 121 18 119 q 30 128 27 124 q 32 136 32 132 q 34 144 32 139 q 37 153 35 149 q 43 162 40 156 q 47 174 45 168 q 66 214 58 214 q 68 216 67 214 q 70 222 70 219 q 72 230 70 226 q 76 237 73 235 q 81 244 79 240 q 83 252 83 248 q 84 258 83 255 q 89 262 86 260 q 93 266 92 263 q 95 271 95 268 q 96 275 95 273 q 100 277 98 277 q 102 278 101 277 q 104 281 104 279 q 96 284 104 283 q 75 286 87 286 q 48 287 64 286 q 22 290 33 288 q 7 295 12 293 q 1 298 2 296 q 0 302 0 300 l 0 304 q 2 313 1 308 q 3 323 3 319 q 6 331 4 327 q 9 336 7 334 q 22 339 12 338 q 43 342 32 341 q 58 342 52 342 q 68 342 62 342 q 74 340 74 342 q 76 338 74 339 l 80 338 q 83 339 81 339 q 86 338 84 339 q 91 334 88 337 q 100 328 96 328 l 100 328 q 102 332 102 329 q 102 336 102 334 q 101 340 101 338 q 101 342 101 341 q 106 344 102 344 q 120 345 111 345 q 140 347 135 345 q 148 357 144 349 q 153 371 151 363 q 157 385 155 378 q 161 404 158 399 q 171 408 164 408 q 181 422 179 408 q 182 429 182 426 q 178 440 182 435 q 160 447 175 445 q 115 449 145 449 q 77 450 89 449 q 59 453 64 451 q 50 461 54 456 q 42 472 43 468 q 41 475 41 473 q 44 483 41 478 q 48 490 46 488 q 51 492 50 492 l 52 492 q 54 491 52 491 q 58 491 55 491 q 65 493 60 491 q 95 497 71 494 q 150 503 119 500 q 204 510 182 507 q 228 515 225 513 q 235 526 230 517 q 245 545 239 534 q 256 564 250 555 q 267 578 262 574 q 273 585 270 582 q 276 590 275 589 q 278 595 276 591 q 281 605 279 600 q 286 615 283 610 q 288 624 288 621 q 292 630 289 627 q 299 637 295 634 q 309 646 303 641 q 321 656 315 652 q 332 665 326 661 q 342 668 338 668 q 350 670 346 669 q 357 671 355 671 q 359 672 358 672 q 373 656 365 672 q 382 633 382 641 l 382 631 q 374 613 382 624 q 365 597 370 608 q 354 577 359 587 q 343 557 349 568 q 333 540 338 546 q 324 521 324 527 q 327 517 324 519 q 359 514 329 514 q 407 520 395 514 q 423 547 418 526 q 433 569 425 556 q 448 591 440 582 q 458 600 455 600 l 460 600 q 463 601 460 600 q 467 605 465 602 q 471 611 471 609 q 467 616 471 613 q 463 619 463 618 l 464 619 q 468 618 465 619 l 471 618 q 475 618 473 618 q 479 621 477 618 q 484 623 481 623 q 488 619 486 623 q 492 616 490 616 q 495 617 493 616 q 502 625 496 617 q 522 638 513 638 q 538 625 530 638 q 545 613 542 619 q 547 606 547 608 q 545 597 547 604 q 538 585 542 591 q 530 574 534 578 q 526 569 527 569 q 522 566 524 569 q 517 559 519 563 q 512 548 515 555 q 505 535 509 541 q 499 524 502 528 q 497 517 497 519 q 516 511 497 514 q 566 507 536 509 q 621 499 604 506 m 357 416 q 366 432 363 422 q 368 447 368 440 q 368 454 368 449 q 361 459 367 459 q 356 457 359 459 q 351 452 353 455 q 343 448 347 450 q 336 446 339 446 q 329 448 332 446 q 325 452 326 450 q 307 459 322 459 q 295 458 299 459 q 287 452 291 456 q 276 437 283 447 q 225 341 225 359 l 225 340 q 231 334 226 336 q 246 333 235 333 q 261 334 260 333 q 253 338 261 336 q 245 342 245 341 q 247 343 245 342 q 266 344 249 344 l 274 344 q 285 343 281 344 q 288 340 288 342 l 288 339 q 288 335 288 337 q 289 330 288 333 q 294 328 290 328 q 302 332 296 328 q 315 345 308 337 q 332 372 332 361 q 334 381 332 376 q 340 388 336 385 q 346 394 344 390 q 349 401 349 398 q 351 409 349 404 q 357 416 353 413 m 111 436 q 117 437 113 437 q 121 436 119 437 q 122 435 122 435 q 117 434 122 434 q 111 435 111 434 l 111 436 z "},"$":{"ha":555,"x_min":0,"x_max":555,"o":"m 549 703 q 555 691 555 700 l 555 689 q 551 674 555 682 q 527 664 546 667 q 469 661 509 661 q 437 659 450 660 q 424 657 425 658 q 418 648 422 656 q 408 628 414 640 q 397 604 403 616 q 387 585 391 591 q 381 571 383 578 q 378 561 378 564 q 376 553 378 557 q 370 545 374 549 q 364 538 366 542 q 361 532 361 534 q 359 522 361 529 q 353 507 356 515 q 346 489 346 494 l 346 487 q 355 484 346 484 l 358 484 q 363 487 363 484 l 363 488 q 364 491 363 490 q 368 492 366 492 q 372 491 371 492 q 373 489 373 490 l 373 488 q 380 478 373 485 q 399 463 388 471 q 431 442 417 450 q 465 422 444 433 q 475 414 470 419 q 485 403 481 408 q 497 387 489 397 q 513 369 505 378 q 526 354 520 361 q 531 346 531 348 q 533 330 532 340 q 536 309 534 319 q 537 303 537 306 q 536 294 537 300 q 533 283 535 289 q 529 273 531 278 q 527 267 527 269 q 519 256 525 260 q 511 253 516 253 l 506 253 q 500 252 504 253 q 492 247 496 250 q 474 236 485 241 q 455 227 464 230 q 448 225 450 225 q 446 227 446 225 q 445 230 446 229 q 441 231 444 231 q 439 229 440 231 l 439 227 q 440 224 440 226 q 403 218 440 218 q 372 212 378 218 q 361 205 366 205 q 355 210 358 205 q 348 213 353 212 q 340 214 345 214 q 336 213 339 214 q 332 210 332 213 q 327 208 332 209 q 314 206 321 206 q 301 205 307 205 q 295 203 296 204 l 293 203 q 290 204 292 203 q 282 206 287 204 q 268 210 277 208 q 251 212 259 211 l 243 212 q 232 211 237 212 q 224 204 228 210 q 219 199 222 201 q 216 198 218 198 q 214 199 215 198 q 212 199 213 199 l 211 199 q 210 197 210 199 q 211 194 210 195 q 214 193 212 193 q 217 188 217 193 q 216 179 217 184 q 200 149 210 149 l 199 149 q 196 150 197 150 q 194 149 195 150 q 193 146 193 149 q 194 143 193 144 q 197 142 195 142 q 200 141 199 142 l 200 140 q 199 135 200 138 q 195 122 199 132 q 186 98 192 113 q 174 65 178 75 q 166 53 170 55 q 163 52 165 52 q 159 53 161 52 q 153 55 155 55 q 149 51 150 55 q 146 43 146 45 l 146 42 q 149 41 147 41 q 155 43 151 41 q 157 43 157 43 q 159 43 159 43 q 160 41 160 42 q 159 36 160 39 q 153 21 158 32 q 140 -7 149 11 q 126 -31 128 -31 q 125 -29 125 -31 q 127 -22 125 -27 l 130 -12 l 124 -22 q 112 -31 119 -31 q 98 -24 106 -31 q 92 -10 92 -17 l 92 -9 q 96 0 92 -3 q 98 4 97 1 q 100 11 100 7 q 102 25 100 14 q 109 47 105 35 q 123 73 117 73 l 126 73 q 128 73 127 73 q 130 77 130 74 q 128 81 130 79 q 125 83 127 83 q 121 87 121 83 q 121 93 121 89 q 126 105 121 96 q 130 113 128 109 q 132 119 132 117 q 136 137 133 127 q 142 155 139 147 q 147 166 145 163 q 151 169 149 168 q 155 170 153 170 q 157 169 156 170 q 160 168 159 168 q 162 169 161 168 q 163 172 163 170 q 162 174 163 174 l 161 174 q 159 174 160 174 q 156 173 157 173 q 153 176 153 173 q 152 180 152 178 q 155 191 152 184 q 157 201 157 196 q 136 213 157 213 l 130 213 q 114 212 121 213 q 103 209 106 210 q 98 208 100 208 q 93 210 95 208 q 86 213 92 212 q 75 214 81 214 l 69 214 q 50 215 61 214 q 18 223 39 217 q 3 235 3 229 q 7 241 3 238 q 9 243 9 243 q 5 248 9 245 q 0 254 0 251 q 2 260 0 257 q 71 274 11 274 q 92 275 83 274 q 100 277 100 276 q 106 281 100 281 q 121 276 113 281 q 128 273 125 273 q 132 275 131 273 q 143 281 135 279 q 159 283 151 283 l 162 283 q 171 281 168 283 q 174 281 172 281 q 187 290 180 281 q 194 300 191 295 q 197 307 197 304 q 198 313 197 309 q 202 319 200 316 q 212 336 206 323 q 222 360 217 348 q 227 377 227 373 q 235 401 227 381 q 256 447 243 421 q 257 450 257 448 q 254 456 257 453 q 242 460 250 460 q 238 463 240 460 q 233 469 235 465 q 227 473 231 471 q 221 475 224 475 q 214 479 218 475 q 208 488 210 483 q 201 497 204 494 q 194 500 197 500 l 192 500 q 188 502 191 500 q 184 505 186 503 q 181 512 183 508 q 176 521 178 517 q 173 529 174 525 q 172 535 172 533 q 168 543 172 537 q 159 553 164 548 q 137 589 137 576 q 140 597 137 593 q 144 607 142 600 q 146 619 146 613 q 155 640 146 634 q 159 645 158 642 q 161 649 161 647 l 161 650 q 160 652 160 652 q 161 656 160 654 q 166 659 163 658 q 175 663 170 660 q 184 670 180 667 q 196 677 189 674 q 210 683 203 681 q 234 688 216 684 q 271 698 251 692 q 308 707 291 703 q 330 713 324 711 q 343 715 336 714 q 357 717 351 717 q 376 726 369 717 q 381 737 381 732 q 379 743 381 741 q 376 751 376 747 q 379 760 376 754 q 384 768 381 765 q 388 772 386 772 q 390 773 389 772 q 391 777 391 775 q 394 782 391 780 q 399 785 396 785 q 408 801 408 786 q 418 827 408 814 q 426 839 423 833 q 429 848 429 844 q 432 859 429 851 q 440 873 435 866 q 448 886 445 880 q 449 892 449 890 l 449 894 q 454 903 449 895 q 470 921 460 911 q 486 937 479 931 q 492 941 491 941 q 492 941 492 941 q 494 939 492 939 l 496 939 q 499 939 497 939 l 500 939 q 519 928 507 939 q 528 915 526 920 q 530 908 530 911 q 529 903 530 906 q 514 863 526 892 q 488 802 503 834 q 463 750 473 770 q 457 737 459 743 q 454 728 454 731 q 458 722 454 724 q 467 719 463 720 l 469 719 q 474 722 473 719 q 477 723 475 723 q 480 723 479 724 q 482 722 481 722 q 484 723 483 722 q 484 724 484 723 q 492 727 484 727 q 508 725 499 727 q 521 720 517 724 q 525 718 523 718 l 526 718 q 526 719 526 718 q 527 720 526 720 q 529 719 528 720 q 534 713 531 718 q 541 707 537 710 q 549 703 545 704 m 138 3 q 136 5 138 5 q 134 5 135 5 q 131 1 132 3 q 130 -2 130 -1 q 131 -4 130 -4 q 134 -4 132 -5 q 136 -1 135 -3 q 138 3 138 1 m 170 92 q 173 94 172 92 q 174 96 174 95 q 173 98 174 97 q 171 102 172 100 l 170 104 q 168 102 169 104 q 166 98 167 100 q 165 96 165 97 q 166 94 165 95 q 170 92 167 92 m 182 104 q 182 106 182 105 l 182 107 q 180 108 182 108 q 177 107 178 108 q 176 104 176 106 q 176 101 176 102 q 178 100 177 100 q 180 101 178 100 q 182 104 181 102 m 252 534 q 256 531 253 534 q 264 526 260 529 q 275 520 269 523 q 286 518 281 518 q 296 520 294 518 q 298 528 298 522 l 298 532 q 300 546 298 538 q 307 562 302 555 q 315 587 315 576 q 314 593 315 591 q 313 601 313 598 q 315 606 313 606 l 317 606 q 322 611 318 606 q 331 625 327 616 q 338 639 335 633 q 340 646 340 644 l 340 647 q 338 648 339 648 q 332 647 336 648 q 319 644 328 646 q 303 641 311 642 q 292 639 296 639 q 280 635 288 638 q 263 629 272 633 q 247 622 254 625 q 237 619 239 619 q 232 617 235 619 q 227 610 229 614 q 219 601 224 607 q 211 589 215 594 q 204 578 205 582 l 204 576 q 207 568 204 573 q 220 553 210 564 q 235 541 226 546 q 252 534 245 535 m 351 425 q 347 427 350 425 q 339 433 343 429 l 338 434 q 332 437 335 437 q 326 433 330 437 q 313 416 322 428 q 309 410 311 414 q 304 402 306 407 q 302 395 302 397 q 297 377 302 389 q 286 355 292 365 q 277 345 279 345 q 275 344 275 345 l 275 341 q 275 338 275 340 q 274 330 275 336 q 269 313 272 323 q 262 286 262 296 q 269 277 262 277 q 272 279 270 277 q 275 281 274 280 q 284 284 277 284 q 317 279 294 284 q 323 278 320 278 q 338 281 332 278 q 349 285 345 285 q 359 282 353 285 q 370 280 363 280 q 376 280 371 280 q 396 284 381 281 q 417 290 408 287 q 429 294 427 293 q 454 306 442 302 q 467 309 462 309 q 469 309 468 309 l 471 309 q 475 314 474 309 q 477 326 477 319 q 476 333 477 328 q 473 346 476 339 q 469 351 471 350 q 468 352 469 352 q 467 351 467 352 q 467 351 467 351 q 463 353 465 351 q 455 360 460 355 q 446 370 450 365 q 442 378 442 375 q 440 381 442 380 q 439 382 439 382 q 436 381 437 382 l 434 381 q 429 382 432 381 q 422 385 426 382 q 417 390 417 389 q 425 387 418 390 q 432 384 431 384 q 433 386 433 385 q 433 388 433 387 q 428 393 431 390 q 418 397 424 395 q 402 403 413 399 q 380 413 391 408 q 361 421 370 418 q 351 425 353 425 z "},"%":{"ha":617,"x_min":0,"x_max":617,"o":"m 616 918 q 617 915 617 917 q 615 908 617 913 q 610 897 614 903 q 603 888 606 890 q 597 880 601 886 q 590 864 594 873 q 582 848 586 855 q 576 840 578 842 q 568 830 574 838 q 557 812 563 823 q 543 788 551 801 q 529 767 535 776 q 515 745 524 759 q 500 720 507 732 q 488 700 494 708 q 480 691 482 691 q 477 689 479 691 q 476 684 476 686 q 474 675 476 680 q 469 665 472 670 q 460 653 465 661 q 452 638 456 646 q 443 623 448 631 q 434 609 437 614 q 426 596 431 604 q 419 583 422 589 q 413 573 416 576 q 408 569 410 569 q 406 567 407 569 q 404 563 404 566 q 401 554 404 561 q 393 538 397 547 q 364 493 376 513 q 348 464 352 472 q 344 457 346 460 q 340 454 342 455 q 338 453 339 454 q 337 449 337 452 q 332 437 337 447 q 318 416 326 428 q 304 396 310 405 q 299 385 299 387 q 296 378 299 382 q 289 370 293 374 q 279 364 282 364 q 277 366 277 364 l 276 368 l 276 361 q 274 352 276 358 q 269 340 272 347 l 250 310 q 234 281 243 296 q 218 256 225 267 q 210 243 212 245 q 207 238 210 242 q 201 229 204 234 q 191 210 199 222 q 173 183 182 197 q 157 159 163 170 q 151 149 151 149 q 148 141 151 147 q 138 127 144 135 q 129 113 133 119 q 125 104 125 106 q 124 101 125 102 q 121 100 123 100 q 117 105 117 100 q 122 115 117 111 q 125 120 124 118 q 125 122 125 121 q 125 123 125 123 q 39 -18 120 123 q 24 -42 31 -33 q 16 -52 17 -52 q 11 -49 14 -52 q 5 -41 8 -46 q 1 -33 2 -36 l 0 -32 l 1 -32 q 3 -33 1 -33 q 6 -32 4 -33 q 12 -28 8 -31 q 20 -13 18 -22 l 20 -9 q 16 0 20 -3 q 14 5 14 2 q 14 9 14 7 q 19 17 15 12 q 27 22 22 21 q 33 24 31 22 q 35 35 35 27 q 45 56 35 49 q 51 62 49 58 q 52 66 52 64 l 52 68 q 52 71 52 69 q 54 81 52 75 q 60 93 56 87 q 68 100 64 100 q 76 113 74 100 q 79 124 77 121 q 84 127 81 127 l 85 127 q 92 130 91 127 q 93 136 93 132 l 93 146 q 96 163 93 155 q 106 172 100 172 q 110 175 108 172 q 112 183 112 178 q 116 199 113 191 q 123 215 119 208 q 130 222 127 222 q 150 251 133 222 q 192 328 167 280 q 208 356 200 343 q 221 375 216 370 q 228 386 225 380 q 231 392 231 391 q 234 399 231 394 q 242 410 237 405 q 249 421 246 416 q 252 428 252 427 q 257 438 252 430 q 267 456 261 446 q 278 478 273 467 q 282 493 282 488 q 290 509 282 505 q 318 543 308 515 q 327 562 321 551 q 339 582 333 573 q 350 600 345 591 q 354 613 354 609 q 356 622 354 618 q 360 627 357 625 q 365 631 363 627 q 366 640 366 635 q 381 667 366 651 q 401 693 394 682 q 407 703 407 701 q 406 704 407 704 l 405 704 q 407 706 405 705 q 412 711 408 708 q 418 718 416 713 q 420 722 420 720 l 420 724 q 419 729 419 726 q 421 737 419 732 q 428 742 423 742 q 436 749 431 742 q 444 764 440 757 q 446 773 446 770 q 445 776 446 774 l 445 777 q 447 782 445 779 q 453 790 449 785 q 461 801 458 795 q 464 810 464 806 q 466 815 464 813 q 470 818 467 818 q 474 819 473 818 q 475 821 475 820 q 474 822 475 821 l 474 824 q 474 826 474 825 q 475 827 474 827 q 479 830 477 827 q 482 837 481 833 q 486 845 484 842 q 490 848 488 848 q 496 852 492 848 q 503 865 500 857 q 512 880 507 871 q 524 893 518 888 q 538 906 530 898 q 553 922 546 914 q 564 932 560 928 q 568 935 567 935 q 569 934 569 935 q 568 929 569 932 q 564 925 566 927 q 564 924 564 924 q 565 923 564 923 q 578 926 568 923 q 595 930 589 930 q 602 925 602 930 q 601 922 602 924 q 600 918 600 920 q 601 915 600 917 q 605 913 602 913 l 606 913 q 610 916 608 913 q 612 918 610 917 q 614 918 614 918 q 616 918 615 918 m 71 21 q 73 28 71 23 q 80 39 76 33 q 87 48 83 44 q 90 52 89 52 l 90 51 q 89 45 90 50 q 83 35 87 41 q 71 19 74 19 q 71 21 71 19 m 102 74 q 103 73 103 74 q 103 71 103 73 q 100 66 102 69 q 96 60 98 62 q 94 58 94 58 l 94 58 q 94 61 94 59 q 96 66 94 62 q 100 72 98 69 q 102 74 102 74 m 509 350 q 551 314 545 339 q 553 299 553 306 l 553 296 q 552 282 553 290 q 546 254 551 273 q 514 181 531 188 q 509 178 510 180 q 507 175 507 176 l 507 174 q 508 170 508 172 q 506 161 508 167 q 499 148 504 155 q 490 138 494 141 q 481 130 486 136 q 474 119 477 125 q 468 108 471 113 q 463 104 465 104 q 454 100 460 104 q 440 89 448 96 q 418 77 425 77 l 416 77 q 412 77 414 77 q 410 77 412 77 q 409 75 409 77 q 403 69 409 73 q 390 61 397 64 q 380 58 384 58 q 375 59 379 58 q 367 60 372 60 q 359 64 363 61 q 355 71 356 67 q 349 78 354 74 q 338 85 345 82 q 324 99 324 91 q 322 106 324 102 q 318 112 321 110 q 312 122 314 116 q 311 130 311 126 q 311 135 311 132 q 315 138 311 138 q 319 141 318 138 l 319 144 q 318 155 319 149 q 316 169 317 163 q 315 176 315 174 l 315 178 q 324 199 315 193 q 329 206 328 203 q 330 210 330 209 l 330 213 q 332 218 330 215 q 339 227 334 222 q 346 236 343 231 q 349 243 349 241 q 351 250 349 246 q 356 256 353 254 q 360 261 359 258 q 362 265 362 264 q 366 273 362 267 q 376 286 370 279 q 389 300 384 297 q 397 302 392 302 q 401 301 399 302 q 408 300 406 300 q 411 300 410 300 q 412 302 412 301 q 411 307 412 304 q 410 309 410 308 q 420 326 410 317 q 430 333 425 330 q 435 336 434 336 q 443 340 437 336 q 457 349 450 344 q 482 361 471 358 q 488 361 486 361 q 493 358 493 361 q 498 354 493 357 q 509 350 503 352 m 421 79 q 425 80 423 79 q 426 83 426 81 q 425 86 426 85 q 424 87 425 87 q 422 86 423 87 q 419 83 420 85 l 419 81 q 419 80 419 81 q 421 79 419 79 m 478 263 q 479 267 479 266 q 474 272 479 272 l 471 271 q 456 262 467 271 q 437 242 446 254 q 431 235 434 237 q 426 233 428 233 l 425 233 q 424 233 425 233 q 423 233 423 233 q 424 230 423 232 l 424 229 q 422 222 424 227 q 415 212 420 217 q 406 198 410 207 q 400 182 402 190 q 396 168 398 175 q 392 158 393 161 q 391 153 391 155 q 393 146 391 149 l 393 146 q 398 142 396 143 l 399 142 q 404 144 401 142 q 414 152 407 146 l 416 153 q 447 200 430 164 q 459 226 454 215 q 464 239 464 237 q 466 243 464 241 q 469 248 467 246 q 474 255 472 251 q 478 263 477 259 m 113 96 q 115 94 115 96 q 115 89 115 92 q 112 84 113 86 q 111 83 111 83 q 109 84 110 83 q 109 89 109 86 q 110 94 109 92 q 113 96 111 96 m 69 665 q 64 671 65 668 l 64 673 q 66 682 64 677 q 74 700 68 688 q 90 726 81 715 q 102 738 98 738 l 108 738 q 112 743 109 738 q 119 757 115 749 q 138 785 124 770 q 167 810 152 800 q 186 819 180 819 l 191 819 q 199 820 194 819 q 210 824 204 821 q 222 829 215 827 q 235 831 230 831 q 244 832 240 831 q 250 835 249 833 q 258 839 253 839 q 287 817 268 839 q 300 801 296 807 q 304 786 304 794 q 305 761 305 778 q 302 727 305 740 q 290 694 300 715 q 279 670 283 680 q 275 659 275 661 l 275 656 q 275 652 275 655 q 271 646 274 650 q 267 642 268 642 l 267 643 q 268 645 267 644 q 269 647 269 646 q 268 648 269 648 q 262 643 267 648 q 255 635 258 640 q 252 628 252 631 q 247 618 252 625 q 233 602 241 610 q 217 586 224 594 q 205 574 209 578 q 197 567 201 570 q 190 564 193 564 q 183 563 188 564 q 172 558 178 561 q 162 554 165 554 q 159 557 159 554 q 155 559 158 559 q 148 557 153 559 q 134 553 141 553 q 114 557 127 553 q 104 563 108 559 q 100 569 100 566 q 96 576 100 572 q 83 584 91 581 q 67 598 70 590 q 66 602 66 600 q 73 619 66 609 q 76 629 76 625 q 76 632 76 629 q 71 642 76 635 q 67 652 67 648 l 67 653 q 70 657 67 656 q 73 661 73 659 q 69 665 73 663 m 142 653 q 139 648 140 653 q 138 636 138 644 q 143 621 138 621 l 144 621 q 161 635 149 621 q 206 687 206 681 q 210 697 206 690 q 220 711 214 704 q 230 723 226 719 q 237 736 235 728 q 237 741 237 739 q 235 752 237 747 q 228 759 231 759 q 222 750 224 759 q 218 745 220 746 q 216 743 217 743 q 215 744 216 743 l 214 744 q 202 738 210 744 q 183 721 193 732 q 166 700 172 710 q 158 685 162 693 q 151 669 153 676 q 146 658 149 663 q 142 653 144 653 z "},"&":{"ha":690,"x_min":0,"x_max":690,"o":"m 684 808 q 690 793 690 800 l 690 792 q 685 778 690 786 q 667 755 680 770 q 656 741 661 747 q 653 734 653 736 l 653 733 q 648 723 653 730 q 634 707 642 715 q 622 698 627 700 q 615 693 618 696 q 609 685 611 689 q 601 676 606 680 q 591 669 596 671 q 584 665 587 667 q 581 662 581 663 l 581 661 q 582 660 582 661 q 578 654 582 658 q 570 647 575 651 q 560 643 565 644 q 554 640 557 642 q 548 633 551 637 q 531 615 545 629 q 497 585 517 602 q 459 556 471 564 q 445 549 450 549 q 443 550 444 549 q 438 551 439 551 q 436 551 437 551 q 435 549 435 550 q 437 544 435 547 l 437 542 q 433 532 437 538 q 424 522 430 526 q 414 519 418 519 l 409 519 q 405 515 405 519 l 405 513 q 398 502 405 509 q 381 487 391 494 q 368 480 372 480 q 366 479 366 480 l 366 475 q 366 474 366 475 q 365 472 366 473 q 361 471 364 471 q 357 470 359 471 q 355 467 355 469 q 352 460 355 465 q 346 453 349 456 q 339 450 342 450 q 335 447 338 450 q 330 440 332 444 q 325 432 328 435 q 319 429 321 429 q 312 425 317 429 q 302 413 307 420 q 291 397 294 404 q 289 383 289 391 l 289 380 q 292 365 290 372 q 297 352 294 357 q 302 341 300 347 q 304 330 304 334 q 310 313 304 326 q 323 288 316 300 q 337 269 331 275 q 338 268 338 268 q 346 270 340 268 q 358 277 351 273 q 371 287 366 282 q 378 295 377 292 q 380 300 379 298 q 382 301 382 301 q 385 300 384 301 q 386 300 385 300 q 395 302 389 300 q 410 311 401 305 q 449 333 425 320 q 495 355 473 345 q 525 367 517 365 l 528 367 q 534 361 534 367 l 534 358 q 535 355 534 357 q 536 353 535 353 q 539 349 539 353 q 538 340 540 345 q 534 331 537 335 q 530 325 530 327 q 532 323 530 323 q 534 321 534 323 q 530 313 534 319 q 524 307 528 309 q 519 305 522 305 l 517 305 q 509 302 515 305 q 496 292 503 298 q 473 277 479 277 q 469 281 469 277 q 468 284 469 283 l 467 284 q 465 283 466 284 q 463 280 463 282 l 463 275 q 464 273 464 274 q 455 260 464 268 q 431 245 447 253 q 419 239 424 242 q 414 235 414 236 q 409 229 414 233 q 395 220 404 225 q 382 211 387 216 q 376 205 376 207 q 379 198 376 203 q 385 186 381 193 q 406 165 391 175 q 452 143 421 156 q 471 134 462 139 q 485 124 481 128 l 495 115 l 473 109 q 454 105 463 107 q 441 102 446 102 l 437 102 q 431 102 435 102 q 422 104 427 102 q 413 107 418 106 q 403 109 407 109 q 392 116 399 110 q 377 132 385 123 q 361 150 369 142 q 349 162 353 159 q 347 163 348 163 l 347 163 q 348 160 347 162 q 349 155 349 157 l 349 155 q 341 161 347 155 q 336 164 338 164 l 335 164 q 328 161 332 164 q 316 150 324 158 q 300 136 309 142 q 286 128 292 130 q 278 124 281 127 q 275 120 275 122 q 273 118 275 119 q 269 117 272 117 q 264 114 267 117 q 259 108 261 112 q 253 102 256 104 q 248 100 250 100 q 236 95 245 100 q 217 83 227 90 q 200 70 208 76 q 193 62 193 64 q 191 60 193 61 q 184 59 188 59 q 173 56 179 58 q 161 50 167 54 q 148 45 157 47 q 131 42 140 43 q 115 41 123 42 q 104 39 107 41 l 100 39 q 93 39 97 39 q 83 41 88 39 q 64 54 77 43 q 41 76 52 64 q 30 92 30 87 q 28 94 30 93 q 26 96 27 96 q 22 98 24 96 q 21 104 21 100 q 20 110 21 107 q 17 115 19 113 q 14 121 15 116 q 14 130 14 125 l 14 140 q 7 157 14 153 q 2 162 4 159 q 0 167 0 165 q 7 188 0 172 q 24 218 15 203 q 39 238 33 233 q 47 247 43 242 q 51 254 51 252 q 55 262 51 256 q 64 275 59 268 q 84 295 71 281 q 112 326 98 310 q 146 362 127 342 q 179 397 165 382 q 203 424 193 412 q 214 441 213 437 q 215 448 215 444 q 214 461 215 452 q 210 481 213 469 q 205 503 205 496 q 204 508 204 506 q 205 513 204 511 q 211 517 206 515 q 218 526 216 522 q 218 531 218 528 q 217 541 218 535 q 216 551 216 547 q 217 556 216 553 q 222 563 218 559 q 227 568 225 565 q 227 571 227 570 q 227 573 227 572 q 226 576 226 574 q 229 588 226 579 q 238 606 233 597 q 248 618 243 616 q 256 627 250 619 q 269 646 262 635 q 305 692 283 669 q 340 723 326 715 q 347 726 345 726 q 349 726 349 726 l 349 725 l 349 724 l 349 724 q 352 725 350 724 q 359 728 354 725 q 368 735 365 732 q 372 741 372 739 q 377 745 372 743 q 388 749 381 747 q 412 757 395 750 q 448 773 429 764 q 558 822 517 807 q 630 837 600 836 l 639 837 q 665 832 655 837 q 684 808 674 827 m 279 218 q 285 227 284 218 l 285 229 q 281 244 285 236 q 277 254 279 250 q 277 258 277 257 q 277 260 277 260 l 277 262 q 276 265 277 263 q 271 269 275 267 q 265 276 267 272 q 262 282 262 279 q 260 289 262 286 q 254 294 258 292 q 246 305 250 296 q 239 324 241 314 q 237 335 237 330 q 237 338 237 337 q 238 340 238 340 q 238 342 238 341 q 236 344 237 343 q 230 345 233 345 q 224 339 224 345 q 221 332 224 336 q 215 322 219 327 q 208 315 212 317 q 205 313 206 313 l 204 313 q 203 313 203 313 q 197 311 201 313 q 190 304 194 309 q 186 296 186 300 q 179 284 186 292 q 165 268 173 275 q 154 260 157 260 q 148 257 151 260 q 143 248 145 253 q 129 233 138 235 q 117 216 119 231 q 112 204 115 210 q 106 197 109 199 q 98 188 102 195 q 91 172 94 181 q 84 157 87 164 q 78 148 81 150 q 75 138 75 145 l 75 134 q 77 120 75 127 q 83 107 79 112 q 90 101 87 102 q 94 100 92 100 q 98 101 96 100 q 109 104 101 101 q 118 107 114 106 q 123 109 121 109 q 130 112 124 109 q 143 119 136 115 q 158 126 151 123 q 167 129 165 129 q 174 132 169 129 q 183 141 178 136 q 210 163 204 163 q 218 167 212 163 q 231 178 224 172 q 246 190 238 184 q 259 198 254 195 q 268 204 264 200 q 273 210 272 208 q 276 216 274 214 q 279 218 277 218 m 552 734 l 573 754 l 558 751 q 546 749 552 751 q 538 745 540 747 q 519 734 533 741 q 487 719 505 727 q 456 706 470 711 q 439 700 442 700 q 434 699 436 700 q 431 696 431 698 q 424 689 431 694 q 406 677 416 684 q 387 667 395 671 q 376 662 378 662 q 373 659 374 662 q 370 651 371 656 q 363 639 368 646 q 351 626 357 632 q 339 614 343 619 q 336 608 336 609 l 336 607 q 336 605 336 606 q 335 602 336 604 q 330 597 333 600 q 323 591 326 594 q 319 584 320 587 q 317 577 319 581 q 311 570 315 573 q 306 560 309 566 q 303 549 304 555 q 300 538 302 544 q 295 530 298 533 q 290 522 292 526 q 288 515 288 518 q 289 511 288 511 q 290 511 290 511 q 297 517 291 511 q 306 524 302 521 q 311 526 309 526 q 318 531 312 526 q 330 541 323 535 q 343 552 337 547 q 350 556 349 556 q 354 560 351 556 q 360 569 357 564 q 368 579 363 574 q 375 585 372 583 q 396 597 382 587 q 423 619 410 608 q 471 660 444 639 q 490 675 479 665 q 509 693 500 684 q 531 714 519 703 q 552 734 543 726 z "},"'":{"ha":159,"x_min":0,"x_max":159,"o":"m 9 747 q 2 756 4 752 q 0 765 0 760 q 0 772 0 769 q 1 787 0 778 q 17 849 5 821 q 39 877 28 877 q 44 882 44 877 q 43 886 44 884 q 43 891 43 888 q 45 902 43 896 q 53 916 48 911 q 58 923 54 916 q 65 938 61 929 q 73 951 69 946 q 79 956 77 956 l 80 956 q 87 960 82 956 q 97 968 92 963 q 109 979 104 977 q 116 981 113 981 q 123 980 119 981 q 147 965 135 977 q 159 944 159 954 q 151 922 159 941 q 132 884 142 903 q 117 859 123 865 q 107 842 115 856 q 90 808 100 827 q 63 760 73 776 q 51 741 54 744 q 45 737 47 737 q 41 739 43 737 q 36 742 39 742 q 28 739 33 742 q 22 736 26 736 l 20 737 q 9 747 16 739 z "},"(":{"ha":488,"x_min":0,"x_max":489,"o":"m 62 -16 q 45 -7 50 -14 q 39 20 41 0 q 34 42 37 32 q 28 56 31 52 q 22 68 24 61 q 20 83 20 76 q 14 101 20 98 q 6 110 9 103 q 4 122 4 116 l 4 125 q 8 136 4 132 q 12 140 12 138 q 7 145 12 142 q 1 152 2 148 q 0 163 0 157 l 0 170 q 2 184 1 178 q 6 192 4 191 q 9 205 9 193 q 8 219 9 211 q 7 233 7 226 q 22 317 7 267 q 27 339 24 328 q 32 355 31 350 q 77 456 37 374 q 84 470 79 463 q 92 485 88 478 q 103 503 96 492 q 116 525 110 514 q 134 551 123 536 q 155 580 144 567 q 174 604 165 593 q 185 619 182 615 q 191 626 187 623 q 198 630 195 629 q 203 634 201 631 q 205 639 205 636 q 223 661 205 642 q 263 704 240 680 q 307 746 287 728 q 333 768 327 764 q 341 772 338 770 q 345 777 345 775 q 351 785 345 780 q 372 803 356 791 q 387 815 378 808 q 402 829 396 823 q 422 843 417 843 q 425 839 425 843 q 427 837 425 837 l 427 837 q 430 838 429 837 q 433 838 431 838 q 433 838 433 838 q 432 833 433 836 q 431 829 431 831 l 431 829 l 432 829 q 443 835 434 829 q 475 851 467 851 q 479 847 479 851 q 477 837 479 844 q 474 831 475 833 q 474 828 474 829 q 475 827 474 827 l 478 827 q 488 821 487 827 q 489 818 489 819 q 480 804 489 812 q 476 797 477 800 q 475 791 475 793 l 475 789 q 476 786 476 787 q 474 784 476 784 q 471 785 473 784 q 467 786 468 786 q 465 784 465 786 l 465 783 q 464 780 465 781 q 461 779 463 779 l 458 779 q 448 775 453 779 q 442 764 442 770 q 434 752 442 760 q 416 733 427 743 q 384 703 404 723 q 342 663 363 684 q 308 630 323 644 q 288 614 292 616 q 281 610 285 614 q 275 600 277 606 q 269 587 273 594 q 260 575 265 580 q 250 564 256 570 q 241 554 245 558 q 234 546 237 550 q 223 531 230 541 q 202 501 216 522 q 168 440 189 481 q 131 362 148 400 q 112 309 115 323 q 110 302 111 305 q 107 298 109 299 q 105 290 106 297 q 102 272 103 282 q 99 252 101 261 q 96 240 98 243 q 93 222 94 237 q 89 188 91 207 q 86 152 87 169 q 85 130 85 136 q 87 117 86 127 q 89 96 88 108 q 92 73 90 84 q 94 58 93 62 q 104 -9 103 6 q 103 -16 104 -16 q 102 -17 102 -17 q 94 -14 100 -17 q 86 -8 90 -12 q 79 -2 82 -5 q 76 1 77 1 q 75 0 75 1 q 77 -7 75 -2 q 78 -15 78 -12 q 76 -18 77 -18 q 71 -17 75 -18 q 62 -16 66 -16 z "},")":{"ha":489,"x_min":0,"x_max":489,"o":"m 9 -14 q 10 -8 9 -12 q 13 -1 12 -5 q 15 3 15 2 q 15 5 15 5 q 14 6 15 6 l 11 6 q 1 12 2 6 q 0 15 0 14 q 8 30 0 22 q 13 36 12 33 q 14 41 14 39 l 14 43 q 13 47 13 45 q 15 49 13 49 q 18 47 16 49 q 22 47 20 47 q 24 50 24 47 l 24 50 q 26 53 24 52 q 29 54 27 54 l 32 54 q 41 58 37 54 q 47 70 47 63 q 54 81 47 73 q 73 100 62 90 q 105 130 85 110 q 146 170 126 150 q 181 203 165 190 q 201 218 197 217 q 208 223 204 219 q 213 233 211 228 q 220 246 216 239 q 229 258 224 253 q 238 269 233 263 q 248 279 243 275 q 255 288 252 283 q 266 302 258 292 q 287 332 273 312 q 321 393 300 353 q 358 472 341 433 q 377 524 374 510 q 379 531 378 528 q 381 535 380 534 q 384 544 382 536 q 387 562 385 551 q 389 581 387 572 q 393 593 391 590 q 396 611 394 597 q 400 645 398 626 q 402 677 401 665 q 404 694 404 689 q 403 703 404 701 q 402 715 403 706 q 400 737 401 725 q 397 760 399 749 q 395 776 396 771 q 385 842 386 827 l 385 845 q 387 850 385 849 l 387 850 q 394 847 389 850 q 402 842 398 845 q 409 836 407 838 q 412 831 412 831 q 413 833 413 831 q 412 840 413 835 q 411 847 411 844 q 412 850 411 849 q 414 850 412 850 q 423 849 418 850 q 444 840 439 847 q 450 813 448 833 q 455 791 452 801 q 461 777 458 781 q 467 765 465 772 q 469 750 469 758 q 475 732 469 736 q 483 723 480 730 q 485 709 485 715 q 481 698 485 701 q 477 694 477 695 l 477 693 q 482 688 477 691 q 488 681 487 685 q 489 670 489 677 l 489 663 q 486 648 488 654 q 483 642 484 642 q 479 627 479 640 q 480 614 479 621 q 481 597 481 606 q 467 516 481 565 q 461 494 465 505 q 457 478 458 484 q 412 376 452 460 q 405 363 409 371 q 396 349 400 355 q 385 330 392 342 q 372 308 378 319 q 355 282 366 297 q 334 253 345 267 q 315 229 323 240 q 304 214 307 218 q 297 207 301 210 q 291 203 294 204 q 286 199 288 201 q 283 195 283 197 q 266 172 283 191 q 225 129 248 153 q 182 87 201 105 q 156 66 162 68 q 147 61 151 63 q 144 56 144 58 q 138 47 144 53 q 117 31 133 42 q 101 18 110 25 q 87 4 93 10 q 66 -10 72 -10 q 64 -6 64 -10 q 62 -4 64 -4 q 59 -4 61 -3 q 56 -5 58 -5 q 56 -4 56 -5 q 57 0 56 -3 q 58 3 58 2 q 57 5 58 5 l 56 5 q 49 1 55 5 q 28 -13 42 -3 q 17 -18 20 -18 q 13 -18 14 -18 q 9 -14 9 -18 z "},"*":{"ha":448,"x_min":0,"x_max":448,"o":"m 437 899 q 447 890 445 895 q 448 884 448 888 q 446 872 448 880 q 429 861 444 866 q 399 857 414 857 l 395 857 q 367 856 383 857 q 339 853 351 854 q 323 849 326 851 q 319 838 321 848 q 315 817 317 828 q 313 798 313 805 q 313 791 313 794 q 311 789 312 789 q 309 787 309 789 q 310 783 309 786 q 313 773 311 780 q 317 760 316 767 q 317 754 317 757 q 317 750 317 752 q 312 743 315 745 l 309 743 q 300 744 306 743 q 292 745 295 745 q 286 742 286 745 q 283 739 286 740 l 281 739 q 277 740 279 739 q 273 741 274 741 q 271 739 271 741 q 271 736 271 738 q 273 731 273 733 q 271 730 273 730 q 261 736 269 730 q 254 740 257 739 q 252 741 253 741 q 252 740 252 741 q 247 744 251 740 q 237 754 243 747 q 226 767 231 761 q 222 774 222 773 q 220 779 222 777 q 216 784 218 782 q 211 790 213 787 q 210 798 210 794 q 203 806 210 806 q 198 805 203 806 q 188 793 193 804 q 184 784 186 787 q 181 782 182 782 l 180 782 q 173 780 178 782 q 161 774 168 778 q 127 761 135 761 q 123 764 123 761 l 123 765 q 125 769 125 768 q 123 771 125 771 q 108 762 119 771 q 95 756 100 756 q 91 758 94 756 q 83 778 87 760 q 81 791 81 786 q 81 795 81 792 q 86 803 81 798 q 99 820 93 811 q 109 834 104 828 q 111 841 111 840 l 111 842 q 109 842 111 842 q 105 842 109 842 q 98 840 102 841 q 88 837 93 838 l 81 837 q 74 839 79 838 q 61 841 68 840 q 10 878 10 850 l 10 880 q 8 884 10 881 q 4 890 7 887 q 0 899 0 895 q 4 909 0 903 q 24 918 8 914 q 38 921 30 918 q 50 926 45 923 q 62 929 56 929 l 63 929 q 74 926 68 929 q 85 924 81 924 q 90 926 89 924 q 102 929 92 929 q 121 928 110 929 q 147 926 135 926 q 174 929 159 926 q 195 939 189 931 q 201 944 198 942 q 206 947 204 947 q 211 951 208 947 q 214 961 213 955 q 218 973 215 967 q 224 982 220 979 q 227 989 227 985 q 228 991 228 990 q 227 993 228 992 q 227 994 227 994 l 227 994 q 231 994 229 994 q 234 993 233 993 q 250 1008 240 993 q 260 1021 256 1019 q 263 1023 261 1023 q 269 1021 266 1023 q 276 1018 272 1019 q 284 1017 281 1017 q 293 1014 287 1017 q 304 1007 298 1011 q 312 998 310 1002 q 316 986 315 994 q 317 962 317 978 l 317 926 l 330 926 q 338 924 334 926 q 343 920 342 923 q 347 917 345 918 q 353 915 350 915 q 359 914 357 915 q 361 911 361 913 q 367 908 361 909 q 380 907 372 907 q 396 908 392 907 q 399 914 399 910 q 401 918 399 918 l 401 918 q 407 912 402 918 q 414 905 411 906 l 415 905 q 420 907 417 905 q 424 910 422 910 q 425 908 425 910 q 428 903 425 906 q 437 899 432 901 z "},"+":{"ha":513,"x_min":0,"x_max":513,"o":"m 157 142 q 150 147 153 144 q 145 153 146 150 q 143 160 144 157 q 140 168 141 164 q 138 175 138 170 q 140 184 138 180 q 142 190 142 190 q 143 189 143 190 q 144 186 143 186 l 145 185 l 146 185 q 147 187 147 186 q 146 189 147 188 q 143 195 146 192 q 140 201 140 199 l 140 203 q 149 212 142 205 q 157 219 155 216 q 159 224 159 222 q 159 225 159 224 l 159 235 q 161 252 159 243 q 163 269 163 262 q 160 279 163 277 q 158 283 158 281 q 163 287 158 286 q 166 290 165 288 q 168 294 168 292 l 168 296 q 169 301 168 298 q 174 309 170 305 q 180 318 177 313 q 183 326 182 323 q 185 335 184 330 q 188 345 186 340 q 189 351 189 349 q 188 355 189 353 q 180 359 186 357 q 165 360 175 360 q 148 359 157 360 q 136 359 142 359 l 131 359 q 119 361 123 359 q 112 363 114 363 q 109 359 109 363 q 102 356 107 356 q 92 355 97 355 l 77 355 q 66 356 71 356 q 55 355 60 356 q 43 353 45 355 q 39 353 41 353 q 20 359 33 353 q 5 372 6 367 q 4 379 4 378 q 13 389 4 386 q 19 393 19 391 q 9 397 19 395 q 3 399 6 398 q 0 399 1 399 q 5 403 0 400 q 21 409 11 405 q 91 425 52 419 q 167 431 131 431 l 179 431 q 212 433 202 431 q 223 444 223 437 l 223 445 q 222 454 222 450 q 227 465 222 465 q 229 465 227 465 q 231 464 230 464 q 231 466 231 464 q 231 471 231 467 q 230 474 230 472 q 241 490 230 481 q 251 498 246 494 q 258 501 256 501 q 260 504 260 501 q 258 511 260 507 q 256 519 256 515 q 260 530 256 525 q 265 539 263 534 q 268 547 267 544 q 271 553 269 550 q 277 558 274 556 q 286 564 281 559 q 293 574 290 569 q 302 584 299 583 q 306 586 305 586 q 309 581 309 586 q 311 579 309 579 q 316 581 313 579 q 321 583 319 583 q 325 582 323 583 q 335 574 329 581 q 345 561 345 564 q 346 556 346 557 q 340 540 346 549 q 335 526 338 535 q 330 509 332 517 q 324 494 327 501 q 319 484 321 487 q 312 469 316 480 q 307 449 309 458 q 305 437 305 441 q 306 435 305 435 q 307 434 307 434 q 309 435 308 434 q 314 437 311 435 q 319 440 317 440 q 323 438 321 440 q 353 435 326 435 l 372 435 q 395 436 385 436 q 409 435 404 436 q 421 431 420 434 q 429 428 422 428 q 444 427 436 427 l 462 427 q 490 428 478 428 q 505 426 503 427 q 513 412 513 420 q 511 401 513 407 q 485 379 504 386 q 460 375 478 377 q 423 371 443 373 q 389 370 403 370 q 379 368 384 370 q 373 366 375 367 q 362 363 370 363 q 345 365 355 363 q 327 367 335 367 q 308 363 316 367 q 297 361 302 361 q 289 360 292 360 l 283 360 q 269 352 276 360 q 259 330 261 342 q 256 319 258 326 q 252 307 254 313 q 247 296 249 302 q 245 288 245 290 q 243 279 245 285 q 239 267 241 273 q 227 239 231 249 q 221 222 222 229 q 218 210 219 216 q 211 184 216 199 q 200 158 205 170 q 191 142 195 146 q 188 140 189 140 l 187 140 l 187 148 q 186 157 187 153 q 182 162 184 161 q 180 163 180 163 q 178 161 178 163 l 179 160 l 179 159 q 178 154 179 157 q 174 147 177 151 q 168 141 170 142 q 163 140 165 140 q 157 142 161 140 m 190 174 q 189 177 190 176 q 187 178 188 178 q 186 178 186 178 q 184 175 184 176 q 184 173 184 174 l 184 171 q 188 168 186 168 q 190 174 190 168 z "},",":{"ha":242,"x_min":0,"x_max":242,"o":"m 9 60 q 1 68 1 64 q 0 75 0 73 q 5 92 0 83 q 28 107 11 98 q 62 120 46 116 q 85 127 73 122 q 108 139 98 133 q 121 149 118 144 q 128 159 122 151 q 142 175 134 166 q 157 195 150 184 q 169 214 165 206 q 180 238 176 230 q 185 249 184 247 q 189 251 187 251 l 191 251 q 194 252 192 251 q 201 259 197 255 q 211 269 207 267 q 216 270 215 270 q 219 266 219 270 q 222 263 219 264 q 229 260 225 261 q 240 252 238 257 q 242 244 242 248 q 239 235 242 239 q 238 227 238 231 q 239 220 238 224 q 241 214 241 218 q 240 207 241 211 q 235 186 239 197 q 226 168 231 175 q 221 159 223 163 q 219 151 219 154 q 210 134 219 145 q 191 114 201 123 q 174 105 180 105 q 164 98 164 105 q 138 77 163 90 q 118 68 125 71 q 109 64 111 64 q 106 63 107 63 q 105 64 106 63 q 106 66 105 64 q 107 69 107 68 l 107 70 q 105 71 107 71 q 102 69 103 71 q 100 64 100 67 q 97 60 100 60 q 94 60 96 60 q 90 61 92 61 q 90 60 90 61 l 90 60 q 79 56 90 58 q 54 56 69 56 q 26 57 39 56 q 9 60 13 58 z "},"-":{"ha":457,"x_min":0,"x_max":457,"o":"m 28 377 q 25 379 26 378 q 24 381 24 380 l 24 383 q 23 386 24 385 q 16 389 21 387 q 3 401 5 393 q 0 414 0 410 q 4 426 0 420 q 9 433 9 431 l 9 434 q 6 437 9 436 q 3 441 3 439 q 45 446 3 446 q 75 448 66 447 q 84 453 83 450 q 90 457 86 456 q 98 458 94 458 q 104 457 100 458 q 115 453 111 456 q 129 449 119 450 q 149 448 140 448 q 161 448 157 448 q 176 449 170 448 q 188 452 186 450 q 192 454 189 454 q 203 450 196 454 q 217 446 208 448 q 234 445 225 445 q 248 447 243 445 q 252 450 252 448 l 252 454 q 254 454 252 454 q 257 453 256 454 q 260 451 259 452 q 287 447 261 449 q 349 444 312 446 q 415 441 387 443 q 448 437 443 439 q 457 433 456 434 q 457 432 457 433 q 452 427 457 430 q 447 421 447 423 q 449 420 447 420 q 452 419 452 420 q 448 414 452 418 q 443 408 445 411 q 441 404 441 405 q 439 401 441 402 q 435 399 437 399 q 430 398 433 399 q 427 395 428 397 q 401 389 425 390 q 383 387 391 389 q 372 384 375 386 q 348 381 370 382 q 293 379 326 379 q 213 378 260 378 q 126 376 166 377 q 59 376 87 376 q 28 377 31 376 z "},".":{"ha":162,"x_min":0,"x_max":162,"o":"m 39 175 q 21 192 29 179 q 12 216 12 205 q 11 225 12 221 q 7 231 9 230 q 4 237 5 231 q 1 252 2 243 q 0 262 0 258 l 0 266 q 3 273 0 271 q 12 279 5 276 q 24 290 24 288 q 22 291 24 291 q 16 290 20 291 q 11 290 13 290 q 8 291 8 290 q 9 292 8 292 q 24 304 11 297 q 37 310 31 307 q 46 315 43 313 q 75 330 67 327 q 87 333 83 333 q 90 332 89 333 q 95 330 93 332 q 97 326 97 328 q 101 324 97 324 q 108 324 104 324 l 115 324 q 125 325 121 325 l 129 325 q 137 320 133 324 q 148 304 141 315 q 162 264 162 281 q 155 243 162 252 q 150 236 151 239 q 149 232 149 233 q 149 231 149 231 q 150 228 150 229 q 148 222 150 226 q 140 213 145 217 q 132 208 136 208 q 125 205 128 208 q 120 199 122 203 q 114 192 118 195 q 106 188 111 189 q 98 185 102 187 q 92 181 94 183 q 83 175 87 175 q 81 178 81 175 q 81 181 81 179 q 82 184 82 183 q 81 185 82 185 q 76 183 79 185 q 47 174 58 174 q 39 175 43 174 z "},"/":{"ha":744,"x_min":0,"x_max":744,"o":"m 9 -150 q 2 -141 3 -144 q 0 -134 0 -138 l 0 -132 q 3 -117 0 -127 q 8 -101 5 -108 q 14 -93 11 -94 q 18 -90 16 -92 q 20 -84 20 -87 q 23 -76 20 -81 q 31 -64 26 -70 q 38 -53 35 -59 q 41 -41 41 -46 q 43 -32 41 -37 q 48 -24 45 -27 q 56 -14 52 -20 q 64 -1 60 -8 q 77 23 72 15 q 84 34 81 31 q 90 36 87 36 q 94 37 92 36 q 96 41 96 39 q 102 59 96 45 q 117 87 109 73 q 128 103 125 100 q 134 112 130 104 q 144 130 138 120 q 154 150 149 140 q 163 162 159 159 q 172 174 166 165 q 183 193 178 182 q 192 209 188 202 q 198 217 197 216 q 200 221 199 218 q 201 227 201 224 q 205 239 201 232 q 213 251 208 246 q 220 256 217 256 q 227 261 222 256 q 235 276 231 267 q 251 308 243 295 q 262 323 258 321 q 264 326 263 323 q 265 330 265 328 q 266 335 265 333 q 269 336 267 336 q 272 339 271 336 q 273 345 273 341 q 275 350 273 347 q 280 355 277 353 q 283 357 283 356 q 284 360 284 359 l 284 361 q 283 363 283 362 q 285 368 283 365 q 291 376 287 372 q 299 386 295 380 q 305 397 303 393 q 311 408 307 403 q 319 415 315 412 q 329 426 323 417 q 342 446 336 435 q 352 465 349 457 q 355 475 355 473 q 355 477 355 477 l 355 478 q 357 484 355 479 q 366 499 360 491 q 375 513 372 507 q 379 520 379 519 q 382 525 379 521 q 389 533 385 528 q 397 544 394 538 q 400 553 400 549 q 405 563 400 556 q 416 576 409 570 q 427 590 422 583 q 432 599 431 596 q 442 626 433 612 q 458 643 450 640 q 468 654 468 646 q 472 663 468 656 q 482 676 476 670 q 496 694 492 686 q 503 719 500 703 q 506 726 503 722 q 513 732 509 730 q 520 736 517 734 q 523 739 523 738 l 523 743 q 524 748 523 746 q 528 751 524 751 q 534 754 530 751 q 541 764 538 758 q 550 776 545 770 q 558 787 555 783 q 567 800 562 791 q 575 819 572 809 q 593 847 583 843 q 600 852 597 849 q 602 858 602 855 l 602 859 q 606 865 602 861 q 615 877 609 871 q 624 887 621 882 q 627 894 627 892 q 627 896 627 895 l 627 897 q 628 901 627 899 q 635 907 631 905 q 643 913 640 909 q 646 919 646 916 q 647 926 646 922 q 647 932 647 929 q 662 949 649 949 q 677 965 669 949 q 691 979 685 979 l 692 979 q 698 980 696 979 q 700 983 700 981 q 705 985 700 985 q 712 985 708 985 q 728 978 722 982 q 739 962 733 974 q 743 955 743 957 q 744 951 744 952 q 743 943 744 948 q 734 926 740 938 q 722 905 729 916 q 709 887 715 894 q 700 874 703 880 q 696 867 696 869 q 679 838 696 865 q 638 777 661 811 q 597 717 615 743 q 577 691 579 691 q 572 686 576 691 q 565 673 568 681 q 558 659 562 665 q 553 652 555 653 q 547 644 551 650 q 540 630 543 637 q 532 616 536 622 q 526 608 528 610 q 520 604 523 608 q 517 596 518 600 q 511 584 515 592 q 500 568 507 576 q 489 551 494 560 q 481 537 484 543 q 471 518 479 532 q 452 490 463 505 q 436 464 443 475 q 430 450 430 452 q 429 448 430 449 q 426 446 427 446 q 422 443 425 446 q 418 434 420 439 q 413 424 416 429 q 408 416 410 419 q 399 405 405 414 q 387 385 393 396 q 376 366 381 374 q 368 353 370 357 q 357 340 365 351 q 342 315 350 329 q 302 251 316 273 q 281 220 288 229 q 268 200 276 214 q 252 172 260 186 q 237 143 245 156 q 224 127 229 131 q 217 119 220 123 q 214 113 214 115 q 207 99 214 112 q 189 71 199 87 q 171 42 178 55 q 163 26 163 29 q 162 21 163 24 q 157 18 160 19 q 152 13 155 17 q 149 3 150 8 q 145 -6 147 -3 q 141 -10 143 -10 q 138 -12 138 -10 l 139 -13 q 140 -14 140 -14 q 138 -18 140 -16 q 130 -26 135 -22 q 118 -43 125 -32 q 104 -66 111 -54 q 94 -87 99 -79 q 87 -95 88 -95 q 84 -96 85 -95 q 84 -98 84 -97 l 84 -100 q 85 -104 85 -102 q 82 -113 85 -109 q 73 -120 78 -120 q 67 -123 70 -120 q 64 -131 65 -126 q 61 -138 62 -135 q 58 -141 59 -141 q 55 -144 56 -141 q 54 -151 54 -146 q 52 -156 54 -155 q 49 -157 51 -157 q 44 -157 47 -157 q 36 -156 41 -156 q 28 -158 31 -157 q 24 -159 26 -159 q 20 -159 22 -159 q 9 -150 16 -157 z "},":":{"ha":282,"x_min":0,"x_max":282,"o":"m 121 304 q 126 294 122 300 q 134 281 130 288 q 141 267 140 273 q 142 259 142 263 q 141 250 142 255 q 117 204 136 212 q 108 197 113 202 q 100 188 103 193 q 93 178 97 182 q 85 173 89 174 q 78 170 82 172 q 70 167 73 168 q 64 165 66 165 q 65 167 64 165 q 66 168 66 168 q 64 170 66 169 l 62 170 q 56 169 60 170 q 47 166 52 168 q 39 162 42 164 q 35 160 36 160 q 33 162 33 160 q 31 165 33 163 q 25 168 28 168 q 18 172 22 170 q 14 178 15 175 q 11 186 13 182 q 7 195 9 191 q 5 204 5 199 l 5 207 q 5 211 5 209 q 6 216 6 214 q 3 220 5 219 q 0 228 0 223 q 1 234 0 230 q 8 245 1 239 q 13 252 12 248 q 14 256 14 254 q 14 258 14 257 l 14 260 q 25 272 14 265 q 39 280 31 275 q 53 289 47 285 q 65 296 60 293 q 74 298 71 298 q 80 300 77 298 q 87 304 84 302 q 99 311 92 309 l 104 311 q 114 309 109 311 q 121 304 119 308 m 271 607 q 282 565 282 583 q 267 534 282 545 q 263 529 265 532 q 262 524 262 526 q 258 518 262 522 q 250 513 255 515 q 241 508 245 511 q 236 505 237 506 q 230 501 235 504 q 216 494 224 498 q 202 488 205 488 l 201 488 q 198 491 198 488 q 196 495 198 495 q 186 490 194 495 q 168 484 175 485 l 165 484 q 161 486 161 484 q 162 488 161 488 q 163 491 163 490 l 162 492 q 159 492 161 492 q 151 496 155 492 q 143 505 146 500 q 141 509 141 507 q 142 511 141 510 q 142 513 142 511 q 141 515 142 513 q 137 519 140 517 q 132 529 132 524 q 132 532 132 530 l 133 535 q 132 539 133 537 q 129 545 132 542 q 126 550 127 547 q 125 554 125 552 l 125 556 q 137 573 128 564 q 155 586 146 583 q 162 594 162 589 l 162 598 q 166 607 162 602 q 180 613 171 611 q 194 616 184 614 q 215 623 203 619 q 244 631 235 630 l 248 631 q 260 626 256 631 q 271 607 265 621 z "},";":{"ha":359,"x_min":0,"x_max":359,"o":"m 201 260 q 214 249 211 260 q 216 233 216 243 q 214 208 216 223 q 208 172 212 186 q 193 135 203 157 q 178 108 183 115 q 170 101 173 101 l 169 101 q 165 102 167 102 q 163 100 163 102 l 163 98 q 157 85 163 93 q 141 69 151 77 q 126 62 132 62 q 117 59 121 62 q 109 53 112 57 q 100 46 106 50 q 88 41 94 43 q 79 38 82 39 q 76 39 76 38 q 77 41 76 40 q 77 43 77 42 q 76 45 77 45 q 59 36 72 45 q 38 28 48 28 q 18 36 28 28 q 12 44 12 41 l 12 46 q 14 53 12 49 q 17 60 17 58 q 17 61 17 60 q 9 62 16 62 l 0 62 l 10 69 q 23 78 15 73 q 41 87 32 83 q 78 115 60 98 q 104 144 96 131 q 112 155 106 149 q 121 163 117 160 q 130 173 130 168 q 129 176 130 174 q 127 185 127 181 q 129 195 127 189 q 138 201 131 201 q 146 210 146 201 l 146 212 q 149 228 146 218 q 157 244 153 237 q 165 252 162 252 q 170 255 167 252 q 177 264 174 259 q 188 275 183 274 l 189 275 q 193 267 193 275 q 195 262 193 264 q 201 260 197 260 m 353 583 q 359 566 359 570 l 359 564 q 356 555 359 559 q 351 544 353 551 q 347 532 349 538 q 336 510 344 519 q 322 501 329 501 q 317 497 320 501 q 311 488 313 494 q 305 479 309 483 q 298 475 302 476 q 291 474 296 475 q 283 469 287 472 q 273 464 277 464 l 273 464 q 264 467 269 464 q 259 469 262 469 l 258 469 q 255 469 256 469 l 253 469 q 247 469 251 469 q 235 471 243 469 q 210 487 221 475 q 195 512 199 498 q 187 555 187 542 q 189 566 187 558 q 206 579 190 573 q 214 584 214 583 l 212 584 q 210 583 211 583 q 206 585 207 583 q 205 588 205 587 q 207 592 205 589 q 214 598 208 595 q 228 604 218 600 q 250 612 238 608 q 272 618 262 615 q 283 623 281 622 q 302 628 291 629 q 322 624 313 628 q 332 612 332 620 q 334 608 332 610 q 338 604 336 605 q 345 597 340 603 q 353 583 349 591 z "},"<":{"ha":623,"x_min":0,"x_max":623,"o":"m 465 151 q 459 153 463 152 q 450 155 454 155 q 438 157 444 155 q 429 162 433 159 q 423 167 426 165 q 418 168 420 168 l 413 168 q 410 171 411 169 q 407 173 409 172 q 403 174 405 174 l 399 173 l 397 173 q 383 182 391 173 q 375 190 380 186 q 368 193 371 193 q 363 194 366 193 q 359 197 360 195 q 354 199 358 198 q 347 199 350 199 q 340 199 344 199 l 326 199 q 313 201 318 199 q 303 205 309 203 q 293 208 298 207 q 282 210 288 208 q 272 215 276 212 q 264 219 267 218 q 260 220 262 220 q 259 220 260 220 l 254 220 q 245 222 250 220 q 233 226 240 224 q 220 229 226 228 q 140 243 203 231 q 121 247 131 245 q 106 248 112 248 q 98 249 102 248 q 92 252 94 250 q 90 254 92 254 l 89 254 q 86 254 87 254 l 85 254 q 81 254 83 254 q 73 258 77 255 q 66 261 68 260 q 62 262 63 262 q 60 262 60 262 q 56 261 58 261 q 52 262 54 261 q 41 269 46 264 q 34 278 36 273 q 27 285 33 285 q 24 284 26 285 q 18 283 20 283 q 1 318 2 283 q 0 332 0 326 q 1 341 0 337 q 7 356 2 350 q 12 366 10 361 q 14 373 14 371 q 17 380 14 376 q 23 388 20 384 q 31 397 26 392 q 38 405 35 401 q 46 411 41 408 q 57 415 52 414 q 66 418 62 416 q 69 420 69 419 q 75 427 69 423 q 88 433 80 430 q 103 437 96 435 q 116 440 109 437 q 127 446 123 443 q 136 451 132 450 q 141 452 139 452 q 144 452 142 452 l 145 452 q 154 453 149 452 q 170 459 161 455 q 188 467 180 464 q 213 474 196 470 q 268 488 231 479 q 309 498 291 494 q 334 505 328 503 q 406 522 355 512 q 420 525 413 523 q 431 530 427 528 q 447 535 435 532 q 474 543 459 539 q 503 551 489 547 q 522 558 516 555 q 537 564 528 562 q 555 568 547 567 q 571 572 564 570 q 582 575 578 574 q 586 576 585 576 q 589 572 589 576 q 593 566 589 569 q 602 560 597 562 q 614 546 614 555 q 616 538 614 542 q 620 532 618 534 q 623 528 623 529 q 620 526 623 526 q 615 524 618 526 q 610 516 612 521 q 536 480 600 498 q 507 472 524 477 q 477 463 490 467 q 452 456 465 458 q 433 453 439 453 q 420 450 427 452 q 410 445 414 448 q 401 440 406 442 q 392 437 396 437 q 381 436 388 437 q 368 432 374 435 q 354 427 362 429 q 338 423 345 425 q 319 419 330 422 q 298 413 308 416 q 271 404 288 409 q 239 395 254 399 q 208 387 223 391 q 186 378 193 382 q 119 354 129 354 q 117 355 117 354 q 115 355 116 355 q 111 354 113 355 q 104 348 107 352 q 98 338 98 342 q 102 332 98 335 q 140 321 110 326 q 170 315 154 318 q 194 311 185 313 q 224 305 203 309 q 266 296 244 300 q 305 287 288 291 q 328 283 323 283 q 351 276 337 281 q 376 264 364 271 q 389 254 387 258 q 396 250 391 250 q 401 250 398 250 q 409 251 406 251 q 428 247 418 251 q 454 229 443 241 q 466 218 463 218 q 468 219 467 218 q 471 221 469 221 q 477 220 474 221 q 493 212 485 217 q 505 200 502 206 q 511 195 507 197 q 517 193 514 193 l 518 193 q 526 182 526 193 q 526 174 526 178 q 528 167 527 169 q 530 161 530 164 q 494 148 530 149 l 475 148 q 465 151 466 149 z "},"=":{"ha":463,"x_min":0,"x_max":463,"o":"m 414 298 q 423 295 422 298 q 424 293 424 294 q 419 288 424 291 q 416 283 417 286 l 416 277 q 417 273 417 275 q 417 270 417 272 q 415 269 416 269 q 411 267 414 269 q 405 262 408 264 q 397 257 402 259 q 387 254 391 254 q 377 253 381 254 q 370 251 372 252 q 315 249 366 250 l 262 249 q 185 249 233 249 q 87 250 136 249 q 37 252 39 250 l 37 252 q 33 256 37 254 q 20 262 28 259 q 6 270 12 266 q 0 277 1 274 q 8 288 0 282 q 26 294 16 294 l 27 294 q 29 296 29 294 q 23 302 29 297 q 17 307 18 306 q 24 310 17 309 q 48 313 31 311 q 154 315 91 315 q 213 315 166 315 q 326 312 260 315 q 400 302 391 308 q 406 299 402 300 q 414 298 410 298 m 440 464 q 460 456 456 460 q 463 446 463 452 q 463 437 463 442 q 459 428 462 430 q 451 425 456 425 q 441 418 441 425 q 430 407 441 411 q 420 406 425 406 q 407 408 414 406 q 396 410 401 410 l 393 410 q 389 409 390 410 q 375 407 386 408 q 350 406 364 406 q 299 404 334 405 q 225 402 264 404 q 170 401 191 401 q 146 401 159 401 q 132 405 132 401 q 128 408 130 408 q 125 406 126 408 q 114 401 123 404 q 93 398 105 399 q 73 397 80 397 q 67 397 71 397 q 62 401 63 397 q 59 406 61 404 q 54 408 56 408 q 46 412 51 408 q 37 422 41 416 q 32 434 33 429 l 32 435 q 40 446 32 442 q 47 449 47 448 q 39 452 47 450 q 31 456 31 454 q 119 467 31 462 q 237 469 168 469 l 282 469 q 375 468 326 469 q 440 464 423 467 z "},">":{"ha":623,"x_min":0,"x_max":623,"o":"m 33 143 q 30 149 33 146 q 20 155 26 152 q 8 169 8 159 q 6 177 8 173 q 3 183 5 181 q 0 187 0 186 q 3 189 0 189 q 8 191 5 189 q 13 199 11 194 q 86 235 22 217 q 116 243 99 238 q 145 252 132 248 q 171 259 158 256 q 190 262 183 262 q 202 264 196 262 q 213 270 209 267 q 221 275 216 273 q 231 277 227 277 q 241 279 235 277 q 254 283 248 280 q 269 288 260 286 q 285 292 277 290 q 303 296 292 293 q 325 302 315 299 q 352 310 335 305 q 384 319 368 315 q 414 328 399 323 q 437 336 429 333 q 504 361 494 361 q 506 360 505 361 q 508 359 507 359 q 511 361 509 359 q 519 367 515 363 q 524 376 524 372 q 521 382 524 380 q 483 394 513 389 q 453 399 469 397 q 429 404 437 402 q 399 410 419 406 q 357 419 378 414 q 317 428 335 424 q 294 432 300 431 q 272 439 286 433 q 247 451 258 444 q 233 461 235 457 q 227 465 232 465 q 221 465 224 465 q 214 464 217 464 q 195 468 205 464 q 169 486 180 474 q 156 496 159 496 q 155 496 155 496 q 151 494 154 494 q 145 495 149 494 q 129 503 138 498 q 117 515 121 509 q 112 520 115 518 q 105 522 109 522 l 104 522 q 97 532 97 522 q 96 541 97 536 q 94 548 96 546 q 93 553 93 551 q 128 567 93 566 q 139 568 134 568 q 148 567 144 568 q 158 564 157 566 q 163 562 159 563 q 173 560 168 560 q 184 558 178 560 q 193 553 190 556 q 199 548 197 549 q 204 547 202 547 l 205 547 l 208 547 l 210 547 q 212 544 212 546 q 216 542 214 543 q 220 542 218 542 l 226 542 q 239 533 232 542 q 247 525 243 528 q 254 522 252 522 q 260 521 257 522 q 263 518 262 520 q 269 516 264 517 q 276 516 273 516 l 283 516 l 290 517 l 297 516 q 309 513 304 515 q 319 510 313 511 q 330 507 325 508 q 340 505 334 507 q 351 500 347 503 q 358 495 355 496 q 362 494 361 494 q 363 495 363 494 q 366 496 364 496 q 369 495 367 496 q 378 492 372 494 q 390 489 382 491 q 403 486 397 487 q 482 471 419 484 q 501 468 492 469 q 516 467 511 467 q 525 466 521 467 q 530 463 529 465 q 532 460 531 461 l 534 460 q 536 461 535 460 l 538 461 q 542 460 539 461 q 550 457 546 460 q 557 454 554 454 q 561 453 560 453 l 563 453 q 566 454 564 454 q 571 453 568 454 q 582 446 576 450 q 589 437 587 441 q 595 430 590 430 q 599 431 597 430 q 605 431 602 431 q 622 397 621 431 q 623 384 623 389 q 622 374 623 378 q 616 359 621 365 q 610 349 612 353 q 608 342 608 344 q 606 335 608 339 q 601 328 604 332 q 593 319 597 324 q 586 311 589 315 q 577 304 583 307 q 566 300 571 301 q 557 297 560 298 q 553 294 553 296 q 548 288 553 292 q 535 282 543 285 q 519 278 527 279 q 506 275 513 277 q 495 269 499 272 q 487 264 490 265 q 481 262 484 262 q 479 263 480 262 l 477 263 q 469 262 474 263 q 453 256 461 260 q 435 248 443 251 q 409 240 427 245 q 355 227 392 236 q 313 216 332 221 q 289 210 295 212 q 217 193 267 203 q 202 190 210 192 q 191 185 195 187 q 176 179 188 183 q 149 172 163 176 q 120 164 134 168 q 100 157 106 159 q 85 151 95 153 q 68 146 76 148 q 52 143 59 145 q 41 140 44 141 q 37 138 38 138 q 33 143 33 138 z "},"?":{"ha":684,"x_min":0,"x_max":684,"o":"m 108 102 q 116 93 115 102 l 116 90 q 111 72 116 82 q 107 60 107 64 q 109 56 107 57 q 113 49 113 54 q 112 44 113 48 q 105 33 111 40 q 100 27 102 30 q 98 24 98 26 q 99 23 98 24 l 99 22 q 95 12 99 20 q 85 -8 92 3 q 73 -26 79 -19 q 67 -33 69 -30 q 65 -37 65 -36 q 66 -42 66 -38 q 66 -52 66 -46 q 64 -62 66 -60 q 54 -64 62 -64 q 39 -73 41 -64 q 30 -82 37 -82 q 12 -73 23 -82 l 12 -72 q 2 -61 5 -66 q 0 -49 0 -57 q 0 -40 0 -47 q 3 -6 0 -33 l 3 -4 q 5 0 3 -3 q 9 5 7 3 q 15 13 13 8 q 18 22 17 18 q 27 49 20 35 q 40 72 33 64 q 48 84 44 76 q 56 98 53 92 q 64 111 62 111 q 65 108 64 111 q 71 101 66 101 q 81 107 74 101 q 95 113 90 113 q 100 107 100 113 q 102 104 100 105 q 106 102 104 102 l 108 102 m 683 965 q 684 934 684 955 q 683 895 684 913 q 680 872 682 876 q 674 862 677 869 q 669 844 671 854 q 627 753 659 807 q 620 741 623 747 q 618 735 618 737 q 619 733 618 734 q 620 732 620 732 q 619 731 620 731 q 616 732 618 731 q 613 734 614 734 q 612 732 612 734 q 613 728 612 731 q 614 725 614 726 q 613 724 614 724 l 610 724 q 604 720 608 724 q 595 709 600 715 q 591 698 591 702 q 589 694 591 696 q 585 692 587 692 q 579 689 582 692 q 574 680 576 685 q 570 670 572 674 q 566 667 567 667 q 562 665 564 667 q 561 661 561 663 q 558 654 561 659 q 551 647 555 650 q 544 640 547 644 q 539 635 541 637 q 527 619 538 632 q 500 589 515 606 q 472 558 485 572 q 453 541 458 545 q 443 531 450 538 q 428 517 435 524 q 411 501 421 510 q 394 486 401 492 q 370 465 387 479 q 335 433 353 450 q 303 404 317 416 q 284 388 289 391 q 268 374 280 385 q 243 349 256 363 q 219 326 229 335 q 206 316 208 316 q 203 315 204 316 l 203 312 q 202 308 203 311 q 197 303 201 306 q 189 295 193 300 q 182 283 185 290 q 177 274 180 277 q 172 270 174 270 q 169 268 170 270 q 168 264 168 267 q 166 259 168 262 q 161 253 164 256 q 155 240 159 250 q 149 219 152 231 q 136 187 141 187 q 132 193 134 187 q 125 201 130 201 l 124 201 q 119 196 121 201 q 113 190 117 190 q 91 202 105 190 q 74 224 77 214 q 73 229 73 227 q 80 237 73 235 q 85 240 83 238 q 86 242 86 241 l 86 247 q 86 256 86 250 q 87 273 86 262 q 93 295 90 287 q 104 311 96 304 q 114 322 110 317 q 117 329 117 328 q 119 334 117 331 q 125 342 121 338 q 135 353 128 345 q 149 370 142 361 q 214 437 173 397 q 292 508 256 476 q 335 540 329 540 q 340 542 338 540 q 344 547 343 545 q 351 559 346 552 q 363 572 357 566 q 372 578 369 578 q 383 587 373 578 q 405 608 393 596 q 425 630 416 620 q 434 641 434 640 q 441 648 434 642 q 457 662 448 654 q 474 678 467 670 q 482 690 481 686 q 490 703 484 694 q 506 720 497 711 q 521 737 515 729 q 527 749 527 745 q 534 765 528 757 q 551 779 541 774 q 556 784 554 781 q 559 790 559 787 q 560 797 559 793 q 560 803 560 800 q 563 808 561 806 q 567 810 564 810 q 573 813 570 810 q 578 820 576 816 q 584 828 581 824 q 589 833 587 831 q 593 839 591 835 q 595 846 595 842 q 596 855 595 850 q 601 864 598 860 q 605 874 604 867 q 607 886 607 880 q 609 901 608 893 q 614 913 611 908 q 621 955 621 927 q 619 981 621 967 q 607 1003 618 998 q 590 1009 597 1009 q 578 1002 583 1009 q 573 997 576 997 q 569 999 571 997 q 538 1003 562 1003 q 488 999 514 1002 q 451 991 463 996 q 438 986 445 988 q 428 984 432 984 q 419 982 424 984 q 411 978 414 980 q 402 973 407 975 q 393 971 397 971 q 380 967 389 971 q 363 958 372 964 q 347 949 354 953 q 337 946 339 946 q 329 943 334 946 q 317 935 323 940 q 307 928 312 930 q 300 925 302 925 q 290 919 299 925 q 269 906 280 913 q 249 893 257 899 q 240 886 240 887 q 233 876 239 883 q 217 863 226 869 q 201 852 208 856 q 193 846 197 850 q 186 840 188 842 q 180 832 183 836 q 175 827 178 829 q 167 815 173 824 q 153 793 161 806 q 141 774 146 782 q 135 764 136 766 q 134 764 135 764 q 132 765 134 764 q 130 768 131 766 q 128 774 129 771 l 128 778 l 129 779 l 128 779 q 125 778 127 779 q 118 775 123 778 q 104 772 111 772 q 92 774 99 772 q 83 789 84 777 l 83 798 q 84 811 83 805 q 89 821 85 817 q 95 830 91 824 q 104 842 100 836 q 116 857 109 849 q 127 871 122 865 q 137 884 132 877 q 145 896 142 891 q 170 921 150 905 q 212 953 190 938 q 247 973 235 968 q 254 977 251 974 q 258 982 257 979 q 262 986 259 985 q 269 988 266 988 q 275 989 273 988 q 278 991 278 990 q 282 995 278 994 q 292 998 286 997 q 308 1003 298 1000 q 326 1011 317 1006 q 392 1039 355 1025 q 459 1063 429 1053 q 494 1072 486 1072 l 495 1072 q 502 1073 497 1072 q 513 1076 507 1074 q 526 1080 522 1080 q 529 1080 526 1080 q 537 1073 531 1080 q 549 1065 545 1066 q 551 1064 551 1064 q 552 1065 552 1064 q 551 1068 552 1066 q 550 1069 550 1069 q 553 1073 550 1072 q 558 1074 555 1074 q 563 1073 559 1074 q 570 1070 567 1073 q 576 1067 572 1067 q 580 1066 578 1066 q 584 1067 582 1066 q 588 1067 586 1067 q 593 1067 590 1067 q 597 1065 595 1066 q 603 1060 598 1063 q 613 1054 607 1057 q 628 1044 620 1050 q 643 1033 637 1038 q 650 1024 650 1027 q 654 1015 650 1023 q 665 998 659 1008 q 677 978 672 987 q 683 965 682 968 z "},"@":{"ha":815,"x_min":0,"x_max":815,"o":"m 798 669 q 810 644 806 653 q 814 624 814 635 q 815 595 815 614 q 810 528 814 560 q 799 479 806 496 q 782 442 791 462 q 765 407 772 422 q 756 392 758 392 q 752 388 754 392 q 748 378 749 383 q 747 370 747 373 l 747 370 q 744 365 747 368 q 735 357 741 361 q 727 349 730 353 q 725 345 725 346 l 725 345 q 718 334 725 342 q 700 314 711 326 q 681 295 690 303 q 670 287 672 287 q 665 283 669 287 q 657 275 661 280 q 647 265 653 270 q 635 257 640 260 q 620 248 630 254 q 598 235 609 242 q 527 196 557 211 q 492 183 500 183 l 490 183 q 487 184 488 184 q 480 179 482 184 q 475 174 479 176 q 465 172 471 172 q 455 171 460 172 q 448 166 450 169 q 441 162 446 163 q 433 160 437 160 q 428 161 431 161 q 415 160 424 161 q 394 159 407 159 q 376 158 385 158 q 363 158 372 158 q 348 160 355 159 q 337 161 341 161 q 333 161 336 161 q 328 157 330 161 q 320 153 325 153 q 314 152 317 152 q 306 153 311 152 q 290 155 295 155 q 285 156 287 156 q 279 156 282 156 q 273 154 277 155 q 269 153 271 153 q 262 154 266 153 q 254 157 258 155 q 244 161 250 159 q 240 161 242 161 q 236 161 238 161 l 233 161 q 225 161 231 161 q 212 164 219 162 q 196 169 205 167 q 180 171 187 170 q 140 188 165 172 q 119 201 130 195 q 102 210 109 208 q 77 234 92 215 q 54 271 62 253 q 48 277 53 273 q 37 284 43 281 q 25 292 28 288 q 24 298 24 294 q 24 303 24 300 l 24 307 q 17 331 24 318 q 11 342 13 337 q 9 347 9 346 q 10 349 9 349 q 11 352 11 351 q 10 357 11 353 q 6 365 9 360 q 3 376 3 372 l 3 377 q 5 382 3 380 q 7 389 7 386 q 5 393 7 391 q 0 405 0 399 q 9 423 0 414 q 15 438 15 429 q 10 463 16 446 q 9 467 9 465 q 16 481 9 474 q 23 490 20 485 q 25 499 25 495 q 24 508 24 504 q 26 519 24 514 q 34 532 27 525 q 40 540 37 536 q 42 547 42 545 q 44 551 42 549 q 48 553 46 553 q 55 563 54 553 q 76 595 55 573 q 91 611 85 604 q 97 621 97 619 q 110 638 97 625 q 141 667 123 652 q 175 693 159 682 q 194 705 190 705 q 197 706 196 705 q 199 709 199 707 q 201 712 199 711 q 206 713 203 713 q 215 716 209 714 q 226 722 220 718 q 251 735 232 726 q 294 758 270 745 q 341 784 317 770 q 378 808 365 798 q 405 827 394 821 q 426 834 415 833 q 443 837 435 835 q 456 842 452 840 q 475 846 463 846 q 488 845 481 846 q 508 843 497 844 l 527 843 q 540 842 534 843 q 547 840 546 842 q 552 837 549 838 q 560 836 555 836 q 567 835 564 836 q 570 831 570 833 q 575 829 570 830 q 585 827 579 827 q 596 826 591 827 q 600 824 600 825 q 606 819 600 823 q 620 813 612 816 q 706 772 684 790 q 718 763 713 767 q 725 760 724 760 q 729 757 727 760 q 734 751 732 755 q 740 746 736 748 q 747 743 744 743 q 760 736 752 743 q 775 721 768 729 q 782 707 782 712 q 787 693 782 705 q 798 669 791 682 m 81 342 l 94 353 q 109 367 100 357 q 126 385 118 376 q 145 405 138 397 q 162 422 152 412 q 191 450 172 431 q 214 473 205 463 q 224 483 224 482 q 233 495 224 485 q 256 518 243 506 q 279 539 269 530 q 292 549 290 549 q 298 553 294 549 q 305 564 302 557 q 313 575 309 570 q 322 583 318 581 q 332 588 326 584 q 342 597 337 592 q 350 605 346 602 q 355 608 353 608 q 357 610 357 608 l 357 611 l 357 613 l 357 614 q 359 619 357 616 q 366 625 361 622 q 373 631 370 627 q 376 637 376 634 q 383 648 376 640 q 400 667 391 657 q 417 684 410 677 q 427 690 425 690 l 428 690 q 431 692 429 690 q 435 701 433 695 q 449 714 439 714 q 454 713 452 714 l 455 713 q 456 714 456 713 q 455 716 456 715 q 454 718 454 717 q 456 723 454 719 q 463 731 458 726 q 472 742 471 739 l 472 743 q 469 747 472 745 q 456 751 465 750 l 449 751 q 440 751 446 751 q 433 747 435 750 q 426 743 432 745 q 413 739 420 741 q 326 701 386 732 q 317 696 322 699 q 307 691 312 694 q 275 675 286 681 q 260 663 264 669 q 252 657 256 659 q 245 654 248 654 q 235 649 242 654 q 220 635 228 644 q 205 622 213 627 q 194 616 198 616 q 189 615 191 616 q 187 614 187 614 q 188 612 187 613 l 188 612 q 183 603 188 610 q 170 588 178 597 q 130 538 151 568 q 102 490 109 508 q 96 475 100 483 q 90 460 93 467 q 86 447 87 455 q 84 435 84 439 q 83 425 84 429 q 80 420 82 421 q 78 414 79 418 q 77 406 77 410 l 77 401 l 78 395 q 77 385 78 391 q 75 374 77 379 q 75 366 75 370 q 75 361 75 365 q 77 352 75 357 l 81 342 m 374 418 q 380 427 380 425 q 372 431 380 431 l 371 431 q 326 419 357 431 q 311 414 318 416 q 294 410 304 412 q 283 408 288 410 q 275 406 277 407 q 269 404 272 405 q 263 403 265 403 q 236 391 251 399 q 210 373 220 382 q 199 359 199 363 l 199 357 q 199 354 199 355 q 197 353 198 353 l 195 353 q 192 352 193 353 q 190 348 190 351 q 187 342 190 345 q 179 337 184 339 q 165 328 174 335 q 146 312 156 321 q 117 290 124 290 q 114 295 114 290 q 112 298 114 298 q 106 295 110 298 q 100 290 101 293 l 100 288 q 102 281 100 286 q 113 269 105 275 q 130 258 121 262 q 144 253 139 253 q 155 250 146 253 q 175 242 164 247 q 212 232 195 234 q 219 231 216 231 q 228 236 228 231 q 231 240 228 239 l 233 240 q 238 238 235 240 q 242 232 241 236 q 246 227 243 229 q 256 223 249 224 q 277 221 263 222 q 303 219 292 220 q 317 217 314 218 q 327 216 323 216 q 330 216 328 216 q 333 225 332 217 l 333 232 q 332 253 333 240 l 332 267 q 332 280 332 273 q 334 291 332 286 q 338 297 335 295 q 347 315 345 304 q 348 323 348 319 q 346 334 348 330 q 345 338 345 336 q 346 348 345 341 q 351 363 347 354 q 359 379 355 372 q 365 389 363 383 q 368 400 368 395 q 370 410 368 404 q 374 418 372 415 m 386 498 q 385 501 385 500 q 389 507 385 505 q 398 509 393 509 q 404 508 401 509 q 410 507 408 507 q 412 508 410 507 q 413 512 413 508 q 414 525 414 516 q 415 539 414 533 q 418 545 416 545 q 422 550 422 545 q 419 562 422 556 q 411 570 416 568 q 406 572 408 572 q 403 570 403 572 q 404 568 403 569 l 404 568 q 400 559 404 565 q 389 547 396 554 q 377 536 382 541 q 372 529 372 530 q 365 522 371 527 q 351 511 359 517 q 336 499 342 505 q 330 492 330 494 q 335 490 330 490 q 358 496 342 490 q 372 500 367 500 q 378 498 376 500 q 385 494 382 494 q 387 495 387 494 q 386 498 387 496 m 759 655 q 764 657 764 656 l 764 658 q 760 663 764 659 q 753 672 758 665 q 747 685 749 678 q 736 701 743 693 q 723 713 729 709 q 715 716 718 716 q 713 715 714 716 q 712 715 713 715 q 711 716 711 715 q 710 720 710 717 q 708 724 710 722 q 703 727 705 726 q 695 727 699 727 q 688 728 692 728 q 680 732 686 728 q 667 742 674 736 q 650 755 655 755 q 646 749 646 755 q 643 744 646 744 q 640 745 642 744 l 637 745 q 635 745 637 745 q 632 742 633 744 q 631 741 632 741 l 631 743 q 630 749 630 744 q 627 760 630 758 q 612 762 624 762 l 610 762 q 599 761 603 762 q 590 749 595 759 q 576 719 585 740 q 572 711 574 715 q 562 688 569 704 q 546 654 554 671 q 530 620 536 632 q 520 597 525 608 q 507 567 515 586 q 498 544 502 554 q 494 532 494 534 q 492 526 494 530 q 488 520 490 523 q 482 505 482 515 q 483 498 482 502 l 483 494 q 481 482 483 488 q 473 466 479 475 q 464 451 467 458 q 460 441 460 444 q 459 436 460 439 q 456 433 458 433 q 453 428 454 431 q 452 420 452 424 q 450 409 452 416 q 446 395 448 401 q 441 381 443 389 q 439 371 439 374 q 437 359 439 368 q 431 342 434 351 q 424 323 427 334 q 419 306 420 313 q 417 292 418 298 q 414 284 415 286 q 410 276 412 282 q 408 262 408 269 q 404 249 406 254 q 401 242 402 243 q 399 239 399 241 l 399 238 q 399 235 399 237 q 408 233 401 233 l 413 233 q 425 234 418 233 q 433 237 431 235 q 439 239 435 239 q 449 240 444 240 q 516 265 471 240 q 589 316 562 290 q 603 329 595 323 q 614 336 610 334 q 621 338 618 337 q 625 341 625 340 q 632 347 627 342 q 645 357 637 352 q 657 369 652 363 q 661 376 661 374 l 661 377 q 666 388 661 379 q 682 408 672 397 q 701 431 692 419 q 712 448 709 442 q 718 460 714 454 q 724 468 722 466 q 728 473 727 471 q 729 475 729 474 q 728 477 729 477 l 728 479 q 729 481 728 480 q 732 483 730 482 q 736 488 734 484 q 736 495 736 492 l 736 499 q 738 511 736 505 q 741 522 739 517 q 746 538 744 526 q 749 567 748 551 q 752 595 750 583 q 756 610 754 607 q 758 614 758 612 l 758 615 q 758 618 758 617 q 755 625 756 619 q 753 637 754 630 q 753 645 753 642 q 754 651 753 648 q 759 655 755 654 z "},"A":{"ha":653,"x_min":-111,"x_max":836,"o":"m 825 966 q 836 948 833 954 q 836 943 836 946 q 834 935 836 939 q 829 922 832 928 q 822 910 825 915 q 814 898 819 905 q 808 884 810 890 q 803 875 806 879 q 800 871 801 871 q 793 864 798 871 q 783 849 789 858 q 773 831 778 840 q 766 820 768 823 q 761 810 764 817 q 755 795 758 803 q 748 781 751 787 q 741 771 744 774 q 735 760 739 768 q 730 743 732 752 q 724 727 727 734 q 720 720 722 720 q 716 717 718 719 q 715 713 715 715 q 702 675 715 707 q 668 602 688 643 q 653 570 659 584 q 648 555 648 556 q 643 543 648 553 q 633 522 639 533 q 612 480 623 502 q 595 442 602 458 q 589 423 589 426 q 591 419 589 422 q 595 415 593 416 q 601 411 600 412 q 597 407 601 409 q 594 403 594 405 q 596 400 594 401 q 601 394 601 397 q 593 387 601 391 q 587 383 589 386 q 584 378 584 380 q 581 374 584 374 q 576 374 578 374 q 574 375 575 375 q 567 371 570 375 q 555 350 563 366 q 546 329 550 339 q 540 313 541 318 q 536 304 538 309 q 533 298 534 300 q 525 279 532 296 q 509 241 518 263 q 492 199 500 218 q 481 174 484 180 q 476 162 478 169 q 474 153 474 156 q 473 144 474 149 q 471 136 472 140 q 464 123 469 133 q 454 100 460 113 q 441 77 446 79 l 441 77 q 440 78 440 77 q 444 94 440 81 q 447 108 447 103 l 447 109 l 446 111 q 442 104 445 111 q 438 96 441 100 q 432 89 435 92 q 425 81 429 85 q 420 74 422 77 q 416 69 417 69 q 414 69 415 69 q 407 77 413 69 q 400 88 401 82 q 399 96 399 92 q 399 102 399 98 l 399 106 q 398 117 399 111 q 395 129 397 123 q 391 140 391 136 q 394 146 391 144 q 396 152 395 149 l 397 155 l 396 158 q 395 161 395 160 q 400 168 395 165 q 404 170 403 169 q 405 173 405 172 l 405 174 q 404 175 404 174 q 405 177 404 176 q 409 180 406 178 q 413 183 412 180 q 415 190 415 186 q 416 196 415 193 q 420 202 418 200 q 426 218 422 205 q 432 243 430 231 q 434 257 434 252 q 433 260 434 259 l 433 261 q 435 267 433 263 q 441 275 437 271 q 453 293 448 282 q 463 313 459 303 q 465 322 465 319 q 464 326 465 324 q 463 328 463 327 l 463 329 q 467 330 464 330 q 469 332 469 330 q 469 333 469 332 q 468 335 468 334 q 468 337 468 336 q 471 341 469 339 q 473 347 473 345 q 471 352 473 350 q 461 356 468 355 l 457 356 q 448 355 453 356 q 441 351 443 355 q 433 348 439 349 q 422 347 428 347 l 417 347 q 398 347 408 347 q 381 345 388 346 q 363 342 375 344 q 338 341 351 341 q 286 335 300 339 q 275 323 275 331 q 275 321 275 322 q 274 319 275 319 q 271 318 273 318 l 270 318 q 267 316 268 318 q 264 310 265 314 q 260 296 264 303 q 252 284 257 289 q 245 281 248 281 l 243 281 q 234 277 239 281 q 225 267 229 273 q 222 260 222 262 l 222 258 q 220 254 222 256 q 214 250 218 252 q 205 239 205 245 q 206 236 205 237 q 207 231 207 233 q 204 229 206 229 q 201 227 202 229 q 199 222 199 225 q 198 218 199 220 q 193 216 196 216 q 189 213 191 216 q 187 208 187 211 q 186 201 187 204 q 182 199 184 199 q 178 197 180 199 q 172 194 175 196 q 165 188 170 191 q 158 182 161 185 q 151 176 154 180 q 149 169 149 172 q 146 162 149 165 q 141 156 144 158 q 130 143 138 153 q 112 120 121 133 q 96 98 103 108 q 90 85 90 87 q 88 83 90 83 l 87 83 q 83 83 85 83 l 81 83 q 73 74 77 83 q 67 64 71 69 q 60 56 64 59 q 54 50 56 54 q 52 45 52 47 q 41 30 52 42 q 14 1 30 17 q -15 -30 -2 -16 q -31 -50 -27 -44 q -42 -65 -35 -58 q -55 -75 -49 -73 q -59 -77 -58 -77 q -63 -75 -62 -77 q -66 -73 -64 -73 q -79 -81 -70 -73 q -93 -92 -89 -92 q -96 -86 -96 -92 q -97 -82 -96 -83 q -100 -80 -98 -80 q -106 -72 -103 -80 q -111 -56 -109 -64 q -111 -50 -111 -53 q -110 -44 -111 -47 q -80 -6 -103 -33 q -34 46 -57 21 q -24 57 -28 52 q -20 64 -20 62 q -16 70 -20 64 q -5 81 -12 75 q 5 93 1 87 q 9 100 9 98 q 17 112 9 104 q 32 128 24 121 q 43 136 40 136 q 46 138 44 136 q 49 142 48 140 q 52 146 50 145 l 54 147 l 56 146 l 56 146 q 58 147 57 146 l 58 149 q 57 153 58 151 l 57 155 q 77 185 57 163 q 95 203 86 195 q 107 214 103 212 q 114 220 111 215 q 119 231 117 225 q 124 241 121 237 q 129 245 127 245 l 130 245 q 141 250 135 245 q 152 261 147 254 q 155 271 155 267 l 155 273 q 155 277 155 275 q 161 288 155 283 q 168 294 165 290 q 170 299 170 297 q 173 305 170 301 q 180 313 176 309 q 189 320 189 318 l 189 321 q 183 323 189 322 q 176 325 179 325 q 170 323 172 325 q 164 321 168 322 q 156 319 160 320 q 115 312 139 317 q 76 302 92 307 q 47 296 58 296 q 37 300 39 296 q 33 303 36 302 q 26 304 30 304 q 16 310 22 304 q 5 321 10 315 q 1 331 1 327 q 3 334 1 332 q 9 337 6 336 q 16 340 14 338 q 18 344 18 342 q 18 346 18 345 q 14 347 18 347 q 9 349 9 347 q 9 350 9 349 q 14 354 9 351 q 27 359 19 357 q 46 363 35 361 q 66 368 57 366 q 90 373 76 370 q 117 378 104 376 q 199 394 170 388 q 241 403 228 399 q 259 410 254 406 q 267 414 263 412 q 273 416 271 416 l 273 416 q 275 417 274 416 q 275 422 275 419 q 278 430 275 426 q 286 437 281 434 q 293 443 291 440 q 296 448 296 446 l 296 448 q 300 458 296 452 q 311 472 304 465 q 319 478 317 478 q 327 483 323 478 q 332 495 331 488 q 335 499 333 496 q 338 507 336 503 q 348 521 342 513 q 367 543 354 528 q 374 552 371 548 q 377 558 377 557 q 379 561 377 560 q 385 562 382 562 q 395 574 393 562 q 404 590 397 580 q 421 610 411 600 q 438 628 431 620 q 445 638 445 636 q 447 643 445 640 q 453 648 450 646 q 459 653 456 650 q 462 659 462 656 q 466 665 462 661 q 475 673 469 669 q 486 684 480 677 q 494 694 491 690 q 501 705 496 700 q 511 711 506 709 q 518 716 515 713 q 521 721 521 719 q 573 788 521 730 q 610 829 597 814 q 630 851 623 844 q 642 865 636 859 q 670 896 650 875 q 709 936 690 916 q 734 960 728 955 q 754 969 739 963 q 783 980 768 975 q 804 985 798 985 q 813 979 807 985 q 825 966 819 974 m 523 296 q 524 298 524 297 l 524 299 q 521 300 523 300 q 518 299 519 300 q 517 296 517 298 q 517 293 517 294 q 518 292 517 292 q 520 293 519 292 q 523 296 522 294 m 625 697 q 628 713 627 700 l 628 722 q 627 741 628 731 q 625 746 627 746 l 625 746 q 618 743 623 746 q 612 738 614 741 q 610 732 610 734 q 607 727 610 730 q 600 723 604 724 q 585 710 593 720 q 570 690 576 700 q 565 678 565 682 l 565 677 q 566 675 566 676 q 565 673 566 674 q 562 672 564 672 q 557 669 557 672 q 557 666 557 667 q 558 663 558 664 q 557 661 558 661 q 553 662 555 661 l 551 662 q 540 653 546 662 q 531 642 536 648 q 522 631 526 636 q 515 623 517 627 q 514 619 514 621 l 514 618 q 515 615 515 616 l 515 614 q 512 613 514 613 q 499 604 508 613 q 484 585 491 595 q 476 570 476 574 q 472 560 476 564 q 453 550 467 556 q 449 545 450 549 q 447 538 447 542 q 444 528 446 533 q 437 519 441 523 q 433 517 435 517 q 431 518 432 517 q 430 519 431 519 q 429 517 429 519 l 430 515 l 430 513 q 428 508 430 511 q 422 501 427 505 l 416 496 q 419 500 416 496 q 422 506 422 504 q 420 507 422 507 l 420 507 q 411 502 416 507 q 408 496 408 499 q 411 493 408 494 q 413 488 413 491 q 412 486 413 488 q 408 481 412 484 q 404 480 406 480 q 400 481 401 480 l 399 481 q 395 479 397 481 q 390 474 392 477 q 387 468 387 470 q 391 465 387 465 q 392 464 392 465 q 387 456 392 462 q 379 446 383 452 q 374 437 376 441 q 367 430 371 433 q 359 427 363 427 q 352 424 355 426 q 349 419 349 422 q 348 418 348 418 q 353 415 348 416 l 357 415 q 378 416 364 415 q 414 418 391 417 q 458 420 437 419 q 486 421 476 420 q 501 422 496 421 q 507 425 506 423 q 508 431 508 427 q 509 437 508 435 q 512 440 510 440 q 518 448 515 440 q 523 465 522 456 q 524 472 523 468 q 526 478 525 475 q 528 486 527 481 q 531 496 530 491 q 538 507 533 507 q 540 506 538 507 l 542 505 q 548 508 545 505 q 552 516 551 511 q 553 521 553 519 q 552 526 553 524 l 552 528 q 552 532 552 530 q 554 535 553 534 q 557 540 556 536 q 559 548 559 544 q 561 557 559 552 q 567 566 564 562 q 573 573 571 569 q 576 580 576 577 q 579 589 576 583 q 589 601 583 595 q 599 615 596 608 q 600 627 600 620 l 600 636 q 607 654 600 649 q 612 659 610 656 q 613 661 613 660 q 612 663 613 662 q 612 665 612 663 q 612 667 612 665 q 614 671 612 669 q 618 678 616 674 q 621 686 621 682 q 623 693 622 690 q 625 697 624 696 z "},"B":{"ha":896,"x_min":-106,"x_max":868,"o":"m 854 903 q 867 890 864 896 q 868 880 868 886 l 868 874 q 863 856 867 863 q 844 834 859 848 q 825 818 835 825 q 810 810 815 811 q 799 805 805 808 q 789 797 793 801 q 777 787 783 789 q 765 786 773 786 l 757 786 q 743 776 747 786 q 736 767 740 768 q 730 766 734 766 q 724 766 728 766 q 718 767 721 767 q 713 766 715 767 q 709 760 711 765 q 695 752 707 752 l 690 752 q 688 751 689 752 q 687 749 687 751 q 677 742 687 747 q 655 734 667 737 q 637 730 644 730 l 635 730 q 630 729 633 730 q 628 726 628 728 q 619 717 628 722 q 599 708 610 711 q 582 705 589 705 l 575 705 q 567 704 571 705 q 559 700 562 703 q 553 695 556 697 q 547 694 549 694 q 539 691 545 694 q 528 684 534 688 q 519 676 522 680 q 515 672 515 673 q 513 671 515 671 q 505 669 511 670 q 481 662 494 668 q 459 647 468 656 q 442 635 454 642 q 418 623 430 628 q 402 617 407 617 q 393 614 399 617 q 380 606 387 611 q 360 594 373 602 q 336 581 348 587 q 315 569 323 574 q 307 560 307 563 q 305 553 307 557 q 300 547 303 549 q 296 541 296 543 q 300 538 296 538 l 304 538 q 344 541 315 538 q 460 550 397 547 q 546 553 513 553 l 558 553 q 741 535 724 546 q 743 531 743 534 q 744 525 744 528 q 747 520 745 522 q 753 517 749 517 l 757 517 q 761 517 760 517 q 762 519 762 517 q 760 523 762 520 q 760 527 760 526 q 761 528 760 528 q 765 527 762 528 q 771 525 768 526 q 774 524 773 524 q 774 523 774 524 q 774 519 774 521 q 773 515 773 517 q 780 505 773 511 q 798 496 786 499 q 807 492 802 495 q 812 486 811 489 q 817 479 813 482 q 825 475 821 477 q 833 470 831 474 q 835 455 835 467 q 836 439 835 448 q 839 424 838 430 q 840 412 840 418 q 800 340 840 381 q 778 319 789 328 q 762 308 767 311 q 749 301 756 306 q 737 291 742 296 q 717 278 728 283 q 701 274 709 274 q 696 275 699 274 q 693 274 694 275 q 692 271 692 273 q 690 268 692 269 q 685 267 688 267 q 681 265 682 267 q 679 261 679 264 q 671 251 678 257 q 656 241 664 245 q 645 239 649 239 l 643 239 q 640 239 642 239 q 631 233 635 239 q 625 227 629 229 q 619 224 622 224 q 612 223 616 224 q 606 218 608 221 q 599 214 604 216 q 590 210 594 211 q 576 204 585 208 q 557 197 567 201 q 538 189 545 191 q 532 186 534 186 q 528 187 530 186 q 525 192 526 188 q 524 193 524 193 q 523 190 523 193 q 519 184 522 184 q 515 185 517 184 q 512 186 513 186 q 511 185 511 186 q 511 183 511 184 l 512 182 q 503 173 512 178 q 478 163 494 168 q 469 162 471 162 l 468 162 q 474 168 468 163 q 480 173 480 172 l 479 173 q 472 171 477 173 q 456 164 461 168 q 452 159 452 161 q 453 157 452 157 l 453 156 q 450 152 453 154 q 439 146 446 149 q 426 142 430 142 l 425 142 q 420 145 422 142 q 418 149 418 149 q 416 148 417 149 q 415 139 416 146 q 412 135 415 137 q 405 131 409 132 q 399 129 401 129 q 397 130 397 129 q 398 132 397 131 q 399 134 399 134 q 397 135 399 135 q 393 134 396 135 q 366 125 385 132 q 326 109 347 117 q 291 93 305 100 q 271 85 279 87 q 261 83 264 83 l 260 83 q 258 83 259 83 q 256 82 258 83 q 254 79 255 81 q 250 74 252 76 q 245 72 248 72 q 236 69 243 72 q 220 62 229 66 q 207 56 212 58 q 201 54 203 54 q 201 54 201 54 q 198 54 200 54 q 193 51 197 53 q 186 49 189 49 q 184 51 184 49 q 182 55 184 55 q 177 53 180 56 q 173 47 174 51 q 170 41 171 41 q 167 43 168 41 q 163 45 166 45 q 151 42 160 45 q 114 27 142 39 q 67 8 92 18 q 25 -9 42 -2 q -16 -31 -14 -23 q -20 -36 -17 -33 q -26 -41 -22 -39 q -34 -45 -29 -42 q -43 -53 -39 -49 q -52 -59 -47 -57 q -57 -60 -55 -60 l -60 -60 q -64 -61 -62 -60 q -69 -65 -66 -62 q -77 -71 -73 -71 q -87 -62 -82 -71 q -93 -51 -89 -58 q -100 -39 -96 -45 q -106 -22 -106 -27 q -106 -19 -106 -22 q -94 -10 -106 -17 q -86 -2 -89 -7 q -83 5 -83 2 l -83 7 q -80 22 -83 14 q -71 31 -77 29 q -68 35 -68 33 q -67 38 -67 37 q -68 41 -67 39 q -68 43 -68 42 q -61 56 -68 49 q -56 63 -58 60 q -54 67 -54 66 l -54 68 q -55 71 -55 69 q -54 75 -55 73 q -52 81 -54 77 q -47 93 -48 88 q -45 106 -45 97 q -41 112 -44 109 q -35 117 -39 115 q -24 134 -25 121 q -21 144 -23 139 q -16 153 -19 150 q -7 170 -11 159 q -5 186 -5 178 l -5 192 q 1 199 -5 199 q 14 213 5 199 q 33 245 24 227 q 49 277 43 263 q 52 291 52 287 q 52 294 52 293 q 50 295 50 294 q 54 296 50 296 q 64 309 61 297 q 67 319 65 314 q 73 326 70 324 q 79 334 75 329 q 85 346 83 340 q 92 358 88 353 q 98 366 95 363 q 105 374 100 368 q 113 389 109 381 q 115 393 115 391 q 126 418 126 412 l 126 418 q 118 421 125 421 q 109 420 115 421 l 107 420 q 88 419 98 420 q 73 417 79 418 q 68 416 71 416 q 62 418 64 416 q 62 420 62 419 q 67 425 62 422 l 68 425 q 67 426 68 426 q 60 427 65 427 q 31 460 37 429 q 30 468 30 465 q 31 472 30 470 q 37 476 32 475 q 44 480 40 477 q 51 488 48 484 q 63 498 54 492 q 81 510 71 505 q 100 519 92 515 q 109 524 107 524 q 122 533 110 526 q 163 555 134 540 q 221 591 198 574 q 243 618 243 609 q 246 623 243 619 q 252 630 248 627 q 258 638 256 633 q 260 647 260 644 q 262 653 260 650 q 264 658 263 656 q 268 662 267 659 q 269 668 269 665 q 276 682 269 675 q 292 689 284 689 q 298 699 298 689 q 304 725 298 710 q 316 745 310 741 q 322 751 319 746 q 326 761 325 755 q 330 771 327 766 q 336 778 332 776 q 343 800 342 782 q 346 815 343 810 q 357 827 349 821 q 367 837 363 832 q 370 846 370 842 q 372 851 370 849 q 374 854 373 854 q 377 855 376 854 q 378 858 378 857 q 370 860 378 859 q 360 861 366 861 q 346 860 355 861 q 327 858 337 859 q 315 856 317 857 l 314 856 q 312 857 313 856 q 311 861 311 858 q 310 865 311 865 q 306 859 309 865 q 294 849 301 849 l 292 849 q 283 847 288 849 q 274 842 278 845 q 262 833 265 833 q 262 835 262 833 q 263 840 262 836 l 264 842 q 258 846 264 846 q 254 847 254 846 q 262 852 254 848 q 271 857 271 856 l 269 857 q 254 856 265 857 l 232 854 l 233 866 q 256 895 233 889 q 267 898 262 895 q 273 905 271 901 q 288 914 276 909 q 314 922 300 919 q 338 925 328 925 q 349 922 349 926 q 353 918 349 918 q 356 918 353 918 q 364 924 359 919 q 507 948 378 942 q 551 956 543 950 q 555 959 554 959 q 555 958 555 959 l 555 957 q 554 956 554 957 q 646 950 554 952 q 718 947 686 949 q 757 943 749 945 q 777 939 765 941 q 802 937 789 937 q 840 921 840 933 l 840 920 q 844 913 840 918 q 854 903 848 909 m 313 467 q 291 463 300 465 q 244 454 258 458 q 223 445 229 450 q 213 427 218 439 q 209 419 211 424 q 196 395 202 406 q 187 381 190 385 q 182 374 184 378 q 178 365 180 369 q 175 358 177 361 q 172 355 173 355 q 168 351 170 355 q 163 342 165 347 q 156 330 160 336 q 150 319 153 323 q 139 303 146 316 q 124 275 132 291 q 110 247 116 260 q 101 231 103 235 q 96 222 99 227 q 92 212 94 216 q 85 199 90 207 q 77 184 81 191 q 49 124 58 155 q 43 107 47 116 q 35 92 39 98 q 26 74 31 86 q 16 50 20 62 q 11 35 11 38 q 11 35 11 35 q 13 35 12 35 q 16 35 14 35 q 22 37 18 36 q 32 40 26 38 q 213 120 78 55 q 220 125 217 122 q 222 131 222 128 q 223 136 222 136 q 226 132 224 136 q 233 130 228 130 q 242 132 235 130 q 259 140 250 134 q 269 152 269 146 q 273 159 269 156 q 283 163 278 163 l 284 163 q 290 161 288 163 q 293 157 291 157 q 296 158 294 157 q 298 165 298 159 q 307 176 298 172 q 313 177 310 177 q 321 174 317 177 q 327 172 325 172 q 329 172 328 172 q 330 176 330 173 q 330 180 330 177 l 330 180 q 335 187 330 184 q 348 193 340 191 q 357 194 353 194 q 361 193 359 194 q 365 193 363 193 q 370 198 370 193 q 375 203 370 203 q 380 201 377 203 q 386 201 383 201 q 397 206 393 201 q 409 215 400 211 q 426 222 418 220 q 433 223 431 223 q 439 222 437 223 q 441 221 440 221 q 441 222 441 221 q 441 224 441 222 q 440 226 440 224 q 444 232 440 228 q 454 238 448 235 q 468 242 461 241 q 478 245 473 243 q 488 250 484 247 q 501 257 493 253 q 516 263 509 260 q 532 269 524 265 q 546 276 540 273 q 557 281 551 279 q 568 283 564 283 q 575 285 572 283 q 580 288 578 286 q 591 295 581 290 q 613 307 600 300 q 636 317 625 313 q 648 321 646 321 q 654 324 650 321 q 663 331 659 327 q 707 358 692 357 q 717 362 711 359 q 726 370 722 366 q 734 377 730 374 q 740 380 738 380 q 753 387 745 380 q 766 400 760 393 q 772 414 772 408 q 780 431 772 424 q 788 438 787 435 q 789 440 789 439 q 785 447 789 443 q 778 450 783 450 q 768 448 772 450 q 763 440 764 445 q 762 439 763 439 q 755 447 761 439 q 747 457 751 454 q 741 458 744 458 q 737 458 739 458 l 734 458 q 728 459 731 458 q 722 463 724 460 q 716 467 719 465 l 713 467 l 710 467 l 708 467 q 701 467 705 467 q 690 471 696 468 q 673 476 684 474 q 653 479 663 479 q 629 482 643 480 q 603 486 614 484 q 580 490 591 489 q 565 491 570 491 q 541 490 559 490 q 497 488 522 489 q 431 486 454 487 q 396 483 407 484 q 380 481 385 482 q 357 476 376 479 q 313 467 338 472 m 767 864 q 769 869 769 867 q 763 877 769 873 q 739 881 756 881 q 723 883 730 882 q 713 885 716 884 q 704 887 711 886 q 696 888 701 888 q 688 887 693 888 q 671 888 680 887 q 659 891 663 889 q 652 894 655 893 l 650 894 q 648 893 648 894 q 634 891 646 892 q 609 890 623 890 q 585 890 595 890 q 575 892 575 891 l 575 893 q 573 894 575 894 q 568 895 571 895 q 560 893 564 895 q 556 891 557 892 q 546 888 555 889 q 526 886 538 886 q 484 882 497 884 q 466 874 471 880 q 456 859 460 869 q 449 844 452 850 q 446 836 446 838 q 441 826 446 835 q 429 806 437 818 q 408 766 422 793 q 380 712 393 739 q 362 674 367 685 l 362 673 q 364 674 363 673 q 368 677 366 674 q 381 685 372 680 q 400 695 390 690 q 418 703 410 700 q 429 706 427 706 q 432 707 430 706 q 434 709 434 708 q 441 715 435 711 q 456 724 448 720 q 472 732 465 729 q 481 736 479 736 q 487 738 482 736 q 496 745 492 741 q 508 751 501 748 q 519 754 514 753 q 530 758 524 755 q 542 764 536 760 q 554 771 547 768 q 567 777 562 774 q 582 781 572 778 q 600 789 591 785 q 615 796 608 793 q 625 799 623 799 q 639 804 627 799 q 669 818 652 810 q 697 831 685 826 q 712 837 710 837 q 720 840 714 837 q 734 848 726 843 q 747 856 741 852 q 756 859 754 859 q 762 860 759 859 q 767 864 765 861 z "},"C":{"ha":880,"x_min":-84,"x_max":1117,"o":"m 206 -77 q 199 -73 203 -76 q 191 -66 195 -70 q 174 -59 183 -59 q 170 -60 172 -59 q 162 -60 165 -60 q 157 -59 158 -60 q 152 -57 157 -58 q 144 -56 148 -56 q 138 -57 142 -56 q 106 -49 123 -57 q 83 -31 90 -41 q 67 -22 81 -28 q 35 -7 54 -15 q -3 9 16 1 q -11 13 -9 11 q -12 16 -12 15 q -9 23 -12 19 q -8 30 -8 27 q -9 33 -8 32 q -20 43 -11 37 q -38 67 -35 51 q -51 84 -41 83 q -58 87 -56 85 q -60 97 -60 90 q -61 106 -60 102 q -63 112 -62 111 q -65 117 -64 113 q -67 125 -66 121 q -70 136 -68 130 q -75 146 -72 142 q -79 155 -79 153 q -75 158 -79 157 q -71 161 -71 159 q -71 164 -71 163 q -73 172 -71 167 q -75 180 -75 177 q -75 184 -75 182 l -75 185 l -75 186 l -75 189 q -78 194 -76 191 q -84 210 -84 201 q -75 236 -84 221 q -68 250 -71 244 q -66 258 -66 255 l -66 258 q -67 260 -67 259 l -67 262 q -64 264 -66 263 q -62 269 -62 266 q -64 277 -62 273 q -66 287 -66 281 l -66 290 q -63 303 -65 298 q -57 309 -60 309 q -54 314 -56 309 q -52 329 -53 320 q -51 344 -52 337 q -47 353 -50 351 q -44 358 -45 355 q -43 365 -43 361 q -41 372 -43 368 q -35 380 -39 376 q -29 389 -32 384 q -24 400 -26 395 q -17 417 -23 406 q -2 442 -10 429 q 13 465 7 454 q 20 480 19 476 q 25 487 21 484 q 33 494 28 491 q 40 500 37 496 q 43 508 43 504 q 51 523 44 515 q 66 534 58 530 q 74 542 68 534 q 88 560 80 549 q 106 583 96 571 q 123 603 116 595 q 134 616 130 610 q 138 625 138 622 q 145 633 138 627 q 161 648 152 640 q 181 666 172 656 q 196 680 191 675 q 212 696 201 686 q 237 718 224 707 q 261 736 250 728 q 273 744 271 744 q 281 750 274 744 q 298 765 289 756 q 317 781 307 774 q 334 791 328 788 q 346 797 340 793 q 356 804 352 800 q 365 809 359 806 q 376 813 371 812 q 385 817 381 814 q 388 823 388 820 q 391 827 388 825 q 399 831 395 830 q 409 835 404 833 q 417 840 414 837 q 435 850 422 844 q 459 862 448 857 q 475 867 471 867 q 486 870 477 867 q 503 878 494 873 q 592 917 539 897 q 675 943 646 937 q 716 951 702 948 q 739 956 730 954 q 757 962 747 958 q 771 966 766 964 q 780 967 777 967 q 783 966 781 967 l 791 966 q 804 968 798 966 q 816 970 812 970 l 819 970 q 827 966 824 969 q 836 961 831 963 q 845 960 840 960 q 856 958 849 960 q 869 955 863 957 q 882 953 876 953 q 894 955 888 953 q 904 957 899 957 q 912 954 909 957 q 924 948 916 951 q 944 941 933 945 q 992 922 972 933 q 1034 892 1013 911 q 1066 864 1055 876 q 1098 826 1078 851 q 1113 803 1109 812 q 1117 774 1116 793 l 1117 766 q 1115 746 1117 751 q 1113 743 1114 743 q 1107 751 1110 743 q 1102 756 1106 755 q 1095 757 1098 757 q 1090 756 1093 757 q 1082 751 1084 755 q 1076 746 1080 749 q 1065 742 1071 743 q 1057 741 1059 741 q 1053 741 1055 741 q 1051 750 1051 743 q 1050 758 1051 755 q 1047 761 1048 761 q 1044 766 1045 761 q 1043 779 1043 771 l 1043 785 q 1025 822 1043 810 q 1019 830 1021 825 q 1015 842 1016 836 q 1011 853 1014 848 q 1006 861 1009 859 q 999 865 1003 862 q 991 871 995 869 q 975 880 987 876 q 951 888 964 885 q 930 892 938 892 q 920 890 926 892 q 911 886 915 888 q 905 883 907 883 q 901 883 903 883 q 896 884 899 883 q 883 892 891 886 q 868 901 872 899 q 862 902 864 902 q 854 901 858 902 q 844 899 850 899 q 833 899 838 899 l 823 899 q 815 899 819 899 q 808 899 811 899 q 800 896 801 898 q 796 894 798 895 q 793 894 794 894 q 789 895 791 894 l 785 895 l 781 895 q 774 892 777 894 q 759 888 770 888 q 749 889 754 888 q 741 890 745 890 q 728 888 734 890 q 707 881 720 887 q 688 874 698 877 q 671 871 677 871 q 657 869 665 871 q 646 864 650 867 q 635 859 642 861 q 624 857 629 857 q 611 854 618 857 q 597 848 604 852 q 585 840 591 843 q 578 837 579 837 q 553 826 575 837 q 503 802 530 816 q 456 778 475 789 q 438 767 446 772 q 429 757 431 761 q 425 751 428 753 q 420 749 422 749 q 396 739 411 749 q 366 715 380 729 q 350 701 358 707 q 337 692 342 694 q 302 664 326 685 q 259 623 278 643 q 246 610 252 615 q 237 605 239 605 q 233 604 235 605 q 231 602 231 603 q 226 593 231 600 q 212 577 220 586 q 197 559 204 568 q 186 546 189 551 q 177 535 182 541 q 167 524 172 528 q 159 514 162 518 q 155 507 155 509 q 152 502 155 506 q 142 494 148 498 q 132 481 138 489 q 121 466 125 473 q 114 453 117 458 q 109 448 110 448 q 104 444 107 448 q 97 433 100 439 q 85 410 93 425 q 69 379 77 395 q 55 350 61 363 q 50 335 50 338 q 45 313 50 328 q 34 286 40 298 q 26 254 29 276 q 23 217 24 231 q 23 198 23 202 q 25 170 23 180 q 25 160 26 165 q 24 151 25 155 q 22 144 22 148 q 24 138 22 141 q 27 132 26 136 q 27 126 27 129 l 26 122 q 26 118 26 120 q 32 97 26 109 q 49 71 39 81 q 56 64 52 68 q 64 56 61 60 q 73 47 68 53 q 83 35 79 41 q 92 25 87 29 q 98 22 96 22 q 135 3 107 22 q 156 -3 140 -1 q 208 -5 171 -5 l 252 -5 q 271 -3 269 -5 q 322 5 271 1 q 329 4 324 5 q 339 2 334 3 q 347 1 345 1 l 349 1 q 349 3 349 1 q 349 6 349 4 l 348 8 q 355 17 348 13 q 379 22 364 22 q 391 23 384 22 q 404 28 398 25 q 420 34 410 31 q 441 41 431 38 q 472 50 458 45 q 513 67 486 55 q 591 106 539 80 l 661 142 l 676 134 q 688 129 682 132 q 696 127 694 127 q 701 125 701 127 q 700 123 701 124 q 691 114 699 118 q 672 89 672 104 l 672 85 q 663 77 672 79 q 637 66 650 74 q 618 50 625 58 q 612 42 616 45 q 606 39 608 39 q 600 37 604 39 q 595 32 597 35 q 582 23 591 28 q 562 13 572 18 q 547 9 551 9 q 543 7 545 9 q 538 3 541 5 q 530 -3 536 0 q 517 -6 524 -5 q 494 -13 509 -7 q 467 -24 479 -18 q 451 -34 454 -31 q 440 -38 450 -35 q 417 -44 430 -41 q 392 -49 404 -47 q 376 -53 385 -50 q 360 -59 368 -56 q 326 -66 345 -65 q 296 -68 307 -68 q 258 -66 278 -68 q 240 -64 247 -64 l 236 -64 q 223 -71 229 -66 q 216 -77 219 -75 l 213 -79 q 211 -79 212 -79 q 206 -77 209 -78 z "},"D":{"ha":1050,"x_min":-117,"x_max":1185,"o":"m 1167 809 q 1185 770 1182 784 q 1185 762 1185 766 q 1180 743 1185 753 q 1175 730 1177 738 q 1171 715 1172 722 q 1159 687 1168 703 q 1141 661 1150 670 q 1137 655 1139 658 q 1135 651 1135 653 q 1125 639 1135 650 q 1101 614 1116 629 q 1077 588 1087 600 q 1067 575 1067 577 q 1067 572 1067 574 q 1065 572 1066 572 l 1063 572 q 1052 569 1058 572 q 1036 555 1046 566 q 1006 530 1020 541 q 985 520 991 520 q 980 517 983 520 q 972 509 976 513 q 952 486 966 498 q 927 466 939 474 q 912 459 917 459 l 911 459 q 909 460 910 460 l 908 460 q 907 457 907 459 q 905 454 907 455 q 899 452 902 452 q 893 452 895 452 q 892 450 892 451 q 892 448 892 449 l 892 448 q 890 443 892 446 q 882 438 887 440 q 870 435 876 436 q 862 431 867 435 q 853 421 857 427 q 844 410 849 414 q 836 406 839 406 q 828 404 832 406 q 821 399 823 402 q 814 395 818 397 q 810 395 812 395 l 808 395 q 805 395 806 395 q 802 389 802 395 q 778 375 802 378 q 771 371 775 374 q 762 362 766 367 q 740 350 751 350 q 724 345 735 350 q 700 333 712 340 q 677 319 687 326 q 668 310 668 313 q 667 306 668 308 q 665 302 666 303 l 663 301 l 663 301 q 664 304 663 302 q 665 307 665 306 q 663 308 665 308 q 657 307 661 308 q 649 303 653 305 q 642 298 644 300 q 635 293 640 296 q 627 290 631 291 q 611 281 620 287 q 597 270 603 276 q 593 263 593 265 l 593 262 q 591 258 593 260 q 585 254 589 256 q 578 250 580 250 l 578 251 q 581 256 578 252 q 585 260 583 258 l 585 262 q 585 262 585 262 q 573 258 582 262 q 553 249 564 254 q 535 239 543 243 q 527 233 527 234 q 525 230 527 231 q 521 229 523 229 q 515 226 518 229 q 509 220 511 224 q 504 215 506 216 q 501 214 503 214 q 500 214 500 214 q 498 215 500 215 q 457 195 492 215 q 441 185 450 191 q 426 178 432 180 q 415 171 420 174 q 406 165 409 168 q 399 162 404 163 l 391 162 q 384 163 387 163 q 374 161 378 163 q 368 153 368 157 q 369 151 368 152 l 369 150 q 365 144 369 146 q 354 140 361 141 q 345 139 349 139 l 338 139 q 330 137 335 139 q 320 132 326 136 q 310 125 315 128 q 302 123 305 123 q 300 121 300 123 l 300 116 q 298 111 300 115 q 293 105 296 108 q 283 100 286 100 l 283 100 q 282 101 282 100 q 286 109 282 103 q 288 111 288 110 q 287 111 288 111 q 121 24 277 111 q 100 13 111 19 q 81 3 88 7 q 69 -5 74 -1 q 64 -14 64 -10 q 55 -27 62 -24 q 28 -31 48 -31 q 9 -33 18 -32 q -3 -37 0 -35 q -20 -46 -6 -39 q -51 -61 -34 -53 q -81 -74 -68 -68 q -96 -80 -94 -80 l -100 -78 q -107 -75 -102 -77 q -117 -62 -117 -69 q -117 -57 -117 -62 q -104 -49 -117 -53 q -93 -44 -98 -47 q -87 -39 -88 -41 q -80 -34 -85 -37 q -67 -28 -75 -31 q -55 -23 -60 -26 q -49 -16 -50 -19 q -33 -3 -47 -10 q -5 5 -20 3 q 3 9 1 6 q 5 20 5 12 q 5 29 5 26 q 7 32 6 32 l 8 32 q 11 33 9 32 q 14 40 12 35 q 20 58 16 46 q 30 89 24 70 q 40 116 35 104 q 47 132 45 128 q 52 140 50 134 q 56 151 54 145 q 58 160 56 156 q 62 165 60 164 q 65 170 64 167 q 68 178 67 174 q 72 186 69 182 q 77 192 74 190 q 81 198 79 193 q 83 207 83 202 q 85 218 83 212 q 91 229 87 224 q 97 239 94 233 q 102 250 100 245 q 114 277 104 258 q 134 315 124 296 q 149 339 144 334 q 153 345 151 342 q 155 351 155 349 q 160 366 155 355 q 172 388 165 377 q 182 401 178 398 q 187 408 185 404 q 189 415 189 412 q 191 423 189 418 q 197 431 193 427 q 208 447 201 436 q 218 468 214 457 q 222 484 222 479 q 225 490 222 487 q 231 494 227 492 q 241 513 239 495 q 245 527 242 520 q 250 538 248 534 q 256 550 253 543 q 261 564 259 557 q 265 575 262 570 q 269 579 267 579 q 272 582 271 579 q 273 587 273 584 q 275 594 273 591 q 280 598 277 597 q 283 601 283 599 q 284 604 284 602 l 284 604 q 283 608 283 606 q 285 615 283 611 q 290 625 286 620 q 297 630 294 630 q 302 635 299 630 q 307 648 305 640 q 313 663 310 656 q 319 673 317 669 q 336 710 336 688 q 345 727 336 722 q 351 738 351 731 l 351 742 q 360 756 351 749 q 368 764 364 760 q 372 772 371 769 q 376 784 372 776 q 386 800 380 791 q 396 817 392 808 q 402 830 401 825 q 406 839 404 835 q 409 844 408 843 q 412 849 412 846 l 412 851 q 412 854 412 852 q 409 857 410 857 l 408 857 q 399 854 405 856 q 387 851 393 853 q 373 847 381 849 q 360 844 366 845 q 343 840 354 843 q 322 835 333 838 q 300 831 307 831 q 295 833 296 831 q 291 836 294 834 q 281 837 287 837 q 267 846 269 837 q 264 859 264 854 q 266 864 264 861 q 274 869 267 867 q 280 872 281 871 q 271 876 280 873 l 258 878 l 271 884 q 325 899 285 889 q 412 920 365 909 q 471 939 462 930 q 479 946 478 946 q 480 945 480 946 q 479 942 480 944 q 478 939 478 940 q 482 935 478 935 l 483 935 q 493 941 488 935 q 500 946 496 944 q 507 947 504 947 q 511 946 508 947 q 515 943 513 946 q 536 942 516 942 l 551 942 q 586 943 566 942 q 720 945 649 945 l 755 945 q 852 943 806 945 q 906 939 899 942 q 919 936 911 936 q 932 938 925 936 q 948 940 941 940 q 966 937 957 940 q 979 935 972 935 q 986 934 983 934 l 991 934 q 997 933 994 934 q 1002 930 1000 932 q 1008 927 1005 928 l 1009 927 q 1012 928 1011 927 q 1015 928 1013 928 q 1024 927 1018 928 q 1038 921 1030 925 q 1049 913 1046 918 q 1055 909 1051 911 q 1064 907 1059 907 l 1065 907 q 1075 905 1072 906 q 1079 903 1078 905 q 1083 896 1081 901 q 1084 895 1083 895 q 1092 886 1086 891 q 1104 878 1097 881 q 1167 809 1139 861 m 1123 759 q 1126 766 1124 760 q 1127 779 1127 772 q 1124 797 1127 789 q 1114 813 1121 804 q 1097 829 1101 829 q 1095 825 1095 829 q 1095 819 1095 823 q 1097 814 1097 815 q 1096 814 1097 814 q 1091 821 1095 814 q 1081 831 1087 827 q 1071 836 1076 836 l 1069 836 q 1064 833 1066 836 q 1061 831 1063 831 q 1059 831 1061 831 q 1054 836 1057 832 q 1050 844 1050 840 q 1049 848 1050 846 q 1044 850 1047 850 q 1040 848 1042 850 q 1038 846 1038 847 q 1038 844 1038 844 q 1035 845 1037 844 q 1029 850 1033 846 q 1018 855 1022 855 q 1015 854 1017 855 q 1011 854 1014 854 q 1003 855 1008 854 q 990 860 997 857 q 983 866 983 863 q 979 869 983 868 q 967 870 974 870 q 937 871 960 870 q 886 873 914 872 q 751 876 842 875 l 694 876 q 594 876 639 876 l 591 876 q 574 876 585 876 q 553 875 564 876 q 528 873 539 875 q 512 871 516 872 q 501 861 507 869 q 483 833 494 852 q 454 778 472 813 q 436 743 444 759 q 424 721 427 727 q 415 705 420 715 q 405 683 410 694 q 372 616 391 653 q 337 550 353 579 q 317 513 321 521 q 310 501 313 508 q 305 488 307 494 q 302 477 304 481 q 298 473 300 473 q 295 469 297 473 q 290 459 292 465 q 284 447 288 453 q 277 438 281 441 q 270 429 274 435 q 264 416 267 422 q 260 406 262 410 q 256 402 258 402 q 253 397 254 402 q 250 386 251 393 q 246 373 248 379 q 241 363 243 367 q 237 356 239 361 q 233 348 235 352 q 230 341 232 344 q 227 339 229 339 l 223 339 q 214 330 214 339 q 209 310 214 321 q 194 288 203 298 q 186 272 186 279 q 186 268 186 270 q 187 264 187 266 q 180 251 187 256 q 174 243 177 248 q 172 237 172 239 q 170 231 172 234 q 165 227 168 228 q 159 220 159 225 q 160 216 159 218 q 161 211 161 213 q 159 209 161 209 l 156 209 q 153 208 155 209 q 149 205 151 208 q 142 194 145 202 q 136 179 138 186 q 136 172 136 174 l 136 170 q 137 165 137 168 q 136 161 137 164 q 133 156 136 159 q 127 153 130 153 q 121 148 125 153 q 113 135 117 142 q 106 120 107 125 l 106 119 q 109 114 106 116 q 112 111 112 113 q 111 107 112 109 q 104 100 110 106 q 89 84 94 93 q 83 68 83 75 q 86 64 83 64 q 90 65 87 64 q 92 66 92 66 q 94 66 93 66 q 96 64 96 66 q 93 61 96 62 q 85 58 90 59 q 78 54 81 56 q 75 48 75 51 q 76 43 75 43 q 82 48 77 43 q 94 56 85 51 q 111 64 102 60 q 125 73 119 69 q 130 79 130 77 l 130 81 q 134 84 130 84 q 137 83 135 84 l 138 83 q 156 90 142 83 q 188 105 170 96 q 220 123 206 115 q 233 135 233 132 q 235 140 233 137 q 239 145 236 142 q 243 148 241 148 l 244 148 q 247 145 245 148 q 252 143 248 143 q 257 144 253 143 q 273 151 260 145 q 317 176 300 164 q 334 192 334 187 q 337 195 334 194 q 344 197 340 197 q 351 198 347 197 q 356 201 355 199 q 357 203 357 202 q 355 201 357 203 q 352 201 353 201 q 351 201 351 201 q 352 205 351 203 q 357 212 354 211 l 358 212 q 363 207 361 212 q 366 205 363 205 q 378 210 370 205 q 387 216 383 213 q 389 220 389 218 l 389 221 q 391 225 389 222 q 397 231 393 228 q 404 237 403 237 q 403 231 404 235 q 402 229 402 230 q 404 227 402 227 l 406 228 q 422 236 408 229 q 438 246 431 241 q 444 254 444 252 q 448 263 444 260 q 452 264 450 264 q 457 262 454 264 q 465 260 460 260 q 472 261 467 260 q 483 267 476 262 q 491 277 490 272 q 498 287 493 284 q 514 289 503 289 q 518 288 515 289 q 526 286 522 287 q 530 286 528 286 q 535 287 532 286 q 540 295 537 288 q 554 309 543 300 q 575 323 564 317 q 593 330 587 330 q 600 333 595 330 q 609 340 604 336 q 622 350 614 345 q 639 359 631 355 q 658 376 658 368 q 664 387 658 385 q 668 388 666 388 q 678 385 673 388 q 685 383 682 383 l 686 383 q 689 389 688 384 q 702 403 692 394 q 723 420 711 412 q 739 427 734 427 q 745 429 742 427 q 749 433 748 431 q 758 440 751 435 q 772 451 764 446 q 786 460 780 456 q 793 465 792 464 q 807 475 794 467 q 838 497 820 484 q 887 531 871 519 q 910 547 903 542 q 926 559 918 553 q 939 570 932 565 q 949 576 945 574 q 989 613 958 578 q 997 619 993 616 q 1002 622 1000 622 q 1028 640 1007 622 q 1071 681 1049 659 q 1092 706 1084 694 q 1110 739 1099 717 q 1117 752 1114 746 q 1123 759 1121 758 m 174 108 q 181 113 177 111 q 186 115 184 115 q 189 114 189 115 q 176 106 189 112 q 168 103 169 103 q 174 108 168 104 m 201 122 q 204 129 201 125 q 210 133 208 132 q 213 134 212 134 q 216 132 215 134 q 216 130 216 131 q 215 127 216 129 q 210 123 214 125 q 205 121 206 121 q 203 121 203 121 q 201 122 201 121 m 161 39 q 163 41 162 40 q 165 43 165 43 q 167 41 166 43 q 168 39 168 40 q 166 35 168 37 q 163 34 165 34 q 161 35 161 34 l 161 36 q 161 39 161 37 m 195 56 q 197 58 196 57 q 199 60 199 60 q 201 58 200 60 q 201 56 201 57 q 200 52 201 54 q 197 51 199 51 q 195 52 195 51 l 195 53 q 195 56 195 54 m 328 127 q 329 130 328 130 q 331 130 330 130 q 332 130 332 130 q 335 127 334 128 q 336 125 336 125 q 335 123 336 124 q 332 123 334 123 q 329 124 330 123 q 328 127 328 125 z "},"E":{"ha":975,"x_min":-117,"x_max":1192,"o":"m -86 -192 q -81 -186 -81 -188 l -83 -186 q -91 -187 -85 -186 q -98 -188 -94 -188 q -103 -187 -100 -188 q -112 -181 -108 -186 q -117 -173 -117 -176 l -117 -171 q -113 -160 -117 -167 q -109 -148 -109 -153 q -110 -144 -109 -146 q -111 -143 -111 -144 q -104 -138 -111 -140 q -85 -130 -97 -134 q -61 -125 -73 -127 q -46 -123 -54 -125 q -36 -119 -39 -121 q -28 -115 -32 -117 q -22 -114 -24 -114 q -13 -112 -20 -114 q 1 -105 -6 -109 q 18 -99 9 -102 q 33 -97 27 -97 q 81 -66 69 -97 q 87 -45 83 -58 q 96 -22 92 -33 q 103 -2 100 -11 q 106 8 106 7 q 108 16 106 10 q 115 26 111 21 q 120 39 118 33 q 123 50 123 45 q 125 57 123 54 q 130 61 127 60 q 134 65 132 62 q 136 70 136 67 q 140 84 136 73 q 151 109 144 95 q 163 136 158 123 q 168 152 168 148 q 171 161 169 157 q 176 166 173 165 q 187 181 180 169 q 201 208 195 194 q 208 227 208 222 q 211 233 208 229 q 218 241 214 237 q 225 250 222 245 q 229 256 229 254 q 233 266 229 258 q 243 280 237 273 q 254 298 249 288 q 262 315 260 308 q 265 328 265 324 l 265 329 q 260 335 265 333 q 256 339 258 337 q 254 345 254 342 q 243 349 254 349 q 233 348 239 349 q 219 347 223 347 q 213 349 214 347 q 212 355 212 351 q 213 364 212 358 q 216 375 214 370 q 220 385 218 380 q 221 390 221 389 l 221 391 q 225 395 221 393 q 235 396 229 396 q 243 394 240 396 q 252 390 247 390 l 253 390 q 258 395 258 390 q 272 406 258 401 q 303 410 286 410 q 320 413 315 410 q 332 425 326 416 q 342 440 336 431 q 351 457 347 449 q 365 483 359 473 q 377 500 370 492 q 384 510 380 504 q 389 521 387 515 q 393 533 391 526 q 398 545 396 540 q 402 554 400 551 q 406 558 405 558 q 408 559 408 558 q 408 561 408 560 q 408 564 408 562 l 408 565 q 409 570 408 568 q 414 578 411 574 q 420 586 418 582 q 423 592 423 590 q 425 595 423 593 q 429 596 427 596 q 435 607 435 597 q 442 617 436 617 q 447 623 447 617 l 447 631 q 450 644 447 639 q 457 650 452 650 l 459 650 l 461 649 q 465 656 465 649 q 468 664 465 659 q 473 671 470 668 q 480 679 477 674 q 482 686 482 683 q 484 695 482 690 q 488 705 486 701 q 493 716 490 710 q 498 728 496 723 q 504 736 500 733 q 509 740 507 740 q 513 743 511 740 q 515 750 515 746 q 517 761 515 754 q 524 773 520 768 q 530 783 528 779 q 533 790 533 788 q 535 793 533 792 q 539 795 536 795 q 546 800 542 795 q 554 812 551 806 q 558 823 558 819 l 558 827 q 559 834 558 831 q 566 838 562 837 q 573 842 570 840 q 575 847 575 844 q 575 852 575 851 q 573 854 574 854 q 570 853 572 854 q 559 848 567 852 q 534 842 549 842 q 524 843 529 842 q 516 844 520 844 q 509 843 512 844 q 500 841 502 842 q 498 839 500 839 q 494 839 496 839 l 492 839 q 488 840 490 840 l 486 840 q 479 837 482 839 q 466 834 475 834 q 452 835 460 834 q 439 836 444 836 l 435 836 q 429 831 430 835 q 423 827 427 827 q 409 831 418 827 q 403 831 407 831 q 393 831 399 831 q 368 827 380 829 q 349 821 355 824 q 340 819 345 819 q 330 818 334 818 l 323 818 q 315 821 317 819 q 309 823 314 822 q 298 825 304 825 q 286 828 286 825 q 286 830 286 829 l 286 832 q 286 835 286 833 q 280 838 283 837 q 272 846 275 840 q 269 858 269 853 q 269 864 269 863 q 271 873 269 869 q 273 878 273 876 q 271 882 273 880 q 268 885 268 883 q 273 889 268 887 q 302 892 282 892 q 332 894 313 892 q 368 899 351 896 q 448 910 416 907 q 504 916 479 914 q 529 917 518 916 q 542 920 539 918 q 583 927 548 924 q 671 932 618 930 q 697 934 686 932 q 711 937 708 935 q 729 940 715 939 q 751 941 742 941 l 768 940 q 792 937 787 939 q 798 936 795 936 q 805 940 802 936 q 844 949 809 947 q 865 951 860 951 q 871 951 870 951 q 877 950 876 951 q 880 945 880 949 q 881 941 880 943 q 884 939 882 939 q 886 940 885 939 q 888 942 888 941 q 894 948 888 945 q 905 951 901 951 q 911 951 909 951 q 917 950 915 951 q 922 947 920 947 q 926 950 924 947 q 939 955 930 954 q 951 956 947 956 l 962 955 q 975 951 972 954 q 977 949 976 949 q 983 954 980 949 q 995 959 986 957 q 1013 961 1004 961 q 1027 958 1022 960 l 1031 958 q 1034 960 1033 958 q 1047 963 1036 963 q 1069 960 1058 962 q 1085 953 1080 958 q 1098 947 1091 947 l 1099 947 q 1112 954 1107 947 q 1115 959 1114 958 q 1117 960 1116 960 q 1120 959 1118 960 q 1128 954 1122 958 q 1139 950 1137 950 q 1143 950 1142 950 q 1150 952 1146 950 q 1158 956 1155 956 q 1162 953 1160 956 q 1168 949 1163 951 q 1178 945 1173 947 q 1191 940 1190 942 q 1192 937 1192 938 q 1183 935 1192 935 q 1173 924 1176 935 q 1166 916 1172 919 q 1144 909 1160 912 q 1098 903 1128 906 q 1084 900 1090 901 q 1078 897 1078 898 q 1074 892 1078 893 q 1068 891 1071 891 l 1065 891 q 1055 894 1059 892 q 1043 897 1050 897 q 1034 897 1036 897 q 1014 895 1024 897 q 995 889 1002 893 q 985 885 989 885 q 971 888 979 885 q 958 891 964 890 q 949 890 952 891 q 943 888 945 888 q 939 888 941 888 l 937 888 q 933 886 935 888 q 930 883 931 885 q 918 880 928 881 q 900 878 909 878 q 884 878 890 878 l 873 878 q 859 881 863 879 q 855 882 858 882 l 852 882 q 844 878 848 880 q 836 874 840 876 q 828 873 831 873 l 825 873 l 821 874 l 816 873 q 809 871 812 873 q 798 868 807 869 q 777 867 789 867 l 764 867 q 696 859 720 867 q 686 856 689 856 q 682 858 682 856 q 675 863 680 863 q 666 858 672 863 q 644 827 654 848 q 633 804 641 819 q 616 772 625 788 q 597 738 607 755 q 582 710 588 721 q 571 691 576 701 q 562 677 565 682 q 556 669 558 673 q 554 663 554 665 q 548 651 554 661 q 534 629 543 641 q 518 604 526 616 q 507 586 511 591 q 456 497 478 532 q 445 478 449 487 q 440 469 440 470 q 437 463 440 467 q 429 454 434 458 q 421 444 425 448 q 418 439 418 440 q 423 437 418 437 l 427 437 q 446 439 436 437 q 462 445 456 441 q 471 447 465 446 q 484 448 477 448 q 497 450 489 448 q 510 452 505 451 q 527 456 515 454 q 552 459 539 458 q 595 463 578 461 q 638 471 611 465 q 692 478 674 478 q 710 471 710 478 q 713 465 710 466 l 715 465 q 721 469 718 465 l 722 471 l 721 473 q 718 473 720 473 q 715 475 715 473 l 715 476 q 728 479 718 477 q 749 481 739 480 q 765 481 760 481 q 776 481 771 481 q 787 479 787 481 q 798 477 787 477 q 826 476 810 476 q 864 474 857 476 q 871 469 871 472 q 868 465 871 467 q 866 460 866 463 q 865 456 865 458 l 865 454 q 866 450 866 451 q 865 449 866 449 q 863 450 865 449 q 860 451 861 451 q 858 448 858 450 q 855 446 858 447 q 848 444 852 444 q 840 443 844 444 q 835 439 836 441 q 831 437 833 437 q 827 437 828 437 q 820 438 823 437 q 814 439 817 439 q 808 438 811 439 q 798 432 804 437 q 790 426 794 428 q 785 423 787 423 q 761 420 779 422 q 723 416 743 418 q 698 412 704 414 q 685 410 693 412 q 668 408 676 409 q 653 405 660 407 q 645 403 647 404 q 637 400 643 401 q 626 399 632 399 q 609 397 614 398 q 602 396 604 397 q 600 393 600 395 q 598 391 600 391 q 594 391 596 391 l 590 391 q 585 392 588 392 q 579 391 583 392 q 567 387 573 390 q 558 384 562 385 q 552 382 554 382 q 549 383 551 382 q 547 384 549 384 q 544 383 546 384 q 537 380 541 382 q 527 378 533 378 q 515 380 522 378 q 505 382 508 382 l 503 382 q 492 376 498 382 q 479 370 486 370 q 474 370 476 370 q 468 371 470 371 q 465 369 465 370 q 461 366 465 367 q 454 366 458 366 l 450 366 q 439 365 444 366 q 433 363 434 364 q 431 361 432 361 l 429 361 q 427 362 428 361 l 425 362 q 420 361 423 362 q 408 357 414 360 q 397 353 401 354 q 389 352 392 352 q 385 353 387 352 q 382 353 383 353 q 379 353 380 353 q 376 351 376 353 q 374 348 376 349 q 368 347 372 347 q 362 345 365 347 q 357 340 359 342 q 352 330 357 336 q 342 317 348 323 q 334 306 337 311 q 330 297 330 300 q 329 294 330 295 q 326 292 328 292 q 320 285 324 292 q 312 269 316 277 q 309 256 309 260 q 306 250 309 254 q 299 241 303 245 q 292 232 295 236 q 289 227 290 228 q 285 219 288 224 q 277 209 282 214 q 266 192 273 203 q 254 169 259 180 q 218 102 225 110 q 212 90 216 99 q 203 70 208 81 q 194 47 199 59 q 185 28 189 35 q 174 7 181 20 q 161 -18 168 -5 q 148 -42 151 -39 q 143 -45 144 -45 q 138 -39 140 -45 q 135 -33 136 -33 q 131 -39 134 -33 q 129 -46 129 -43 q 130 -50 129 -48 q 138 -54 132 -54 q 142 -55 141 -54 q 142 -57 142 -56 q 142 -59 142 -58 q 139 -61 140 -60 q 137 -61 138 -61 l 135 -61 q 134 -62 134 -61 q 134 -67 134 -64 q 142 -75 136 -75 q 155 -69 146 -75 q 164 -65 158 -66 q 176 -63 170 -63 q 192 -61 181 -63 q 214 -56 203 -59 q 244 -49 232 -51 q 275 -45 256 -47 q 287 -44 281 -45 q 294 -41 292 -43 q 307 -37 297 -39 q 330 -33 317 -35 q 357 -30 344 -31 q 376 -26 370 -28 l 380 -26 q 388 -27 384 -26 q 397 -30 393 -28 q 401 -33 400 -33 q 401 -32 401 -33 l 401 -31 q 400 -28 400 -29 q 401 -24 400 -26 q 408 -19 404 -20 q 415 -17 412 -17 q 419 -18 417 -17 q 426 -18 421 -18 q 439 -18 431 -18 q 475 -14 454 -16 q 519 -9 504 -9 q 532 -11 528 -9 q 545 -13 539 -13 q 554 -13 551 -13 q 564 -12 559 -13 q 569 -9 569 -11 l 569 -8 q 568 -5 568 -7 q 595 3 568 0 q 617 5 610 4 q 629 5 625 5 q 638 5 633 5 q 646 3 646 4 q 641 1 646 3 q 636 -2 636 -1 q 646 -3 636 -3 q 661 3 659 -3 q 666 7 663 5 q 675 9 670 9 q 681 8 679 9 q 683 5 683 7 l 683 5 q 682 2 682 3 l 682 1 q 684 1 682 1 q 688 2 686 1 q 690 7 690 4 q 694 11 692 9 q 700 13 697 13 q 705 11 703 13 q 709 7 707 9 q 715 1 711 1 q 724 6 720 1 q 732 9 726 9 q 747 10 738 10 l 756 10 q 802 9 772 10 q 855 5 832 7 q 882 1 878 3 q 887 -3 887 -1 q 880 -7 887 -5 q 873 -12 873 -10 q 876 -12 873 -12 q 881 -13 880 -12 q 882 -16 882 -14 l 882 -16 q 881 -19 881 -18 l 881 -20 q 884 -21 882 -21 q 889 -22 889 -22 l 888 -23 q 872 -26 884 -24 q 846 -29 861 -28 q 815 -32 831 -31 q 765 -35 790 -33 q 720 -40 739 -37 q 695 -43 700 -42 q 690 -45 690 -44 q 696 -46 690 -45 l 717 -47 l 696 -50 q 642 -56 656 -56 q 634 -54 634 -56 q 639 -51 634 -52 q 651 -50 644 -50 q 663 -49 658 -50 q 670 -47 669 -48 q 661 -45 670 -45 l 655 -45 q 617 -49 640 -45 q 608 -51 608 -50 q 607 -52 607 -52 q 611 -54 607 -53 q 615 -57 615 -56 l 615 -58 q 605 -60 614 -59 q 565 -67 578 -65 q 546 -68 553 -68 l 543 -68 q 534 -65 536 -68 q 527 -59 530 -59 q 524 -65 524 -59 q 517 -73 524 -71 q 491 -77 509 -75 l 487 -77 q 471 -73 473 -77 q 468 -68 469 -70 q 465 -67 466 -67 q 462 -68 463 -67 q 462 -71 462 -70 q 463 -73 462 -71 q 463 -75 463 -74 q 450 -83 463 -81 q 440 -83 444 -83 q 432 -81 433 -83 q 429 -77 431 -79 q 425 -76 427 -76 q 421 -77 422 -76 q 420 -78 420 -77 l 420 -80 q 421 -82 421 -81 q 418 -86 421 -84 q 411 -90 415 -90 q 407 -90 408 -90 q 399 -88 403 -90 q 393 -86 396 -85 q 387 -90 391 -86 q 379 -95 384 -93 q 369 -97 374 -97 q 354 -99 363 -97 q 334 -103 344 -100 q 314 -107 324 -106 q 298 -109 303 -109 q 287 -111 292 -109 q 281 -113 283 -112 q 277 -116 281 -115 q 268 -117 273 -117 q 259 -118 263 -117 q 255 -121 256 -119 q 251 -124 254 -123 q 247 -124 248 -124 q 239 -123 243 -124 q 231 -123 235 -123 q 218 -126 222 -123 q 208 -131 215 -129 q 194 -133 201 -132 q 179 -136 186 -134 q 171 -142 173 -138 q 166 -146 168 -146 q 163 -146 163 -146 q 153 -144 159 -146 q 144 -142 148 -142 l 142 -142 q 132 -149 137 -143 q 111 -155 123 -155 l 107 -155 q 102 -155 104 -155 q 97 -155 99 -155 q 92 -157 93 -155 q 83 -162 91 -159 q 64 -167 75 -165 q 45 -169 54 -169 q 37 -171 41 -169 q 31 -175 33 -172 q 10 -181 30 -181 q -6 -182 2 -181 q -18 -186 -14 -184 q -28 -190 -22 -188 q -41 -192 -35 -192 q -58 -194 -48 -193 q -75 -196 -67 -195 q -87 -197 -84 -197 l -90 -197 q -91 -196 -91 -197 q -86 -192 -91 -195 z "},"F":{"ha":503,"x_min":-111,"x_max":1100,"o":"m -110 -153 l -110 -153 q -107 -147 -109 -150 q -105 -141 -106 -144 q -104 -138 -104 -139 l -104 -137 q -106 -135 -105 -135 q -109 -129 -109 -135 l -109 -126 q -105 -107 -109 -118 q -96 -88 -102 -96 q -89 -74 -92 -82 q -85 -62 -86 -66 q -83 -52 -85 -56 q -79 -45 -81 -47 q -76 -40 -77 -43 q -74 -34 -74 -37 q -71 -25 -74 -31 q -63 -12 -68 -18 q -56 1 -59 -5 q -53 8 -53 7 q -50 17 -53 10 q -38 43 -47 24 q -14 97 -30 62 q -6 116 -9 108 q -4 126 -4 123 l -4 127 q -5 129 -5 128 q -4 131 -5 130 q -1 134 -3 133 q 34 191 12 140 q 44 210 37 199 q 56 230 50 221 q 68 257 68 248 l 68 259 q 68 262 68 260 q 76 277 68 269 q 92 299 84 285 q 100 321 100 313 q 101 327 100 323 q 106 332 103 330 q 111 337 109 334 q 113 343 113 340 q 117 351 114 346 q 124 361 120 356 q 132 375 132 372 l 132 376 q 123 378 132 378 l 119 378 q 106 383 106 378 l 106 385 q 93 389 106 389 l 78 389 l 79 413 q 85 438 79 432 q 117 446 92 444 q 161 454 142 450 q 183 463 180 459 q 185 468 184 465 q 187 475 186 472 q 190 484 188 479 q 194 490 192 488 q 199 500 197 493 q 203 515 201 507 q 210 532 205 532 q 212 531 211 532 l 214 531 q 220 535 217 531 q 226 545 224 541 q 227 552 227 550 q 225 557 227 555 q 223 563 223 559 l 223 564 q 229 575 224 568 q 236 585 233 581 q 239 591 239 589 q 243 597 239 593 q 252 605 247 602 q 260 609 257 609 q 263 611 262 609 q 264 616 264 613 q 266 624 264 620 q 271 632 268 629 q 275 641 273 635 q 277 650 277 646 q 278 656 277 654 q 281 658 279 658 l 281 658 l 282 657 q 285 659 283 657 q 288 668 287 663 q 291 677 289 673 q 294 681 292 681 q 303 691 296 681 q 317 713 311 701 q 323 729 323 724 q 325 738 323 733 q 330 745 327 743 q 333 750 332 748 q 334 753 334 752 q 333 754 334 754 q 332 755 332 755 q 334 757 332 756 q 339 760 335 758 q 352 774 347 762 q 359 801 358 786 q 366 814 359 814 l 366 814 q 379 821 375 814 q 383 832 383 827 q 382 838 383 835 q 380 846 380 842 q 382 855 380 851 q 387 859 384 859 q 395 863 390 859 q 404 873 400 867 q 408 882 408 880 q 404 887 408 886 q 399 887 401 887 q 379 886 392 887 q 356 883 367 884 q 341 882 345 882 q 321 880 336 881 q 287 877 306 878 q 260 876 271 876 q 236 880 239 876 q 231 883 233 883 q 225 880 228 883 q 219 877 223 878 q 211 875 215 875 q 203 873 208 875 q 197 869 199 871 q 188 863 192 863 l 186 863 q 173 873 181 864 q 164 881 169 878 q 157 884 160 884 q 154 886 155 884 q 152 891 152 888 q 151 899 151 895 q 149 905 150 903 q 148 909 148 907 q 154 916 148 913 q 162 920 161 918 l 163 922 q 157 926 163 926 q 155 927 155 926 q 159 930 155 928 q 186 934 162 931 q 243 939 210 937 q 303 943 276 941 q 337 947 330 945 q 349 950 344 949 q 357 950 354 950 q 361 949 359 950 q 365 949 363 949 q 371 949 368 949 q 385 954 378 951 q 396 957 391 956 q 404 958 401 958 q 408 958 406 958 l 424 958 q 451 960 436 958 q 525 967 491 965 q 617 968 559 968 q 760 966 676 968 q 896 962 844 964 q 1005 956 970 958 q 1062 951 1040 954 q 1100 940 1100 946 q 1097 937 1100 939 q 1095 934 1095 935 q 1095 932 1095 932 l 1095 928 q 1038 913 1095 917 q 1033 912 1034 913 q 1031 910 1031 911 l 1031 909 q 1022 905 1031 907 q 1004 904 1013 904 q 991 904 995 904 q 971 905 981 904 q 958 906 964 906 q 953 904 953 905 q 948 901 953 902 q 939 901 944 901 l 934 901 q 920 903 926 901 q 911 906 913 904 q 903 911 907 910 q 896 912 899 912 q 890 911 893 912 q 887 907 887 910 l 887 906 q 888 904 888 905 q 885 902 888 903 l 882 902 q 869 903 878 902 q 852 905 861 903 q 838 907 843 906 q 831 908 834 908 q 822 905 825 908 q 817 901 820 901 q 811 903 814 901 q 804 905 808 904 q 798 905 800 905 l 794 905 q 792 907 793 906 q 789 910 792 909 q 782 911 786 911 l 779 911 q 774 911 777 911 q 771 909 771 910 q 767 905 771 905 q 760 905 763 905 l 753 905 q 743 910 746 907 q 738 913 740 913 q 734 911 736 913 q 623 903 730 906 q 544 901 576 902 q 508 898 511 899 q 502 893 505 897 q 496 884 498 889 q 488 869 494 880 q 475 848 481 859 q 451 805 458 819 q 435 776 444 791 q 427 759 431 767 q 421 749 422 751 q 397 708 410 730 q 375 668 385 686 q 366 648 366 650 q 363 642 366 646 q 357 632 360 637 q 348 620 353 627 q 340 608 343 613 q 311 554 326 580 q 287 511 297 528 q 277 491 281 501 q 273 478 273 481 q 275 471 273 472 q 279 470 277 470 q 286 471 282 470 q 356 477 309 475 q 432 480 404 479 q 468 480 460 480 q 514 478 500 480 q 516 474 515 478 q 517 463 517 469 q 515 451 517 454 q 509 448 514 448 q 503 446 507 448 q 495 441 498 444 q 472 432 490 436 q 440 426 454 427 q 420 424 426 424 q 410 425 413 424 q 406 425 408 425 l 404 425 q 398 423 400 425 q 371 417 394 421 q 317 409 347 413 q 262 404 287 406 q 227 395 238 403 q 204 365 215 387 q 188 347 195 347 q 182 343 182 347 q 182 340 182 342 l 182 339 q 180 327 182 336 q 170 303 176 317 q 159 279 163 290 q 155 268 155 269 q 152 262 155 266 q 146 256 149 259 q 140 250 142 253 q 138 245 138 246 q 135 237 138 243 q 127 224 132 231 q 119 211 122 217 q 116 201 116 204 q 111 190 116 199 q 97 168 105 180 q 84 146 90 155 q 78 134 79 136 q 75 124 78 132 q 66 108 71 117 q 51 81 60 99 q 33 44 41 62 q 17 14 24 26 q 7 -1 9 1 q 3 -6 5 -3 q 2 -13 2 -9 q -2 -28 2 -19 q -11 -42 -7 -37 q -18 -48 -16 -48 l -19 -48 q -20 -47 -20 -47 q -22 -49 -22 -47 l -21 -52 q -20 -55 -20 -54 l -20 -57 q -23 -61 -21 -60 l -26 -61 q -27 -59 -27 -61 q -28 -56 -27 -57 q -32 -54 -30 -54 q -34 -56 -34 -54 q -32 -63 -34 -58 q -28 -73 -28 -71 q -30 -75 -28 -75 q -33 -75 -31 -75 q -36 -74 -35 -74 q -39 -82 -39 -74 l -39 -84 q -45 -103 -39 -93 q -56 -121 -50 -114 q -67 -127 -62 -127 l -68 -127 q -71 -127 -70 -127 q -73 -130 -73 -127 l -73 -135 q -78 -141 -73 -141 q -84 -143 -81 -141 q -90 -148 -87 -145 q -98 -155 -94 -153 q -106 -157 -103 -157 l -107 -157 q -111 -155 -111 -157 l -110 -153 z "},"G":{"ha":894,"x_min":-84,"x_max":903,"o":"m 49 -56 q 43 -54 47 -56 q 33 -52 39 -53 q 11 -42 25 -51 q -16 -22 -3 -33 q -28 -7 -28 -12 q -30 5 -29 2 q -32 8 -31 9 q -34 5 -33 8 q -37 4 -35 4 q -43 7 -39 4 q -54 21 -49 12 q -60 36 -60 29 q -62 44 -60 40 q -66 51 -64 49 q -73 83 -73 55 q -80 121 -73 111 q -84 132 -84 128 q -83 135 -84 134 q -79 140 -81 136 q -78 149 -78 144 q -75 158 -77 153 q -68 166 -72 163 q -61 178 -61 172 q -62 182 -61 180 q -62 187 -62 184 l -62 190 q -61 197 -62 195 q -57 210 -59 201 q -52 227 -54 218 q -47 243 -50 235 q -41 254 -44 251 q -38 264 -39 257 q -37 280 -37 272 q -36 295 -37 289 q -34 300 -35 300 q -31 304 -33 300 q -28 313 -30 308 q -25 323 -27 319 q -22 328 -23 327 q -19 332 -20 329 q -18 338 -18 335 q -17 345 -18 342 q -14 347 -16 347 q -11 350 -12 347 q -9 357 -9 353 q 1 374 -9 367 q 8 381 7 378 q 9 385 9 383 q 7 391 9 387 q 5 402 5 397 q 6 408 5 405 q 12 414 7 414 q 16 417 14 414 q 19 422 18 419 q 23 430 20 425 q 30 439 26 435 q 34 448 33 444 q 35 454 35 452 q 35 458 35 456 l 35 463 q 37 465 35 465 q 39 467 38 465 q 39 471 39 469 q 39 475 39 473 l 39 476 q 43 491 39 481 q 56 511 48 502 q 66 520 63 520 q 70 523 68 520 q 71 528 71 525 q 73 535 71 532 q 77 538 75 538 q 82 542 80 540 q 83 547 83 545 l 83 550 q 86 560 83 555 q 95 567 90 567 q 100 571 100 567 q 99 574 100 572 l 99 576 q 102 587 99 580 q 113 605 106 596 q 122 613 119 613 q 126 617 123 613 q 132 625 130 621 q 152 655 138 635 q 180 692 165 675 q 200 715 194 710 q 206 719 203 718 q 210 720 209 720 l 212 720 q 215 722 213 720 q 219 729 217 725 q 228 741 220 734 q 243 755 235 749 q 260 769 252 762 q 270 781 267 777 q 276 788 272 785 q 282 793 279 791 q 293 800 286 794 q 307 812 300 805 q 333 828 323 828 q 336 827 334 828 l 342 827 q 343 828 343 827 l 343 829 q 347 838 343 833 q 360 849 353 844 q 372 854 368 854 q 383 858 375 854 q 399 867 391 861 q 415 876 408 872 q 424 880 422 880 q 435 883 426 880 q 454 892 444 887 q 491 908 467 898 q 538 926 515 918 q 564 935 561 935 q 565 935 565 935 q 564 938 565 937 l 564 939 q 567 940 564 939 q 578 942 571 941 q 599 945 585 942 q 627 953 613 949 q 654 962 646 960 q 666 964 662 964 q 669 963 667 964 q 676 956 673 961 q 686 948 679 953 q 703 939 694 943 q 717 930 712 934 q 726 918 722 926 q 735 894 730 910 q 744 860 743 871 q 745 846 745 850 q 741 816 745 831 q 739 802 740 811 q 737 782 738 792 q 702 708 734 741 q 686 694 692 698 q 668 691 679 691 q 655 692 661 691 q 650 694 650 693 q 648 697 650 696 q 644 698 646 698 q 636 704 640 698 q 633 713 633 709 l 633 717 q 634 722 633 719 q 635 729 635 726 q 636 736 635 733 q 637 741 637 740 q 641 748 637 743 q 652 759 646 753 q 665 774 661 766 q 671 795 669 783 q 675 814 673 805 q 676 828 676 823 q 677 835 676 833 q 680 836 679 836 q 684 836 682 836 q 688 835 687 835 q 690 836 690 835 l 690 836 q 686 842 690 838 q 682 858 682 849 q 682 865 682 861 q 683 872 683 869 q 679 886 683 881 q 673 889 676 889 q 667 886 670 889 q 663 882 665 883 q 660 882 661 882 q 656 883 658 882 q 642 885 653 885 q 618 885 631 886 q 600 881 606 884 q 588 876 595 879 q 574 871 581 873 q 558 866 568 869 q 542 860 549 863 q 495 840 521 852 q 447 815 469 827 q 418 796 425 803 q 410 789 414 792 q 403 787 406 787 q 398 786 401 787 q 395 783 396 785 q 389 778 395 782 q 375 768 383 773 q 357 755 367 762 q 340 741 347 747 q 328 731 334 735 q 321 727 322 727 q 304 714 317 727 q 274 683 291 701 q 244 647 258 665 q 221 618 234 634 q 200 590 209 602 q 134 486 161 540 q 122 465 128 476 q 112 446 116 454 q 103 429 108 439 q 97 410 99 418 q 89 390 94 402 q 79 368 84 378 q 70 347 75 358 q 62 328 64 335 q 56 314 60 321 q 49 304 52 307 q 44 296 46 301 q 41 286 41 290 q 39 272 41 281 q 33 255 37 263 q 27 237 30 246 q 23 222 24 227 q 21 211 22 216 q 18 203 19 205 q 6 153 12 193 q -3 69 0 114 q -3 61 -3 65 q 31 18 -3 26 q 59 13 50 13 q 66 17 66 13 q 68 20 66 19 q 73 22 71 22 q 80 23 75 22 q 91 28 85 25 q 102 32 96 31 q 115 34 109 34 q 126 37 120 35 q 138 42 133 39 q 154 52 143 45 q 176 64 165 58 q 217 88 197 73 q 267 128 238 103 q 311 155 297 155 q 314 154 313 155 q 316 153 315 153 q 318 156 318 153 q 317 161 318 158 l 317 167 q 319 170 317 170 q 329 175 321 170 q 345 190 336 181 q 362 205 353 199 q 374 214 370 212 q 387 221 380 216 q 399 232 394 227 q 405 241 405 238 q 408 244 405 243 q 416 245 411 245 q 425 251 425 245 l 425 253 q 431 263 425 255 q 454 291 437 272 q 503 344 471 309 q 527 374 527 368 q 525 376 527 376 q 520 375 523 376 q 503 372 517 374 q 473 370 490 371 q 443 368 456 369 q 429 365 431 366 q 408 363 427 364 q 363 361 390 362 q 252 351 268 360 q 245 349 249 349 q 235 353 241 349 q 226 358 231 356 q 218 359 221 359 q 211 362 212 359 q 211 365 211 364 q 216 370 211 368 q 218 371 218 370 q 217 372 218 372 q 211 375 216 373 q 196 379 205 376 q 184 388 188 382 q 180 399 180 393 l 180 400 q 186 408 180 406 q 191 410 189 408 q 192 413 192 412 l 192 414 q 191 417 191 416 q 212 422 191 422 l 220 422 q 246 423 237 422 q 266 424 256 423 q 293 428 275 425 q 325 431 307 430 q 355 433 342 433 q 376 434 367 433 q 386 437 385 435 q 393 438 388 438 l 396 438 q 410 434 403 437 q 420 427 417 431 q 425 423 424 423 q 426 428 426 423 l 426 429 q 457 442 426 442 l 465 442 q 494 435 490 441 q 497 431 496 431 q 498 435 498 431 l 498 437 q 500 442 498 440 q 505 445 502 444 q 541 447 524 446 q 583 450 557 448 q 622 452 600 450 q 663 455 645 454 q 690 457 680 456 q 705 458 701 458 q 711 457 709 458 q 722 457 715 457 q 737 456 730 456 q 758 450 755 456 q 762 445 759 446 q 766 444 764 444 q 769 445 768 444 q 772 450 772 446 q 777 455 772 454 q 793 457 782 457 q 809 456 806 457 q 812 453 812 455 q 812 450 812 452 q 811 448 811 450 q 814 446 811 446 l 816 446 q 829 447 820 446 q 840 448 835 448 q 850 445 848 448 q 856 441 852 443 q 865 440 861 440 q 878 439 870 440 q 890 437 885 438 q 901 434 899 436 q 903 428 903 431 l 903 426 q 893 416 901 417 q 880 416 889 416 q 860 415 871 416 q 841 413 846 415 q 836 408 836 412 q 839 402 836 406 q 845 398 842 399 q 849 396 849 397 q 831 393 849 394 q 814 391 820 391 q 806 392 808 391 q 804 395 804 393 q 806 402 804 398 q 808 408 808 406 q 808 409 808 408 q 800 413 807 411 q 792 414 795 414 q 783 408 783 414 q 784 404 783 406 l 785 401 l 784 397 q 781 393 783 395 q 767 390 777 391 q 746 389 758 389 q 726 390 734 389 q 718 393 718 391 q 716 396 718 395 q 711 397 714 397 q 707 399 709 397 q 705 404 705 401 q 703 410 705 409 l 701 410 q 695 408 699 410 q 694 404 694 406 q 696 399 694 401 q 707 393 699 394 l 709 393 q 712 392 712 393 q 705 389 712 391 q 694 388 699 388 q 690 391 690 388 q 690 394 690 392 l 691 395 l 690 397 q 688 397 690 397 q 685 396 686 397 q 684 391 684 394 q 682 387 684 389 q 676 385 680 385 q 669 384 673 384 q 663 382 665 383 q 655 382 660 382 q 645 381 650 381 q 635 379 638 381 q 633 372 633 377 q 631 364 633 368 q 627 357 629 359 q 622 350 624 354 q 621 341 621 345 q 618 332 621 337 q 612 323 616 327 q 607 318 608 321 q 606 313 606 315 l 606 313 q 606 310 606 311 q 604 299 606 306 q 594 280 600 290 q 585 269 589 270 q 580 264 582 267 q 578 258 578 261 q 572 237 578 253 q 558 202 566 220 q 543 170 550 184 q 534 157 536 157 q 529 151 532 157 q 526 137 527 146 q 523 122 526 129 q 518 114 521 116 q 516 112 516 113 q 515 111 515 111 l 516 111 q 517 110 517 111 q 515 106 517 109 q 509 96 513 102 q 499 76 503 88 q 494 42 496 64 q 491 37 494 41 q 483 29 488 33 q 472 5 473 19 q 459 -19 471 -8 q 450 -28 454 -23 q 447 -35 447 -33 q 445 -41 447 -41 l 443 -41 q 437 -37 439 -41 q 436 -35 437 -35 q 435 -36 435 -35 q 431 -43 433 -38 q 417 -54 426 -54 q 411 -52 411 -54 q 412 -50 411 -51 q 412 -47 412 -48 q 411 -47 412 -47 q 408 -47 410 -47 q 405 -48 406 -48 q 397 -32 397 -48 q 399 -16 397 -25 q 406 16 401 1 q 414 36 410 31 q 417 41 416 38 q 418 47 418 44 q 420 56 418 50 q 425 68 422 62 q 432 85 429 79 q 436 94 435 91 q 437 98 437 97 q 437 101 437 100 l 437 103 q 442 125 437 109 q 459 170 449 146 q 468 198 468 190 q 464 203 468 203 q 461 201 463 203 q 460 197 460 199 q 458 192 460 194 q 455 191 457 191 q 453 189 454 191 l 453 189 q 454 186 453 187 l 454 184 l 454 183 q 450 182 453 182 q 442 179 448 182 q 429 171 435 176 q 412 163 418 163 q 409 165 410 163 q 406 168 408 168 q 404 166 405 168 q 403 163 403 165 l 403 163 q 406 160 404 161 q 408 158 408 159 q 407 156 408 157 q 396 146 405 153 q 371 125 388 138 q 351 109 361 118 q 332 92 340 99 q 318 81 324 85 q 309 77 311 77 q 305 75 307 77 q 302 71 303 73 q 279 51 299 65 q 234 22 260 37 q 189 -4 208 6 q 165 -14 170 -14 l 163 -14 q 162 -14 163 -14 q 161 -16 161 -14 l 161 -18 q 159 -22 161 -20 q 153 -24 157 -24 q 146 -26 149 -25 q 143 -29 143 -28 q 129 -37 143 -33 q 98 -45 115 -42 q 86 -47 92 -45 q 79 -50 81 -49 q 71 -54 78 -52 q 60 -57 64 -56 q 54 -57 56 -57 q 49 -56 50 -57 m 804 448 q 801 451 803 450 q 795 452 798 452 q 791 451 793 452 q 789 448 789 450 q 792 446 789 447 q 798 444 795 444 q 803 445 802 444 q 804 447 804 446 l 804 448 z "},"H":{"ha":823,"x_min":-97,"x_max":834,"o":"m 418 -87 q 415 -82 418 -84 q 411 -80 413 -80 q 405 -76 409 -79 q 398 -68 401 -73 q 393 -59 393 -62 l 393 -56 q 397 -44 393 -52 q 401 -34 400 -39 q 402 -26 402 -29 l 402 -24 q 401 -19 401 -22 l 401 -16 q 405 -7 402 -12 q 408 0 407 -3 q 409 4 409 3 l 409 5 q 410 8 409 7 q 413 9 411 9 q 416 10 415 9 q 416 13 416 12 q 416 15 416 14 q 415 18 415 16 q 416 20 415 19 q 419 26 416 24 q 423 37 423 30 q 422 43 423 39 q 422 49 422 46 q 422 53 422 52 q 429 59 424 57 q 437 70 437 62 q 436 75 437 72 l 436 79 q 440 87 436 86 q 445 91 443 89 q 446 96 446 94 q 449 106 446 98 q 455 121 452 113 q 462 146 462 136 q 461 151 462 149 l 461 158 q 463 161 461 161 q 466 163 465 161 q 467 170 467 166 q 470 179 467 173 q 475 191 472 186 q 482 206 479 197 q 486 221 485 214 q 490 234 488 229 q 495 240 492 239 q 499 245 498 241 q 501 254 501 249 q 504 266 501 258 q 512 280 507 273 q 519 293 516 287 q 523 301 522 299 q 525 308 523 304 q 529 315 526 311 q 532 322 532 319 q 533 328 533 326 l 533 331 q 532 334 532 332 q 533 340 532 337 q 537 351 534 345 q 542 360 540 356 q 544 365 544 364 q 508 366 544 366 q 426 366 473 366 q 343 365 380 366 q 300 364 306 365 q 296 362 297 364 q 294 357 294 360 q 291 352 294 353 q 286 351 288 351 q 280 352 283 351 q 271 357 275 353 q 250 364 267 364 q 221 363 242 363 q 176 363 201 363 q 141 362 153 363 q 123 360 128 361 q 118 356 119 359 q 115 350 117 353 q 113 347 114 348 q 106 337 111 345 q 99 322 102 330 q 96 311 96 314 q 94 303 96 309 q 90 294 92 298 q 85 283 87 288 q 83 274 83 277 q 82 269 83 271 q 79 265 81 266 q 77 259 78 264 q 75 249 76 255 q 73 237 75 243 q 68 229 71 231 q 63 221 65 225 q 62 214 62 218 q 61 210 62 212 q 58 208 60 208 q 54 203 56 208 q 49 192 52 198 q 44 177 47 184 q 39 163 41 169 q 33 149 36 157 q 28 132 30 140 q 22 117 25 123 q 18 110 20 111 q 15 104 16 109 q 14 94 14 99 q 10 83 14 83 l 9 83 q 8 84 9 84 q 7 82 7 84 q 8 77 7 81 q 9 74 9 75 q 8 71 9 72 q 6 68 7 68 q 4 66 4 68 q 4 64 4 65 l 4 61 q 5 58 5 60 q -1 52 5 54 q -8 47 -6 51 q -10 35 -10 43 q -32 9 -10 12 q -38 6 -35 9 q -42 1 -41 4 q -45 -6 -43 -3 q -51 -8 -48 -8 q -57 -6 -53 -8 q -66 1 -62 -3 q -71 5 -70 4 q -71 7 -71 7 q -71 9 -71 9 q -67 11 -68 9 q -66 16 -66 13 q -68 26 -67 20 q -71 39 -70 33 q -72 47 -72 44 q -71 52 -72 50 q -65 62 -70 57 q -59 71 -61 65 q -56 82 -56 77 q -55 95 -56 88 q -50 106 -53 102 q -46 117 -47 111 q -44 127 -44 123 q -42 138 -44 132 q -36 149 -39 144 q -29 167 -29 157 q -30 172 -29 170 l -30 182 q -27 188 -29 186 q -24 193 -25 189 q -22 201 -22 197 q -21 209 -22 205 q -17 216 -20 214 q -12 223 -14 218 q -9 237 -9 229 q -4 250 -7 243 q 3 260 -1 257 q 8 269 6 264 q 11 279 11 275 q 15 297 11 284 q 24 323 19 309 q 33 346 30 337 q 35 357 35 355 l 35 358 q 21 360 34 359 q -9 361 9 361 q -42 363 -28 362 q -62 366 -57 365 q -68 369 -68 368 l -68 370 q -63 375 -68 372 q -59 379 -59 378 l -59 380 q -73 383 -61 382 q -86 387 -80 385 q -95 391 -92 389 q -97 401 -97 395 q -95 413 -97 408 q -90 418 -93 418 q -87 420 -88 418 l -87 420 q -88 422 -87 422 l -88 423 q -83 429 -88 426 q -70 437 -78 433 q -57 440 -62 440 q -51 439 -54 440 q -45 436 -47 437 q -36 432 -42 433 q -25 431 -29 431 l -17 431 q -4 435 -8 432 q 3 439 -1 439 q 8 436 5 439 q 23 432 12 433 q 43 431 35 431 l 52 431 q 70 433 66 431 q 76 441 72 435 q 83 454 79 447 q 90 468 87 463 q 95 475 94 474 q 99 480 97 477 q 102 490 100 484 q 117 542 109 518 q 133 574 126 566 q 139 583 137 578 q 140 589 140 587 l 140 591 q 140 593 140 592 q 142 600 140 596 q 149 614 144 607 q 156 627 153 621 q 159 636 159 633 q 160 641 159 639 q 163 643 161 643 q 165 645 164 643 q 165 648 165 646 q 165 650 165 649 l 165 652 q 168 665 165 655 q 180 690 173 676 q 192 716 187 705 q 197 730 197 727 q 200 737 197 732 q 208 745 203 741 q 215 753 212 749 q 218 759 218 757 q 222 768 218 760 q 231 787 225 777 q 240 805 236 796 q 243 817 243 814 q 248 826 243 820 q 257 839 252 833 q 270 854 263 846 q 280 870 276 863 q 289 883 286 880 q 298 885 292 885 q 303 884 300 885 q 315 882 309 884 q 324 877 321 880 q 330 872 327 874 q 335 871 334 871 q 343 859 343 871 q 342 854 343 857 q 330 818 340 837 q 323 802 327 812 q 318 782 319 791 q 315 778 317 781 q 308 770 312 774 q 298 745 298 760 q 298 736 298 741 q 297 733 298 734 q 293 732 296 732 q 284 723 290 732 q 274 704 279 714 q 269 689 269 694 q 266 681 269 687 q 258 669 263 675 q 251 656 254 663 q 248 648 248 650 q 243 634 248 645 q 233 609 239 623 q 219 581 226 595 q 209 558 213 566 q 201 540 205 550 q 192 522 196 530 q 185 503 187 512 q 180 477 182 494 q 177 471 180 476 q 168 459 173 466 q 158 447 162 452 q 155 440 155 441 q 160 438 155 439 q 175 437 166 437 q 200 436 184 437 q 231 434 216 435 q 286 432 262 432 l 298 432 q 328 436 325 432 q 334 439 330 439 q 347 436 339 439 q 371 433 359 433 q 389 433 382 433 l 403 433 q 420 437 416 434 q 426 438 422 438 q 431 439 429 439 q 438 438 435 439 l 450 438 q 461 440 456 438 q 469 441 466 441 q 474 439 473 441 q 480 437 475 437 q 489 437 486 437 l 498 437 q 506 437 503 437 q 512 437 509 437 q 518 435 518 437 q 526 434 518 434 q 543 433 533 433 q 563 434 553 433 q 578 435 572 434 q 583 443 581 436 q 588 459 586 450 q 590 474 590 468 q 591 483 590 479 q 593 486 592 486 q 595 489 595 486 q 596 494 596 492 q 595 498 596 496 l 595 503 q 600 515 595 511 q 605 523 603 518 q 607 533 607 528 q 608 542 607 538 q 612 547 610 546 q 616 551 614 547 q 618 558 618 554 q 621 567 619 563 q 626 572 623 570 q 631 580 631 575 q 630 584 631 582 q 629 587 629 585 q 636 602 629 594 q 644 618 644 609 q 643 623 644 620 q 642 629 642 626 q 643 633 642 631 q 651 639 644 636 q 658 643 657 642 q 659 646 659 645 q 657 652 659 648 q 654 662 654 657 q 669 684 654 673 q 676 690 675 688 q 677 696 677 693 q 677 701 677 698 l 677 704 q 684 731 677 714 q 704 764 692 751 q 710 773 708 768 q 712 780 712 777 l 712 781 q 714 793 712 786 q 720 806 716 800 q 726 812 723 812 q 728 813 727 812 q 728 817 728 814 l 728 821 q 735 837 728 837 q 741 840 738 837 q 747 851 743 842 q 759 876 751 859 q 767 891 763 885 q 772 897 770 897 q 777 899 773 897 q 784 905 781 901 q 791 911 788 909 q 794 912 793 912 l 795 912 q 798 911 796 911 q 800 912 799 911 q 806 916 803 913 q 813 920 810 920 l 814 920 q 825 911 818 920 q 834 889 834 900 q 825 860 834 879 q 817 844 820 851 q 814 834 814 836 q 813 828 814 831 q 810 821 812 825 q 801 804 807 817 q 789 776 795 791 q 777 749 782 761 q 772 737 772 738 q 769 729 772 736 q 762 713 766 722 q 751 689 757 703 q 740 664 745 675 q 730 642 735 652 q 724 626 726 631 q 719 615 721 621 q 715 603 716 608 q 709 586 713 597 q 701 564 705 575 q 691 542 695 553 q 684 522 686 530 q 678 502 682 515 q 669 478 673 490 q 656 433 656 444 q 659 427 656 427 q 664 425 661 427 q 669 420 667 423 q 675 414 672 414 q 680 420 677 414 q 693 427 686 427 q 703 421 700 427 q 735 413 705 416 q 787 404 767 410 q 808 393 808 399 q 800 388 808 388 l 795 388 q 790 387 792 388 q 786 382 787 385 q 782 379 785 380 q 774 378 779 378 l 768 378 q 742 379 760 378 q 717 380 726 380 l 709 380 q 700 376 700 380 q 705 373 700 373 q 709 374 707 373 q 715 374 712 374 l 718 374 q 726 372 722 374 q 727 370 727 372 q 718 368 727 368 q 687 367 708 367 l 663 367 q 650 368 656 368 q 640 367 644 368 q 629 365 633 367 q 625 361 626 363 q 618 344 624 357 q 606 315 613 331 q 591 276 596 290 q 586 253 587 262 q 584 251 586 252 q 580 250 583 250 q 575 244 578 250 q 570 232 572 239 q 546 174 561 203 q 539 155 544 169 q 529 125 534 141 q 515 82 520 96 q 503 53 510 68 q 497 38 500 47 q 490 20 494 28 q 483 -1 488 10 q 475 -21 479 -12 q 468 -36 471 -29 q 465 -46 465 -43 q 462 -55 464 -49 q 458 -68 460 -62 q 453 -80 455 -78 q 448 -82 450 -82 q 443 -81 446 -82 q 438 -81 441 -81 q 427 -87 432 -81 q 422 -92 424 -92 q 418 -87 420 -92 m 646 379 q 641 380 644 380 q 635 379 638 380 l 635 378 q 641 377 635 377 q 647 378 647 377 l 646 379 m 735 369 l 735 370 q 739 372 735 370 q 748 372 742 372 q 759 371 755 372 q 764 369 764 370 q 760 366 764 367 q 750 366 755 366 q 741 367 745 366 q 735 369 736 368 m -32 439 q -27 439 -30 439 q -24 438 -25 439 l -24 437 l -24 437 q -29 436 -26 436 q -34 437 -34 437 q -32 439 -34 438 z "}}}
